<svg width="145" height="105" viewBox="0 0 145 105" fill="none" xmlns="http://www.w3.org/2000/svg">
<g clip-path="url(#clip0)">
<path opacity="0.1" d="M135.013 50.1788C135.093 49.2603 135.135 48.327 135.135 47.3841C135.135 32.6196 125.118 20.6498 112.761 20.6498C108.827 20.6498 105.118 21.8708 101.908 24.0075C93.1618 17.2242 81.7428 13.1257 69.2507 13.1257C48.9238 13.1257 31.4392 23.9885 23.6818 39.567C23.2518 39.5372 22.8177 39.5209 22.3795 39.5209C10.0162 39.5209 0 51.4893 0 66.2539C0 71.6805 1.35666 76.7313 3.68197 80.9478C3.68197 94.2309 14.325 105.003 27.4534 105.003H44.0046L44.0779 104.877C45.0506 103.297 47.38 102.903 49.0025 103.799C49.4312 104.035 49.8301 104.342 50.309 104.451C52.226 104.858 53.5134 101.774 55.4534 102.074C56.4275 102.224 57.1873 103.231 58.1668 103.128C58.8166 103.059 59.3091 102.515 59.9196 102.284C60.8977 101.912 61.8894 102.428 62.5746 103.265C62.972 102.121 62.9693 100.766 63.6124 99.7172C64.5851 98.1381 66.9145 97.7433 68.5371 98.64C68.9658 98.8761 69.3646 99.1827 69.8435 99.2912C71.7605 99.6982 73.048 96.6145 74.988 96.9144C75.9621 97.0649 76.7218 98.0716 77.7013 97.9685C78.3511 97.8993 78.8436 97.3553 79.4541 97.1246C80.9763 96.5453 82.5351 98.1177 82.9095 99.7023C83.0546 100.4 83.1314 101.111 83.1388 101.824C84.452 101.188 85.5618 99.3984 87.0609 99.6304C88.035 99.781 88.7947 100.788 89.7742 100.685C90.424 100.615 90.9165 100.071 91.527 99.8407C93.0492 99.2614 94.608 100.834 94.9824 102.418C95.1819 103.259 95.1954 104.133 95.2293 104.996H122.654C132.965 104.996 141.319 96.5413 141.319 86.1113C143.411 82.0413 144.62 77.255 144.62 72.1295C144.62 63.0399 140.821 55.0085 135.013 50.1788Z" fill="#6C63FF"/>
<path d="M100.056 54.4293C99.8966 53.6064 99.4846 52.8535 98.8776 52.2754C98.2705 51.6973 97.4985 51.3225 96.6687 51.2032C95.8389 51.0839 94.9926 51.2259 94.2472 51.6095C93.5018 51.9932 92.8944 52.5994 92.5092 53.344C91.6877 53.4335 90.9317 53.8344 90.3968 54.4644C89.8619 55.0943 89.5887 55.9053 89.6336 56.7305C89.6784 57.5557 90.0378 58.3323 90.6378 58.9006C91.2379 59.4688 92.0329 59.7855 92.8593 59.7854H99.8677C100.581 59.7833 101.264 59.4995 101.769 58.9959C102.274 58.4923 102.559 57.8096 102.563 57.0965C102.566 56.4156 102.307 55.7597 101.841 55.2636C101.375 54.7674 100.736 54.4689 100.056 54.4293ZM96.9564 56.0193V58.0625H95.2375V56.0139H93.3992L96.0949 53.3182L98.7892 56.0139L96.9564 56.0193Z" fill="white"/>
<path d="M120.678 87.9386C120.518 87.1156 120.106 86.3628 119.499 85.7847C118.892 85.2066 118.12 84.8318 117.29 84.7125C116.46 84.5932 115.614 84.7352 114.868 85.1188C114.123 85.5024 113.516 86.1087 113.13 86.8533C112.309 86.9427 111.553 87.3437 111.018 87.9736C110.483 88.6036 110.21 89.4146 110.255 90.2397C110.3 91.0649 110.659 91.8415 111.259 92.4098C111.859 92.9781 112.654 93.2947 113.48 93.2947H120.489C121.202 93.2925 121.886 93.0088 122.39 92.5052C122.895 92.0016 123.181 91.3189 123.185 90.6058C123.187 89.9249 122.929 89.2689 122.462 88.7728C121.996 88.2767 121.357 87.9781 120.678 87.9386ZM117.578 89.5286V91.5717H115.859V89.5232H114.02L116.716 86.8275L119.41 89.5232L117.578 89.5286Z" fill="white"/>
<path d="M44.6952 63.7604C44.4459 62.4894 43.8074 61.3274 42.8682 60.4356C41.9289 59.5437 40.7355 58.9662 39.4533 58.7831C38.1711 58.6 36.8637 58.8204 35.7123 59.4138C34.561 60.0071 33.6228 60.9439 33.0279 62.0944C31.7589 62.2338 30.5915 62.854 29.7657 63.8276C28.9398 64.8011 28.5184 66.0541 28.5879 67.3288C28.6573 68.6036 29.2125 69.8032 30.1393 70.6813C31.066 71.5593 32.2939 72.049 33.5705 72.0496H44.4035C45.5074 72.046 46.5651 71.6057 47.3455 70.8248C48.1259 70.0439 48.5655 68.9859 48.5684 67.8819C48.572 66.83 48.1725 65.8167 47.4522 65.0502C46.7318 64.2837 45.7452 63.8221 44.6952 63.7604ZM39.9048 66.2159V69.3824H37.2389V66.2159H34.4062L38.5725 62.051L42.7348 66.2159H39.9048Z" fill="white"/>
<path d="M91.3032 74.6135V71.3168L92.8226 72.8363L93.2025 72.4429L91.0318 70.2722L88.8612 72.4429L89.241 72.8227L90.7605 71.3168V74.6135H91.3032Z" fill="white"/>
<path d="M15.4659 79.0906V75.7939L16.9854 77.3134L17.3652 76.9199L15.1946 74.7493L13.0239 76.9199L13.4038 77.2998L14.9232 75.7939V79.0906H15.4659Z" fill="white"/>
<path d="M91.1675 43.546V41.0755L92.3071 42.2151L92.592 41.9207L90.964 40.2927L89.336 41.9207L89.6209 42.2056L90.7605 41.0755V43.546H91.1675Z" fill="white"/>
<path d="M61.4567 25.638V23.1676L62.5963 24.3072L62.8812 24.0128L61.2532 22.3848L59.6252 24.0128L59.9101 24.2977L61.0497 23.1676V25.638H61.4567Z" fill="white"/>
<path d="M50.3321 50.058V47.5875L51.4717 48.7271L51.7566 48.4327L50.1286 46.8047L48.5006 48.4327L48.7855 48.7176L49.9251 47.5875V50.058H50.3321Z" fill="white"/>
<path d="M120.064 61.454V58.9835L121.204 60.1231L121.489 59.8287L119.861 58.2007L118.233 59.8287L118.518 60.1136L119.657 58.9835V61.454H120.064Z" fill="white"/>
<path d="M47.8901 83.2962V80.8258L49.0297 81.9654L49.3146 81.671L47.6866 80.043L46.0586 81.671L46.3435 81.9559L47.4831 80.8258V83.2962H47.8901Z" fill="white"/>
<path d="M107.04 40.564C107.49 40.564 107.854 40.1996 107.854 39.75C107.854 39.3005 107.49 38.936 107.04 38.936C106.591 38.936 106.226 39.3005 106.226 39.75C106.226 40.1996 106.591 40.564 107.04 40.564Z" fill="white"/>
<path d="M30.3892 38.3934C30.8387 38.3934 31.2032 38.0289 31.2032 37.5794C31.2032 37.1298 30.8387 36.7654 30.3892 36.7654C29.9396 36.7654 29.5752 37.1298 29.5752 37.5794C29.5752 38.0289 29.9396 38.3934 30.3892 38.3934Z" fill="white"/>
<path d="M54.402 59.0147C54.8516 59.0147 55.216 58.6503 55.216 58.2007C55.216 57.7512 54.8516 57.3867 54.402 57.3867C53.9525 57.3867 53.588 57.7512 53.588 58.2007C53.588 58.6503 53.9525 59.0147 54.402 59.0147Z" fill="white"/>
<path d="M125.491 72.4456C125.716 72.4456 125.898 72.2634 125.898 72.0386C125.898 71.8138 125.716 71.6316 125.491 71.6316C125.266 71.6316 125.084 71.8138 125.084 72.0386C125.084 72.2634 125.266 72.4456 125.491 72.4456Z" fill="white"/>
<path d="M94.9661 83.7058C95.1909 83.7058 95.3731 83.5236 95.3731 83.2988C95.3731 83.0741 95.1909 82.8918 94.9661 82.8918C94.7414 82.8918 94.5591 83.0741 94.5591 83.2988C94.5591 83.5236 94.7414 83.7058 94.9661 83.7058Z" fill="white"/>
<path d="M42.7348 93.2024C42.9595 93.2024 43.1418 93.0202 43.1418 92.7954C43.1418 92.5706 42.9595 92.3884 42.7348 92.3884C42.51 92.3884 42.3278 92.5706 42.3278 92.7954C42.3278 93.0202 42.51 93.2024 42.7348 93.2024Z" fill="white"/>
<path d="M13.0239 60.2356C13.2487 60.2356 13.4309 60.0534 13.4309 59.8286C13.4309 59.6038 13.2487 59.4216 13.0239 59.4216C12.7992 59.4216 12.6169 59.6038 12.6169 59.8286C12.6169 60.0534 12.7992 60.2356 13.0239 60.2356Z" fill="white"/>
<path d="M16.9582 51.553C17.183 51.553 17.3652 51.3708 17.3652 51.146C17.3652 50.9212 17.183 50.739 16.9582 50.739C16.7335 50.739 16.5512 50.9212 16.5512 51.146C16.5512 51.3708 16.7335 51.553 16.9582 51.553Z" fill="white"/>
<path d="M104.463 97.1367C104.688 97.1367 104.87 96.9545 104.87 96.7297C104.87 96.505 104.688 96.3228 104.463 96.3228C104.238 96.3228 104.056 96.505 104.056 96.7297C104.056 96.9545 104.238 97.1367 104.463 97.1367Z" fill="white"/>
<path d="M29.1682 83.0276C29.3929 83.0276 29.5752 82.8454 29.5752 82.6206C29.5752 82.3958 29.3929 82.2136 29.1682 82.2136C28.9434 82.2136 28.7612 82.3958 28.7612 82.6206C28.7612 82.8454 28.9434 83.0276 29.1682 83.0276Z" fill="white"/>
<path d="M38.5291 45.7195C38.7539 45.7195 38.9361 45.5373 38.9361 45.3125C38.9361 45.0877 38.7539 44.9055 38.5291 44.9055C38.3044 44.9055 38.1221 45.0877 38.1221 45.3125C38.1221 45.5373 38.3044 45.7195 38.5291 45.7195Z" fill="white"/>
<path d="M52.4349 30.864H50.3321V28.7612H50.0607V30.864H47.9579V31.1354H50.0607V33.2382H50.3321V31.1354H52.4349V30.864Z" fill="white"/>
<path d="M103.649 69.7173H102.375V68.4434H102.209V69.7173H100.935V69.8828H102.209V71.1567H102.375V69.8828H103.649V69.7173Z" fill="white"/>
<path d="M95.9158 93.459H94.6419V92.1851H94.4764V93.459H93.2025V93.6245H94.4764V94.8984H94.6419V93.6245H95.9158V93.459Z" fill="white"/>
<path d="M32.5598 90.4743H31.2859V89.2004H31.1204V90.4743H29.8465V90.6399H31.1204V91.9138H31.2859V90.6399H32.5598V90.4743Z" fill="white"/>
<path d="M23.6059 66.5971H22.332V65.3232H22.1665V66.5971H20.8925V66.7627H22.1665V68.0366H22.332V66.7627H23.6059V66.5971Z" fill="white"/>
<path d="M61.5191 90.8527L61.5286 90.0889L61.07 90.0835L61.0605 90.8473L60.2696 93.1319L62.2557 93.155L61.5191 90.8527Z" fill="#3F3D56"/>
<path d="M63.512 90.8963L63.5215 90.1135L63.0507 90.1067L63.0412 90.8908L62.2299 93.2338L64.2677 93.2569L63.512 90.8963Z" fill="#3F3D56"/>
<path d="M65.4927 90.9003L65.5022 90.1365L65.0437 90.1311L65.0342 90.8949L64.2432 93.1795L66.2307 93.2026L65.4927 90.9003Z" fill="#3F3D56"/>
<path d="M79.6589 91.0886L79.6684 90.3045L79.1977 90.2991L79.1882 91.0832L78.3769 93.4248L80.4146 93.4492L79.6589 91.0886Z" fill="#3F3D56"/>
<path d="M81.6967 91.1133L81.7062 90.3292L81.2354 90.3237L81.2259 91.1079L80.4146 93.4495L82.4523 93.4739L81.6967 91.1133Z" fill="#3F3D56"/>
<path d="M83.7344 91.1377L83.7439 90.3536L83.2731 90.3481L83.2636 91.1323L82.4523 93.4739L84.49 93.4983L83.7344 91.1377Z" fill="#3F3D56"/>
<path d="M70.4092 90.9788L70.4187 90.1946L69.948 90.1892L69.9385 90.9734L69.1272 93.315L71.1649 93.3394L70.4092 90.9788Z" fill="#3F3D56"/>
<path d="M72.447 91.0034L72.4565 90.2193L71.987 90.2139L71.9776 90.998L71.1649 93.3396L73.2026 93.364L72.447 91.0034Z" fill="#3F3D56"/>
<path d="M74.4847 91.0279L74.4941 90.2437L74.0247 90.2383L74.0152 91.0224L73.2026 93.364L75.2417 93.3884L74.4847 91.0279Z" fill="#3F3D56"/>
<path d="M69.0214 36.1659C68.9929 33.4661 65.8129 28.6798 64.0967 28.6595C62.3805 28.6391 59.2426 33.3495 59.1503 36.0479H59.0689L58.4218 90.2884L68.377 90.4065L69.0241 36.1672L69.0214 36.1659Z" fill="#3F3D56"/>
<path d="M87.2061 36.3829C87.1776 33.6832 83.9976 28.8969 82.2814 28.8765C80.5652 28.8562 77.4273 33.5665 77.3364 36.2649H77.255L76.6078 90.5055L86.563 90.6235L87.2101 36.3843L87.2061 36.3829Z" fill="#3F3D56"/>
<path d="M78.2602 10.9781C78.2453 7.02076 75.0911 0.0203946 73.3763 4.47541e-05C71.6614 -0.0203051 68.4923 6.90408 68.3878 10.8533H68.3078L67.3581 90.3861L77.3119 90.5055L78.2616 10.9713L78.2602 10.9781Z" fill="#2F2E41"/>
<path d="M69.0716 53.6464L72.854 49.864L76.6716 53.6464H74.0777V56.5374H71.6669V53.664L69.0716 53.6464Z" fill="#5DBCD2"/>
<g opacity="0.1">
<path opacity="0.1" d="M77.9903 37.2972C79.02 34.8946 81.0305 32.3888 82.2814 32.4037C83.9094 32.4227 86.8425 36.7166 87.1749 39.4584L87.2101 36.5131C87.1816 33.8133 84.0016 29.027 82.2855 29.0067C81.0509 28.9917 79.0783 31.4324 78.0364 33.8065L77.9903 37.2972Z" fill="black"/>
<path opacity="0.1" d="M59.0703 39.5736H59.1517C59.2426 36.8752 62.3819 32.1649 64.0967 32.1852C65.2173 32.1988 66.9606 34.2433 68.0446 36.4126L68.3078 14.3859H68.3878C68.4937 10.4298 71.6615 3.50546 73.3763 3.53259C74.9961 3.55158 77.9021 9.80171 78.2304 13.8296L78.2616 11.1163C78.2467 7.15894 75.0924 0.158578 73.3776 0.138228C71.6628 0.117878 68.4937 7.04227 68.3892 10.9983H68.3092L68.046 33.025C66.9606 30.8544 65.2187 28.8112 64.0981 28.7977C62.3833 28.7773 59.244 33.4876 59.1531 36.186H59.0717L58.4245 90.4266H58.4652L59.0703 39.5736Z" fill="black"/>
</g>
<path d="M73.376 3.44404L73.3746 3.44402C72.8554 3.43786 72.4295 3.85376 72.4234 4.37296L72.3973 6.56924C72.3911 7.08844 72.807 7.51433 73.3262 7.52049L73.3276 7.52051C73.8468 7.52667 74.2727 7.11077 74.2788 6.59157L74.3049 4.39529C74.3111 3.87609 73.8952 3.4502 73.376 3.44404Z" fill="#ECECF3"/>
</g>
<defs>
<clipPath id="clip0">
<rect width="144.62" height="105" fill="white"/>
</clipPath>
</defs>
</svg>
