<svg width="129" height="107" viewBox="0 0 129 107" fill="none" xmlns="http://www.w3.org/2000/svg">
<path opacity="0.1" d="M127.263 59.345C127.26 63.6091 126.332 67.8219 124.541 71.6926C122.751 75.5634 120.141 78.9999 116.893 81.7652C113.644 84.5305 109.833 86.5587 105.724 87.7097C101.615 88.8608 97.3043 89.1073 93.0903 88.4324H46.3469C44.5415 88.6799 42.7213 88.8041 40.899 88.8041C39.5908 88.8041 38.2983 88.7418 37.0216 88.6171C27.1985 87.6642 18.0831 83.0889 11.454 75.7838C4.82481 68.4788 1.15749 58.9681 1.16756 49.1075C1.16756 27.1831 18.9565 9.41089 40.899 9.41089C58.5712 9.41089 73.5459 20.9394 78.7066 36.8796C84.03 32.3547 90.794 29.8749 97.7832 29.886C114.062 29.886 127.263 43.0749 127.263 59.345Z" fill="#6C63FF"/>
<path opacity="0.1" d="M128.43 96.9679C124.791 99.7693 120.606 101.801 116.136 102.936C111.665 104.071 107.005 104.285 102.447 103.565H49.2844C47.2311 103.843 45.1609 103.982 43.0884 103.982C41.6005 103.982 40.1305 103.912 38.6785 103.772C29.8742 102.921 21.5168 99.541 14.6416 94.0516C7.76638 88.5622 2.67562 81.2044 0 72.8899C4.32849 63.77 15.4489 57.2803 28.4869 57.2803C41.192 57.2803 52.082 63.4442 56.6271 72.1988C58.8652 71.7974 61.1354 71.5963 63.4102 71.5977C76.5784 71.5977 87.7902 78.2219 92.0236 87.4789C95.5303 86.4308 99.1755 85.9021 102.84 85.9101C113.58 85.9151 123.019 90.3177 128.43 96.9679Z" fill="#6C63FF"/>
<path d="M87.8287 32.905H87.1478C86.9466 32.905 86.7835 33.0681 86.7835 33.2693V44.1576C86.7835 44.3588 86.9466 44.5219 87.1478 44.5219H87.8287C88.0299 44.5219 88.193 44.3588 88.193 44.1576V33.2693C88.193 33.0681 88.0299 32.905 87.8287 32.905Z" fill="#3A3768"/>
<path d="M40.367 23.8035H40.3049C40.1037 23.8035 39.9406 23.9666 39.9406 24.1678V27.2637C39.9406 27.4649 40.1037 27.628 40.3049 27.628H40.367C40.5682 27.628 40.7313 27.4649 40.7313 27.2637V24.1678C40.7313 23.9666 40.5682 23.8035 40.367 23.8035Z" fill="#3A3768"/>
<path d="M40.4386 30.8064H40.2763C40.0751 30.8064 39.912 30.9695 39.912 31.1707V37.0984C39.912 37.2996 40.0751 37.4628 40.2763 37.4628H40.4386C40.6398 37.4628 40.8029 37.2996 40.8029 37.0984V31.1707C40.8029 30.9695 40.6398 30.8064 40.4386 30.8064Z" fill="#3A3768"/>
<path d="M40.4099 39.792H40.2906C40.0894 39.792 39.9263 39.9551 39.9263 40.1563V46.1413C39.9263 46.3425 40.0894 46.5056 40.2906 46.5056H40.4099C40.6111 46.5056 40.7743 46.3425 40.7743 46.1413V40.1563C40.7743 39.9551 40.6111 39.792 40.4099 39.792Z" fill="#3A3768"/>
<path d="M81.3409 11.165H46.5922C43.1664 11.165 40.3893 13.9422 40.3893 17.368V100.797C40.3893 104.223 43.1664 107 46.5922 107H81.3409C84.7667 107 87.5439 104.223 87.5439 100.797V17.368C87.5439 13.9422 84.7667 11.165 81.3409 11.165Z" fill="#3F3D56"/>
<path d="M65.3873 14.0271H60.0338C59.6938 14.0271 59.4182 14.3028 59.4182 14.6428V14.7478C59.4182 15.0878 59.6938 15.3635 60.0338 15.3635H65.3873C65.7273 15.3635 66.003 15.0878 66.003 14.7478V14.6428C66.003 14.3028 65.7273 14.0271 65.3873 14.0271Z" fill="#E6E8EC"/>
<path d="M67.7561 15.4543C68.1752 15.4543 68.515 15.1145 68.515 14.6954C68.515 14.2763 68.1752 13.9365 67.7561 13.9365C67.337 13.9365 66.9973 14.2763 66.9973 14.6954C66.9973 15.1145 67.337 15.4543 67.7561 15.4543Z" fill="#E6E8EC"/>
<path d="M80.8812 13.6611H75.488V14.3118C75.488 15.1295 75.1631 15.9137 74.5849 16.492C74.0067 17.0702 73.2225 17.395 72.4048 17.395H55.1943C54.3766 17.395 53.5924 17.0702 53.0142 16.492C52.436 15.9137 52.1111 15.1295 52.1111 14.3118V13.6611H47.0457C46.5539 13.6611 46.067 13.758 45.6127 13.9462C45.1585 14.1345 44.7457 14.4103 44.3981 14.7581C44.0505 15.1059 43.7748 15.5188 43.5867 15.9731C43.3987 16.4275 43.302 16.9144 43.3022 17.4061V100.759C43.302 101.25 43.3987 101.737 43.5867 102.192C43.7748 102.646 44.0505 103.059 44.3981 103.407C44.7457 103.755 45.1585 104.03 45.6127 104.219C46.067 104.407 46.5539 104.504 47.0457 104.504H80.8812C81.8744 104.504 82.827 104.109 83.5293 103.407C84.2316 102.705 84.6262 101.752 84.6262 100.759V17.4061C84.6262 16.4129 84.2316 15.4603 83.5293 14.758C82.827 14.0557 81.8744 13.6611 80.8812 13.6611Z" fill="#5DBCD2"/>
<path opacity="0.1" d="M68.7393 28.6177H45.0347V32.4359H68.7393V28.6177Z" fill="black" stroke="#6C63FF" stroke-miterlimit="10"/>
<path opacity="0.1" d="M50.762 54.7084C53.5736 54.7084 55.8529 52.4291 55.8529 49.6175C55.8529 46.8059 53.5736 44.5266 50.762 44.5266C47.9504 44.5266 45.6711 46.8059 45.6711 49.6175C45.6711 52.4291 47.9504 54.7084 50.762 54.7084Z" fill="black" stroke="#6C63FF" stroke-miterlimit="10"/>
<path d="M49.3302 48.6629V50.572H50.6029L52.1938 52.2345V46.9988L50.6029 48.6629H49.3302Z" fill="white"/>
<path opacity="0.1" d="M64.2848 54.7084C67.0964 54.7084 69.3757 52.4291 69.3757 49.6175C69.3757 46.8059 67.0964 44.5266 64.2848 44.5266C61.4731 44.5266 59.1938 46.8059 59.1938 49.6175C59.1938 52.4291 61.4731 54.7084 64.2848 54.7084Z" fill="black" stroke="#6C63FF" stroke-miterlimit="10"/>
<path d="M64.2847 51.7428C64.1644 51.7421 64.0466 51.7772 63.9462 51.8436C63.8459 51.91 63.7675 52.0047 63.721 52.1157C63.6745 52.2267 63.662 52.349 63.6851 52.4671C63.7082 52.5852 63.7658 52.6938 63.8507 52.7791C63.9356 52.8644 64.0438 52.9226 64.1618 52.9463C64.2798 52.97 64.4022 52.9582 64.5134 52.9123C64.6246 52.8664 64.7197 52.7885 64.7866 52.6885C64.8536 52.5885 64.8893 52.4708 64.8893 52.3505C64.8893 52.1899 64.8257 52.0358 64.7124 51.9219C64.5991 51.808 64.4454 51.7436 64.2847 51.7428ZM62.5029 46.2764C62.3825 46.2754 62.2646 46.3103 62.164 46.3765C62.0635 46.4427 61.9848 46.5373 61.9381 46.6482C61.8914 46.7592 61.8786 46.8815 61.9015 46.9997C61.9245 47.1179 61.982 47.2267 62.0668 47.3121C62.1515 47.3976 62.2598 47.456 62.3778 47.4798C62.4959 47.5036 62.6183 47.4919 62.7296 47.446C62.8409 47.4002 62.9361 47.3223 63.0031 47.2222C63.0701 47.1222 63.1059 47.0045 63.1059 46.8841C63.1059 46.7238 63.0425 46.5699 62.9296 46.4561C62.8166 46.3422 62.6633 46.2776 62.5029 46.2764ZM62.5029 48.0996C62.3825 48.0986 62.2645 48.1335 62.1639 48.1998C62.0633 48.266 61.9846 48.3607 61.9379 48.4718C61.8913 48.5828 61.8786 48.7053 61.9017 48.8235C61.9247 48.9417 61.9824 49.0505 62.0673 49.1359C62.1523 49.2213 62.2607 49.2795 62.3788 49.3032C62.4969 49.3268 62.6194 49.3149 62.7307 49.2688C62.842 49.2227 62.9371 49.1445 63.0039 49.0443C63.0707 48.944 63.1062 48.8262 63.1059 48.7057C63.1059 48.5455 63.0425 48.3918 62.9295 48.2782C62.8165 48.1646 62.6631 48.1004 62.5029 48.0996ZM62.5029 49.9212C62.3825 49.9202 62.2646 49.9551 62.164 50.0213C62.0635 50.0875 61.9848 50.182 61.9381 50.293C61.8914 50.404 61.8786 50.5263 61.9015 50.6445C61.9245 50.7627 61.982 50.8714 62.0668 50.9569C62.1515 51.0424 62.2598 51.1007 62.3778 51.1246C62.4959 51.1484 62.6183 51.1367 62.7296 51.0908C62.8409 51.045 62.9361 50.9671 63.0031 50.867C63.0701 50.767 63.1059 50.6493 63.1059 50.5289C63.1059 50.3685 63.0425 50.2147 62.9296 50.1008C62.8166 49.987 62.6633 49.9224 62.5029 49.9212ZM66.0665 47.4918C66.1869 47.4925 66.3047 47.4574 66.405 47.391C66.5054 47.3246 66.5838 47.2299 66.6303 47.1189C66.6768 47.0079 66.6892 46.8856 66.6662 46.7675C66.6431 46.6494 66.5854 46.5408 66.5006 46.4555C66.4157 46.3702 66.3074 46.312 66.1895 46.2883C66.0715 46.2646 65.9491 46.2764 65.8379 46.3223C65.7267 46.3683 65.6316 46.4461 65.5647 46.5462C65.4977 46.6462 65.462 46.7638 65.462 46.8841C65.4618 46.9637 65.4773 47.0426 65.5075 47.1162C65.5378 47.1898 65.5823 47.2568 65.6384 47.3132C65.6945 47.3696 65.7612 47.4144 65.8347 47.4451C65.9082 47.4758 65.9869 47.4916 66.0665 47.4918ZM64.2847 49.9212C64.1644 49.9205 64.0466 49.9556 63.9462 50.022C63.8459 50.0884 63.7675 50.1831 63.721 50.2941C63.6745 50.4051 63.662 50.5274 63.6851 50.6455C63.7082 50.7636 63.7658 50.8722 63.8507 50.9575C63.9356 51.0428 64.0438 51.101 64.1618 51.1247C64.2798 51.1484 64.4022 51.1366 64.5134 51.0907C64.6246 51.0448 64.7197 50.9669 64.7866 50.8669C64.8536 50.7669 64.8893 50.6492 64.8893 50.5289C64.8893 50.3683 64.8257 50.2142 64.7124 50.1003C64.5991 49.9864 64.4454 49.922 64.2847 49.9212ZM66.0665 49.9212C65.9462 49.9205 65.8284 49.9556 65.7281 50.022C65.6277 50.0884 65.5493 50.1831 65.5028 50.2941C65.4563 50.4051 65.4438 50.5274 65.4669 50.6455C65.49 50.7636 65.5477 50.8722 65.6325 50.9575C65.7174 51.0428 65.8257 51.101 65.9436 51.1247C66.0616 51.1484 66.184 51.1366 66.2952 51.0907C66.4064 51.0448 66.5015 50.9669 66.5684 50.8669C66.6354 50.7669 66.6711 50.6492 66.6711 50.5289C66.6711 50.3683 66.6075 50.2142 66.4942 50.1003C66.3809 49.9864 66.2272 49.922 66.0665 49.9212ZM66.0665 48.0996C65.9461 48.0989 65.8283 48.1341 65.7279 48.2006C65.6275 48.267 65.5491 48.3618 65.5027 48.4729C65.4562 48.584 65.4438 48.7063 65.467 48.8245C65.4903 48.9426 65.5481 49.0512 65.6331 49.1365C65.7181 49.2217 65.8265 49.2798 65.9446 49.3033C66.0627 49.3268 66.1851 49.3148 66.2963 49.2686C66.4075 49.2225 66.5025 49.1443 66.5692 49.0441C66.6359 48.9439 66.6714 48.8261 66.6711 48.7057C66.6711 48.5452 66.6074 48.3913 66.4941 48.2777C66.3808 48.164 66.227 48.1 66.0665 48.0996ZM64.2847 48.0996C64.1643 48.0989 64.0465 48.1341 63.9461 48.2006C63.8457 48.267 63.7673 48.3618 63.7209 48.4729C63.6744 48.584 63.662 48.7063 63.6853 48.8245C63.7085 48.9426 63.7663 49.0512 63.8513 49.1365C63.9363 49.2217 64.0447 49.2798 64.1628 49.3033C64.2809 49.3268 64.4033 49.3148 64.5145 49.2686C64.6257 49.2225 64.7207 49.1443 64.7874 49.0441C64.8541 48.9439 64.8896 48.8261 64.8893 48.7057C64.8893 48.5452 64.8256 48.3913 64.7123 48.2777C64.599 48.164 64.4452 48.1 64.2847 48.0996ZM64.2847 46.2764C64.1644 46.2758 64.0466 46.3109 63.9462 46.3773C63.8459 46.4436 63.7675 46.5383 63.721 46.6493C63.6745 46.7603 63.662 46.8826 63.6851 47.0007C63.7082 47.1188 63.7658 47.2274 63.8507 47.3127C63.9356 47.398 64.0438 47.4562 64.1618 47.4799C64.2798 47.5036 64.4022 47.4918 64.5134 47.4459C64.6246 47.4 64.7197 47.3221 64.7866 47.2221C64.8536 47.1221 64.8893 47.0044 64.8893 46.8841C64.8893 46.7235 64.8257 46.5694 64.7124 46.4555C64.5991 46.3416 64.4454 46.2772 64.2847 46.2764Z" fill="white"/>
<g opacity="0.4">
<path opacity="0.1" d="M50.762 69.9811C53.5736 69.9811 55.8529 67.7019 55.8529 64.8902C55.8529 62.0786 53.5736 59.7993 50.762 59.7993C47.9504 59.7993 45.6711 62.0786 45.6711 64.8902C45.6711 67.7019 47.9504 69.9811 50.762 69.9811Z" fill="black" stroke="#6C63FF" stroke-miterlimit="10"/>
<path opacity="0.4" d="M53.1484 65.2082H51.0802V67.2764H50.4438V65.2082H48.3756V64.5718H50.4438V62.5037H51.0802V64.5718H53.1484V65.2082Z" fill="white"/>
</g>
<path opacity="0.1" d="M77.8075 54.7084C80.6191 54.7084 82.8984 52.4291 82.8984 49.6175C82.8984 46.8059 80.6191 44.5266 77.8075 44.5266C74.9958 44.5266 72.7166 46.8059 72.7166 49.6175C72.7166 52.4291 74.9958 54.7084 77.8075 54.7084Z" fill="black" stroke="#6C63FF" stroke-miterlimit="10"/>
<path d="M77.8075 46.5137C77.4264 46.5187 77.0501 46.5987 76.6999 46.7491C76.3497 46.8996 76.0326 47.1175 75.7667 47.3905C75.5008 47.6635 75.2913 47.9862 75.1501 48.3402C75.0089 48.6942 74.9388 49.0726 74.9439 49.4537V51.7398C74.9422 51.8668 74.9656 51.993 75.0126 52.111C75.0597 52.229 75.1295 52.3365 75.2182 52.4275C75.3068 52.5185 75.4125 52.5912 75.5292 52.6413C75.646 52.6915 75.7714 52.7182 75.8984 52.7198H76.853V50.0932H75.5802V49.4569C75.5802 48.8661 75.8149 48.2996 76.2326 47.8819C76.6503 47.4642 77.2168 47.2296 77.8075 47.2296C78.3982 47.2296 78.9647 47.4642 79.3824 47.8819C79.8001 48.2996 80.0348 48.8661 80.0348 49.4569V50.0932H78.762V52.7182H79.7166C79.8437 52.7168 79.9692 52.6902 80.086 52.6402C80.2029 52.5901 80.3086 52.5174 80.3973 52.4264C80.486 52.3354 80.5558 52.2277 80.6028 52.1096C80.6498 51.9915 80.673 51.8653 80.6711 51.7382V49.4537C80.6762 49.0726 80.6061 48.6942 80.4649 48.3402C80.3237 47.9862 80.1142 47.6635 79.8483 47.3905C79.5824 47.1175 79.2653 46.8996 78.9151 46.7491C78.565 46.5987 78.1886 46.5187 77.8075 46.5137Z" fill="white"/>
<g opacity="0.4">
<path opacity="0.1" d="M64.2848 69.9811C67.0964 69.9811 69.3757 67.7019 69.3757 64.8902C69.3757 62.0786 67.0964 59.7993 64.2848 59.7993C61.4731 59.7993 59.1938 62.0786 59.1938 64.8902C59.1938 67.7019 61.4731 69.9811 64.2848 69.9811Z" fill="black" stroke="#6C63FF" stroke-miterlimit="10"/>
<path opacity="0.4" d="M66.1939 64.3445V63.0717C66.1932 63.0235 66.1831 62.9758 66.1641 62.9315C66.145 62.8871 66.1174 62.847 66.0829 62.8133C66.0483 62.7796 66.0074 62.753 65.9626 62.7352C65.9178 62.7173 65.8699 62.7084 65.8216 62.709H61.3129C61.2158 62.7082 61.1222 62.7459 61.0527 62.8138C60.9832 62.8818 60.9435 62.9746 60.9423 63.0717V66.7007C60.9439 66.7977 60.9838 66.8902 61.0532 66.9581C61.1225 67.026 61.2159 67.0638 61.3129 67.0634H65.82C65.9173 67.0642 66.0111 67.0266 66.0808 66.9587C66.1505 66.8907 66.1906 66.798 66.1923 66.7007V65.4279L67.6241 66.8788V62.8936L66.1939 64.3445Z" fill="white"/>
</g>
<path opacity="0.1" d="M77.8075 69.9811C80.6191 69.9811 82.8984 67.7019 82.8984 64.8902C82.8984 62.0786 80.6191 59.7993 77.8075 59.7993C74.9958 59.7993 72.7166 62.0786 72.7166 64.8902C72.7166 67.7019 74.9958 69.9811 77.8075 69.9811Z" fill="black" stroke="#6C63FF" stroke-miterlimit="10"/>
<path d="M77.5562 66.2012C77.2823 66.3566 76.9729 66.4382 76.6581 66.4382C76.3433 66.4382 76.0338 66.3566 75.76 66.2012C75.0568 66.416 74.6257 67.1272 74.4666 67.7524H78.8496C78.6905 67.1272 78.2609 66.416 77.5562 66.2012ZM76.6589 62.8604C76.3463 62.86 76.0407 62.9525 75.7806 63.1259C75.5206 63.2994 75.3178 63.5461 75.1981 63.8348C75.0783 64.1236 75.0469 64.4413 75.1078 64.7479C75.1687 65.0545 75.3192 65.3362 75.5402 65.5572C75.7613 65.7782 76.0429 65.9287 76.3495 65.9896C76.6561 66.0505 76.9739 66.0191 77.2626 65.8993C77.5513 65.7796 77.798 65.5768 77.9715 65.3168C78.145 65.0568 78.2374 64.7511 78.2371 64.4385C78.2371 64.02 78.0708 63.6186 77.7748 63.3226C77.4789 63.0266 77.0775 62.8604 76.6589 62.8604ZM76.6589 65.6413C76.4214 65.6368 76.1904 65.5631 75.9942 65.4291C75.798 65.2952 75.6453 65.1068 75.5548 64.8872H77.7614C77.6712 65.1068 77.5189 65.2954 77.323 65.4296C77.1271 65.5639 76.8963 65.638 76.6589 65.6428V65.6413Z" fill="white"/>
<path d="M78.8002 66.7977H81.1484C81.0752 66.4675 80.9175 66.162 80.6908 65.911C80.4641 65.66 80.1761 65.4722 79.855 65.3659C79.5808 65.5212 79.2712 65.6028 78.9561 65.6029C78.7447 65.6049 78.5346 65.5693 78.3356 65.4979C78.2248 65.6926 78.0842 65.8687 77.9188 66.0198C78.2829 66.1866 78.5895 66.4572 78.8002 66.7977ZM78.5616 64.0534H80.0602C79.9692 64.2724 79.8163 64.4602 79.6201 64.5935C79.424 64.7269 79.1933 64.8002 78.9561 64.8043C78.827 64.8034 78.6991 64.7808 78.5775 64.7375C78.5578 64.8651 78.5253 64.9903 78.4804 65.1114C78.6978 65.1807 78.9275 65.2022 79.154 65.1743C79.3804 65.1464 79.5981 65.0697 79.7921 64.9497C79.986 64.8296 80.1517 64.669 80.2777 64.4788C80.4037 64.2886 80.487 64.0734 80.5219 63.8479C80.5568 63.6225 80.5424 63.3921 80.4798 63.1728C80.4172 62.9534 80.3078 62.7502 80.1591 62.5771C80.0105 62.4041 79.8261 62.2652 79.6187 62.1702C79.4113 62.0752 79.1858 62.0262 78.9577 62.0266C78.6921 62.027 78.431 62.0942 78.1983 62.2221C77.9655 62.35 77.7688 62.5345 77.6261 62.7584C77.8647 62.8959 78.0714 63.0825 78.2326 63.3057C78.3939 63.5289 78.506 63.7837 78.5616 64.0534Z" fill="white"/>
<path d="M64.2848 90.3447C67.0964 90.3447 69.3757 88.0654 69.3757 85.2538C69.3757 82.4421 67.0964 80.1628 64.2848 80.1628C61.4731 80.1628 59.1938 82.4421 59.1938 85.2538C59.1938 88.0654 61.4731 90.3447 64.2848 90.3447Z" fill="#FF6F61"/>
<path d="M61.6709 86.5107C61.9494 86.2477 62.2665 86.0288 62.6111 85.8616C62.6645 85.8379 62.7097 85.799 62.7411 85.7498C62.7725 85.7005 62.7887 85.6432 62.7877 85.5848L62.8148 84.5952C63.7877 84.3061 64.8274 84.3339 65.7834 84.6748L65.7564 85.6643C65.7556 85.7218 65.7699 85.7785 65.7978 85.8287C65.8257 85.8789 65.8663 85.921 65.9155 85.9507C66.2611 86.1306 66.5741 86.3672 66.8414 86.6507C66.8701 86.6811 66.9045 86.7056 66.9427 86.7227C66.9809 86.7398 67.022 86.7492 67.0639 86.7504C67.1057 86.7516 67.1473 86.7445 67.1864 86.7296C67.2255 86.7147 67.2612 86.6922 67.2916 86.6634L68.0998 85.8966C68.1608 85.8387 68.1963 85.759 68.1987 85.6749C68.2011 85.5909 68.1701 85.5093 68.1125 85.448C67.624 84.9322 67.0386 84.5177 66.3899 84.2282C65.7412 83.9386 65.0417 83.7797 64.3316 83.7605C63.6214 83.7413 62.9145 83.8622 62.251 84.1162C61.5876 84.3703 60.9807 84.7525 60.465 85.2412C60.4347 85.27 60.4103 85.3045 60.3933 85.3427C60.3764 85.3809 60.3671 85.4221 60.3661 85.464C60.365 85.5058 60.3723 85.5474 60.3873 85.5864C60.4024 85.6254 60.425 85.6611 60.4539 85.6914L61.2191 86.4996C61.2479 86.5299 61.2824 86.5542 61.3206 86.5712C61.3589 86.5882 61.4001 86.5974 61.4419 86.5985C61.4837 86.5995 61.5253 86.5923 61.5643 86.5772C61.6034 86.5622 61.639 86.5396 61.6693 86.5107H61.6709Z" fill="white"/>
<path opacity="0.1" d="M78.4439 35.7766C80.6405 35.7766 82.4212 33.9959 82.4212 31.7993C82.4212 29.6027 80.6405 27.822 78.4439 27.822C76.2473 27.822 74.4666 29.6027 74.4666 31.7993C74.4666 33.9959 76.2473 35.7766 78.4439 35.7766Z" fill="black" stroke="#6C63FF" stroke-miterlimit="10"/>
<path d="M79.3427 32.6915C79.0686 32.8468 78.7589 32.9285 78.4438 32.9285C78.1288 32.9285 77.8191 32.8468 77.545 32.6915C76.8418 32.9063 76.4106 33.6174 76.2516 34.2442H80.6361C80.477 33.6174 80.0459 32.9063 79.3427 32.6915ZM78.4438 29.3506C78.1313 29.3503 77.8257 29.4427 77.5657 29.6161C77.3057 29.7894 77.103 30.0361 76.9832 30.3247C76.8634 30.6133 76.8318 30.931 76.8926 31.2376C76.9534 31.5441 77.1037 31.8258 77.3246 32.0469C77.5455 32.268 77.827 32.4186 78.1335 32.4797C78.4399 32.5407 78.7577 32.5096 79.0464 32.39C79.3352 32.2705 79.582 32.068 79.7557 31.8082C79.9293 31.5484 80.022 31.2429 80.022 30.9304C80.0216 30.5118 79.8552 30.1104 79.5594 29.8143C79.2636 29.5182 78.8624 29.3514 78.4438 29.3506ZM78.4438 32.1331C78.2064 32.1283 77.9756 32.0544 77.7795 31.9205C77.5834 31.7865 77.4306 31.5984 77.3397 31.379H79.5479C79.457 31.5984 79.3042 31.7867 79.1082 31.9209C78.9121 32.055 78.6813 32.1293 78.4438 32.1347V32.1331Z" fill="white"/>
<path opacity="0.1" d="M38.6791 3.6275C38.3084 3.41273 37.8072 3.61796 37.5527 3.96318C37.2981 4.30841 37.2345 4.75864 37.1629 5.17705C37.0213 6.11728 36.9179 7.19751 37.5527 7.90705C36.5154 4.76182 33.5325 2.35159 30.2345 2" stroke="#6C63FF" stroke-width="3" stroke-miterlimit="10"/>
<path opacity="0.1" d="M102.957 55.5308C102.718 55.3924 102.397 55.5308 102.233 55.7472C102.088 55.9831 102.001 56.2505 101.981 56.5267C101.891 57.1329 101.822 57.8265 102.233 58.2768C101.883 57.2671 101.257 56.3758 100.426 55.7044C99.5952 55.033 98.5922 54.6085 97.5316 54.4792" stroke="#6C63FF" stroke-width="3" stroke-miterlimit="10"/>
<path opacity="0.1" d="M21.8997 34.9638C21.6611 34.827 21.3397 34.9638 21.1758 35.1802C21.0304 35.4165 20.9441 35.6845 20.9245 35.9613C20.8338 36.5659 20.7654 37.2595 21.1758 37.7113C20.8261 36.7018 20.2001 35.8107 19.369 35.1394C18.538 34.4681 17.5352 34.0434 16.4747 33.9138" stroke="#6C63FF" stroke-width="3" stroke-miterlimit="10"/>
</svg>
