<svg width="66" height="75" viewBox="0 0 66 75" fill="none" xmlns="http://www.w3.org/2000/svg">
<g clip-path="url(#clip0)">
<path d="M32.8271 20.6541C23.5107 20.6541 15.9961 28.1687 15.9961 37.4851C15.9961 46.8015 23.5107 54.3162 32.8271 54.3162C42.1435 54.3162 49.6582 46.8015 49.6582 37.4851C49.6582 28.1687 42.1435 20.6541 32.8271 20.6541ZM32.8271 48.4275C26.8066 48.4275 21.8848 43.5203 21.8848 37.4851C21.8848 31.45 26.792 26.5427 32.8271 26.5427C38.8623 26.5427 43.7695 31.45 43.7695 37.4851C43.7695 43.5203 38.8476 48.4275 32.8271 48.4275ZM54.2725 19.9656C54.2725 22.1482 52.5146 23.8914 50.3467 23.8914C48.1641 23.8914 46.4209 22.1335 46.4209 19.9656C46.4209 17.7976 48.1787 16.0398 50.3467 16.0398C52.5146 16.0398 54.2725 17.7976 54.2725 19.9656ZM65.4199 23.95C65.1709 18.6912 63.9697 14.033 60.1172 10.1951C56.2793 6.35718 51.6211 5.15601 46.3623 4.89233C40.9424 4.58472 24.6973 4.58472 19.2773 4.89233C14.0332 5.14136 9.375 6.34253 5.52246 10.1804C1.66992 14.0183 0.483398 18.6765 0.219727 23.9353C-0.0878906 29.3552 -0.0878906 45.6003 0.219727 51.0203C0.46875 56.279 1.66992 60.9373 5.52246 64.7751C9.375 68.613 14.0186 69.8142 19.2773 70.0779C24.6973 70.3855 40.9424 70.3855 46.3623 70.0779C51.6211 69.8289 56.2793 68.6277 60.1172 64.7751C63.9551 60.9373 65.1562 56.279 65.4199 51.0203C65.7275 45.6003 65.7275 29.3699 65.4199 23.95ZM58.418 56.8357C57.2754 59.7068 55.0635 61.9187 52.1777 63.0759C47.8564 64.7898 37.6025 64.3943 32.8271 64.3943C28.0518 64.3943 17.7832 64.7751 13.4766 63.0759C10.6055 61.9333 8.39355 59.7214 7.23633 56.8357C5.52246 52.5144 5.91797 42.2605 5.91797 37.4851C5.91797 32.7097 5.53711 22.4412 7.23633 18.1345C8.37891 15.2634 10.5908 13.0515 13.4766 11.8943C17.7978 10.1804 28.0518 10.5759 32.8271 10.5759C37.6025 10.5759 47.8711 10.1951 52.1777 11.8943C55.0488 13.0369 57.2607 15.2488 58.418 18.1345C60.1318 22.4558 59.7363 32.7097 59.7363 37.4851C59.7363 42.2605 60.1318 52.5291 58.418 56.8357Z" fill="white"/>
</g>
<defs>
<clipPath id="clip0">
<rect width="65.625" height="75" fill="white"/>
</clipPath>
</defs>
</svg>
