<svg width="191" height="106" viewBox="0 0 191 106" fill="none" xmlns="http://www.w3.org/2000/svg">
<path d="M141.228 105H52.4823C49.5721 105 46.781 103.812 44.7232 101.696C42.6654 99.5806 41.5093 96.7114 41.5093 93.7197V51.9222C41.5093 51.3152 41.6296 50.7146 41.8628 50.157C42.096 49.5994 42.4373 49.0965 42.8658 48.6789L89.8921 2.85343C91.7723 1.02125 94.2643 0 96.855 0C99.4457 0 101.938 1.02125 103.818 2.85343L148.655 46.5456C149.775 47.637 150.667 48.9516 151.277 50.4092C151.886 51.8667 152.201 53.4366 152.201 55.0232V93.7197C152.201 95.201 151.917 96.6679 151.365 98.0365C150.814 99.4051 150.006 100.649 148.987 101.696C147.968 102.744 146.758 103.574 145.427 104.141C144.096 104.708 142.669 105 141.228 105Z" fill="#3F3D56"/>
<path opacity="0.1" d="M41.5093 52.6084H151.278V98.1885C151.278 99.995 150.58 101.728 149.338 103.005C148.095 104.282 146.41 105 144.652 105H48.1351C46.3779 105 44.6925 104.282 43.4499 103.005C42.2074 101.728 41.5093 99.995 41.5093 98.1885V52.6084Z" fill="black"/>
<path d="M131.52 16.6929H61.9598C58.6253 16.6929 55.9222 19.4717 55.9222 22.8995V94.4075C55.9222 97.8353 58.6253 100.614 61.9598 100.614H131.52C134.854 100.614 137.557 97.8353 137.557 94.4075V22.8995C137.557 19.4717 134.854 16.6929 131.52 16.6929Z" fill="#5DBCD2"/>
<path opacity="0.1" d="M137.557 54.4934V100.615H55.9222V54.4934L96.7397 74.7744L137.557 54.4934Z" fill="black"/>
<path d="M96.7397 77.382L44.4394 51.3956C44.1159 51.2349 43.758 51.1612 43.3993 51.1815C43.0405 51.2018 42.6927 51.3155 42.3883 51.5118C42.0839 51.708 41.833 51.9806 41.6591 52.3038C41.4852 52.627 41.394 52.9903 41.394 53.3597V98.0702C41.394 98.9647 41.5654 99.8504 41.8983 100.677C42.2313 101.503 42.7194 102.254 43.3347 102.887C43.9499 103.519 44.6804 104.021 45.4842 104.363C46.2881 104.705 47.1497 104.882 48.0199 104.882H145.46C146.33 104.882 147.191 104.705 147.995 104.363C148.799 104.021 149.529 103.519 150.145 102.887C150.76 102.254 151.248 101.503 151.581 100.677C151.914 99.8504 152.085 98.9647 152.085 98.0702V54.1256C152.085 53.6749 151.974 53.2315 151.762 52.8371C151.55 52.4427 151.244 52.1102 150.872 51.8707C150.501 51.6311 150.076 51.4925 149.638 51.4677C149.201 51.4429 148.764 51.5328 148.369 51.7289L96.7397 77.382Z" fill="#3F3D56"/>
<path d="M85.7859 24.3977H62.9557V27.7166H85.7859V24.3977Z" fill="#F2F2F2"/>
<path d="M128.909 36.488H61.1108V38.3846H128.909V36.488Z" fill="#F2F2F2"/>
<path d="M128.909 42.8889H61.1108V44.7854H128.909V42.8889Z" fill="#F2F2F2"/>
<path d="M128.909 49.2896H61.1108V51.1861H128.909V49.2896Z" fill="#F2F2F2"/>
<path d="M0 104.881H190.02" stroke="#3F3D56" stroke-miterlimit="10"/>
<path d="M59.266 27.7518C64.4878 27.7518 68.7209 23.3923 68.7209 18.0145C68.7209 12.6367 64.4878 8.2771 59.266 8.2771C54.0442 8.2771 49.8111 12.6367 49.8111 18.0145C49.8111 23.3923 54.0442 27.7518 59.266 27.7518Z" fill="white"/>
<path d="M59.266 6.61768C57.0312 6.61768 54.8465 7.29896 52.9882 8.57536C51.13 9.85177 49.6817 11.666 48.8264 13.7886C47.9712 15.9111 47.7474 18.2468 48.1834 20.5001C48.6194 22.7534 49.6956 24.8232 51.2759 26.4478C52.8562 28.0724 54.8696 29.1787 57.0616 29.6269C59.2535 30.0751 61.5255 29.8451 63.5903 28.9659C65.655 28.0867 67.4198 26.5978 68.6614 24.6875C69.9031 22.7772 70.5658 20.5314 70.5658 18.2339C70.557 15.1558 69.3637 12.2065 67.2465 10.0299C65.1293 7.85343 62.2602 6.62669 59.266 6.61768ZM56.9463 24.4273L51.1552 18.474L52.7795 16.8042L56.9518 21.0933L65.758 12.0404L67.3823 13.7103L56.9463 24.4274L56.9463 24.4273Z" fill="#57B894"/>
</svg>
