<svg width="593" height="327" viewBox="0 0 593 327" fill="none" xmlns="http://www.w3.org/2000/svg">
<g clip-path="url(#clip0)">
<path d="M135.83 283.796C135.715 296.92 134.754 310.022 132.953 323.021C132.89 323.478 132.821 323.934 132.758 324.391L9.85793 323.704C9.49709 323.251 9.14191 322.792 8.79779 322.328C7.65039 320.791 6.575 319.211 5.58779 317.576C0.842806 309.7 -1.32949 300.479 0.847362 294.117L0.886341 294.018C1.35624 292.625 2.0967 291.338 3.0652 290.232C8.02839 284.645 18.0635 285.577 27.1701 290.086C19.002 281.145 12.4982 269.863 12.004 259.793C11.5194 249.97 16.6557 242.953 22.2265 236.99C22.4093 236.793 22.592 236.601 22.7748 236.41C22.8635 236.311 22.9576 236.218 23.046 236.119C27.3924 231.575 32.4597 227.095 39.7941 227.637C47.8381 228.232 56.7565 234.97 63.0097 242.821C69.2629 250.667 73.4183 259.58 77.6303 268.279C81.8477 276.972 86.4105 285.887 93.1781 293.317C84.0119 281.723 76.6215 268.532 73.8915 255.702C71.1615 242.872 73.5641 230.55 81.7334 224.508C84.2135 222.73 87.0833 221.572 90.1027 221.131C90.4552 221.073 90.8132 221.025 91.1768 220.983C98.7392 220.122 107.768 222.738 115.451 228.99C123.911 235.874 129.777 246.079 132.695 255.766C135.614 265.454 135.925 274.78 135.83 283.796Z" fill="#F2F2F2"/>
<path d="M55.4224 323.959L53.0723 323.946C52.3261 323.479 51.5764 323.018 50.8231 322.562C50.3568 322.268 49.8851 321.985 49.4131 321.696C41.6179 316.935 33.774 312.368 25.8813 307.996C17.9957 303.62 10.0706 299.445 2.10575 295.473C1.89463 295.381 1.72238 295.218 1.61895 295.012C1.51551 294.806 1.48741 294.571 1.53956 294.346C1.54809 294.317 1.56132 294.289 1.57872 294.264C1.68982 294.056 1.93811 293.969 2.30049 294.147C3.27743 294.637 4.26001 295.127 5.23688 295.628C13.2235 299.668 21.1758 303.911 29.0938 308.355C37.0063 312.797 44.8738 317.436 52.6962 322.27C52.8607 322.37 53.0254 322.476 53.1899 322.576C53.9358 323.037 54.6764 323.498 55.4224 323.959Z" fill="white"/>
<path d="M85.7236 324.128L84.2704 324.12C83.9426 323.661 83.6205 323.203 83.2928 322.744C75.592 311.945 67.8929 301.146 60.1954 290.348C47.5899 272.669 34.9881 254.989 22.39 237.31C22.3154 237.215 22.2598 237.106 22.2265 236.99C22.1188 236.599 22.4063 236.369 22.7749 236.41C22.9302 236.432 23.0791 236.487 23.2115 236.571C23.3439 236.655 23.4568 236.767 23.5427 236.898C30.61 246.813 37.6756 256.724 44.7394 266.631C57.2793 284.222 69.8175 301.81 82.3538 319.397C83.1512 320.514 83.9486 321.636 84.746 322.752C85.0737 323.211 85.4015 323.669 85.7236 324.128Z" fill="white"/>
<path d="M118.098 315.689C118.024 318.138 117.862 320.548 117.65 322.936C117.609 323.393 117.568 323.849 117.527 324.306L116.003 324.297C116.049 323.841 116.096 323.384 116.137 322.927C116.459 319.478 116.688 315.989 116.719 312.406C116.759 302.472 115.791 292.559 113.829 282.82C111.744 272.334 108.749 262.049 104.88 252.083C100.819 241.571 95.9221 231.401 90.2373 221.671C90.1302 221.513 90.0826 221.321 90.1028 221.131C90.1657 220.697 90.7442 220.568 91.1768 220.983C91.2622 221.064 91.3358 221.157 91.3954 221.259C92.0987 222.469 92.7892 223.682 93.4669 224.898C98.942 234.682 103.628 244.887 107.481 255.416C111.151 265.416 113.943 275.716 115.825 286.2C117.587 295.926 118.349 305.807 118.098 315.689Z" fill="white"/>
<path d="M543.841 252.795C543.841 246.9 521.656 242.122 494.29 242.122C466.923 242.122 444.739 246.9 444.739 252.795C444.739 256.572 453.859 259.889 467.608 261.786V320.26C467.608 321.575 468.13 322.835 469.06 323.764C469.989 324.693 471.249 325.215 472.563 325.215C473.878 325.215 475.138 324.693 476.067 323.764C476.997 322.835 477.519 321.575 477.519 320.26V262.839C482.757 263.245 488.402 263.467 494.29 263.467C500.177 263.467 505.822 263.245 511.061 262.839V320.26C511.061 321.575 511.583 322.835 512.512 323.764C513.441 324.693 514.702 325.215 516.016 325.215C517.33 325.215 518.59 324.693 519.52 323.764C520.449 322.835 520.971 321.575 520.971 320.26V261.786C534.72 259.889 543.841 256.572 543.841 252.795Z" fill="#CCCCCC"/>
<path d="M499.769 155.108C511.557 155.108 521.114 145.552 521.114 133.763C521.114 121.975 511.557 112.418 499.769 112.418C487.98 112.418 478.424 121.975 478.424 133.763C478.424 145.552 487.98 155.108 499.769 155.108Z" fill="#2F2E41"/>
<path d="M446.65 316.391H437.304L432.858 280.342H446.651L446.65 316.391Z" fill="#A0616A"/>
<path d="M430.628 313.72H448.652V325.068H419.279C419.279 323.578 419.573 322.102 420.143 320.725C420.714 319.349 421.549 318.097 422.603 317.044C423.657 315.99 424.908 315.154 426.285 314.584C427.662 314.013 429.138 313.72 430.628 313.72Z" fill="#2F2E41"/>
<path d="M432.061 311.175L423.143 308.376L429.693 272.65L442.854 276.779L432.061 311.175Z" fill="#A0616A"/>
<path d="M417.574 303.83L434.771 309.226L431.373 320.054L403.348 311.259C403.794 309.838 404.516 308.517 405.472 307.374C406.429 306.231 407.601 305.288 408.922 304.598C410.243 303.908 411.687 303.485 413.171 303.353C414.656 303.221 416.152 303.383 417.574 303.83Z" fill="#2F2E41"/>
<path d="M435.101 296.791C434.692 296.791 434.286 296.717 433.903 296.573L427.027 293.995C426.255 293.703 425.614 293.143 425.22 292.418C424.827 291.693 424.706 290.85 424.882 290.044C426.613 282.26 432.513 255.761 435.743 241.548C439.574 224.689 495.466 221.557 497.843 221.431L498.038 221.421L504.326 229.322C506.598 236.624 505.877 242.32 502.185 246.252C491.412 257.722 459.246 250.605 455.41 249.704L438.313 294.583C438.064 295.232 437.624 295.791 437.05 296.186C436.477 296.58 435.797 296.791 435.101 296.791Z" fill="#2F2E41"/>
<path d="M445.011 302.128C444.602 302.128 444.196 302.054 443.813 301.909L436.937 299.331C436.165 299.039 435.524 298.48 435.131 297.754C434.737 297.029 434.617 296.186 434.792 295.38C436.523 287.597 442.423 261.098 445.653 246.884C449.485 230.025 505.376 226.893 507.753 226.768L507.949 226.757L514.236 234.658C516.508 241.961 515.788 247.656 512.096 251.588C501.322 263.058 469.156 255.941 465.32 255.04L448.223 299.919C447.974 300.569 447.534 301.128 446.96 301.522C446.387 301.916 445.707 302.128 445.011 302.128Z" fill="#2F2E41"/>
<path d="M425.119 192.338C425.371 192.676 425.597 193.033 425.793 193.406L463.391 197.367L468.804 189.947L481.07 196.651L470.44 214.658L424.329 202.901C423.165 204.035 421.684 204.789 420.082 205.06C418.481 205.332 416.834 205.11 415.361 204.424C413.889 203.737 412.66 202.618 411.839 201.216C411.018 199.814 410.643 198.196 410.764 196.575C410.885 194.955 411.497 193.41 412.518 192.146C413.538 190.882 414.92 189.958 416.478 189.498C418.036 189.038 419.697 189.064 421.241 189.571C422.784 190.078 424.137 191.043 425.119 192.338L425.119 192.338Z" fill="#A0616A"/>
<path d="M512.491 237.682C511.947 237.68 511.412 237.55 510.929 237.3C503.41 233.477 488.771 226.857 475.195 225.472C474.73 225.426 474.28 225.284 473.874 225.054C473.468 224.824 473.114 224.512 472.835 224.137C472.551 223.759 472.348 223.326 472.239 222.866C472.129 222.405 472.116 221.927 472.2 221.461C473.425 214.68 476.235 197.412 475.873 183.573C475.766 179.318 477.111 175.153 479.685 171.763C482.259 168.373 485.911 165.96 490.038 164.92C492.523 164.265 495.047 163.767 497.595 163.431C500.524 163.06 503.498 163.38 506.281 164.365C509.063 165.351 511.576 166.974 513.619 169.106C515.661 171.237 517.175 173.817 518.041 176.639C518.907 179.461 519.1 182.447 518.604 185.357C516.183 199.699 513.743 219.73 515.864 233.713C515.961 234.339 515.883 234.981 515.639 235.566C515.394 236.151 514.992 236.657 514.478 237.028C513.901 237.451 513.206 237.68 512.491 237.682Z" fill="#2A99BF"/>
<path d="M476.569 201.204C476.1 201.203 475.637 201.106 475.207 200.919L465.412 196.68C464.578 196.317 463.922 195.639 463.587 194.793C463.253 193.948 463.267 193.004 463.627 192.169L471.198 174.68C471.655 173.622 472.316 172.666 473.143 171.864C473.969 171.062 474.946 170.431 476.017 170.007C477.087 169.583 478.231 169.374 479.383 169.392C480.534 169.41 481.671 169.654 482.728 170.112C483.785 170.569 484.741 171.23 485.542 172.058C486.344 172.885 486.974 173.862 487.398 174.933C487.821 176.004 488.03 177.148 488.011 178.299C487.992 179.451 487.747 180.587 487.289 181.644L479.718 199.133C479.451 199.748 479.012 200.271 478.452 200.638C477.893 201.006 477.238 201.203 476.569 201.204V201.204Z" fill="#2A99BF"/>
<path d="M498.988 157.481C509.329 157.481 517.712 149.098 517.712 138.758C517.712 128.417 509.329 120.034 498.988 120.034C488.648 120.034 480.265 128.417 480.265 138.758C480.265 149.098 488.648 157.481 498.988 157.481Z" fill="#A0616A"/>
<path d="M479.928 129.558C488.797 134.972 498.795 138.267 509.145 139.185L506.065 135.495C508.308 136.324 510.667 136.793 513.056 136.883C515.442 136.846 517.943 135.928 519.297 133.962C519.901 132.986 520.26 131.877 520.343 130.732C520.426 129.586 520.231 128.438 519.774 127.384C518.835 125.282 517.374 123.456 515.53 122.078C512.262 119.492 508.404 117.756 504.302 117.022C500.199 116.289 495.979 116.582 492.017 117.876C489.299 118.688 486.865 120.249 484.994 122.381C483.219 124.57 479.802 126.521 480.711 129.189L479.928 129.558Z" fill="#2F2E41"/>
<path d="M502.137 114.449C496.231 108.46 489.085 103.839 481.201 100.91C476.14 99.0354 470.632 97.877 465.341 98.9418C460.05 100.006 455.046 103.667 453.57 108.858C452.363 113.103 453.61 117.673 455.483 121.669C457.356 125.665 459.857 129.371 461.371 133.516C462.917 137.745 463.382 142.293 462.724 146.748C462.065 151.203 460.305 155.422 457.603 159.024C454.9 162.626 451.341 165.495 447.248 167.373C443.155 169.25 438.658 170.075 434.165 169.773C439.363 170.471 444.155 172.914 449.236 174.214C454.318 175.514 460.315 175.426 464.091 171.786C468.087 167.934 468.167 161.672 467.973 156.126C467.686 147.881 467.399 139.637 467.112 131.392C466.966 127.188 466.84 122.848 468.357 118.924C469.873 115 473.477 111.563 477.684 111.599C480.872 111.626 483.694 113.557 486.251 115.462C488.808 117.367 491.515 119.399 494.69 119.683C497.866 119.966 501.493 117.616 501.255 114.436" fill="#2F2E41"/>
<path d="M467.51 232.873C466.269 232.871 465.044 232.595 463.923 232.063C462.802 231.531 461.813 230.757 461.028 229.797C460.242 228.837 459.679 227.715 459.379 226.511C459.079 225.307 459.05 224.051 459.294 222.835C459.538 221.619 460.048 220.471 460.789 219.476C461.53 218.481 462.482 217.662 463.577 217.079C464.672 216.496 465.883 216.163 467.122 216.104C468.361 216.045 469.598 216.262 470.744 216.739H470.744C471.088 216.885 471.422 217.054 471.744 217.246L505.85 201.933L506.809 192.683L521.511 192.289L521.413 207.689C521.395 209.473 520.802 211.204 519.723 212.624C518.643 214.045 517.135 215.079 515.421 215.574L475.534 226.927C475.457 227.191 475.365 227.45 475.261 227.704C474.621 229.233 473.544 230.539 472.165 231.458C470.786 232.377 469.167 232.869 467.51 232.873V232.873Z" fill="#A0616A"/>
<path d="M520.266 199.838C519.847 200.05 519.39 200.174 518.922 200.202L508.27 200.857C507.362 200.911 506.47 200.604 505.789 200.001C505.107 199.399 504.693 198.551 504.636 197.643L503.466 178.621C503.394 177.471 503.548 176.318 503.922 175.228C504.295 174.137 504.88 173.131 505.643 172.267C506.405 171.403 507.331 170.698 508.366 170.192C509.402 169.686 510.527 169.389 511.677 169.318C512.827 169.247 513.98 169.404 515.07 169.779C516.16 170.155 517.165 170.741 518.027 171.505C518.89 172.269 519.594 173.196 520.098 174.232C520.602 175.269 520.897 176.394 520.966 177.545L522.136 196.567C522.176 197.235 522.021 197.9 521.689 198.482C521.357 199.063 520.862 199.534 520.265 199.839L520.266 199.838Z" fill="#2A99BF"/>
<path d="M497.114 234.796H436.89C436.183 234.796 435.504 234.515 435.004 234.014C434.503 233.514 434.222 232.835 434.222 232.128C434.222 231.42 434.503 230.741 435.004 230.241C435.504 229.741 436.183 229.46 436.89 229.46H497.114C497.822 229.46 498.5 229.741 499.001 230.241C499.501 230.741 499.782 231.42 499.782 232.128C499.782 232.835 499.501 233.514 499.001 234.014C498.5 234.515 497.822 234.796 497.114 234.796Z" fill="#3F3D56"/>
<path d="M410.59 229.841V192.487C410.592 191.173 411.114 189.914 412.043 188.985C412.972 188.056 414.232 187.533 415.545 187.532H483.392C484.706 187.533 485.965 188.056 486.894 188.985C487.823 189.914 488.346 191.173 488.347 192.487V229.841C488.346 231.155 487.823 232.414 486.894 233.343C485.965 234.272 484.706 234.794 483.392 234.796H415.545C414.232 234.794 412.972 234.272 412.043 233.343C411.114 232.414 410.592 231.155 410.59 229.841Z" fill="#3F3D56"/>
<path d="M449.469 215.738C451.995 215.738 454.043 213.69 454.043 211.164C454.043 208.638 451.995 206.59 449.469 206.59C446.943 206.59 444.895 208.638 444.895 211.164C444.895 213.69 446.943 215.738 449.469 215.738Z" fill="white"/>
<path d="M210.997 167.206C210.379 166.271 209.564 165.483 208.608 164.897C207.653 164.311 206.581 163.941 205.468 163.815C204.354 163.688 203.226 163.807 202.164 164.163C201.101 164.519 200.13 165.104 199.318 165.877L175.11 153.382L176.615 167.458L199.372 177.165C200.76 178.443 202.568 179.168 204.455 179.202C206.342 179.236 208.175 178.576 209.608 177.349C211.041 176.121 211.973 174.411 212.229 172.541C212.485 170.672 212.047 168.774 210.997 167.206H210.997Z" fill="#FFB8B8"/>
<path d="M189.484 172.872C189.046 173.073 188.57 173.179 188.088 173.184C187.607 173.19 187.129 173.093 186.687 172.902L163.693 162.927C155.831 159.518 149.475 153.369 145.808 145.624L133.72 120.109C132.827 118.962 132.17 117.652 131.785 116.251C131.4 114.851 131.294 113.388 131.475 111.947C131.655 110.506 132.118 109.115 132.837 107.853C133.555 106.59 134.516 105.482 135.663 104.592C136.81 103.701 138.122 103.045 139.522 102.662C140.923 102.278 142.386 102.175 143.827 102.357C145.268 102.539 146.659 103.004 147.92 103.724C149.181 104.444 150.288 105.406 151.177 106.554L172.425 145.977L192.045 160.797C192.607 161.223 193.024 161.812 193.24 162.483C193.457 163.154 193.462 163.875 193.255 164.549L191.329 170.769C191.122 171.436 190.717 172.024 190.167 172.455C189.957 172.62 189.727 172.76 189.484 172.872Z" fill="#3960B0"/>
<path d="M133.188 90.1006C143.528 90.1006 151.911 81.7178 151.911 71.3772C151.911 61.0365 143.528 52.6537 133.188 52.6537C122.847 52.6537 114.464 61.0365 114.464 71.3772C114.464 81.7178 122.847 90.1006 133.188 90.1006Z" fill="#FFB8B8"/>
<path d="M140.772 316.995H150.117L154.564 280.946H140.769L140.772 316.995Z" fill="#FFB8B8"/>
<path d="M168.142 325.672L138.769 325.674L138.768 314.325L156.793 314.324C159.803 314.324 162.689 315.52 164.818 317.648C166.946 319.776 168.142 322.662 168.142 325.672L168.142 325.672Z" fill="#2F2E41"/>
<path d="M110.279 316.995H119.624L124.071 280.946H110.276L110.279 316.995Z" fill="#FFB8B8"/>
<path d="M137.649 325.672L108.276 325.674L108.275 314.325L126.3 314.324C129.31 314.324 132.196 315.52 134.325 317.648C136.453 319.776 137.649 322.662 137.649 325.672L137.649 325.672Z" fill="#2F2E41"/>
<path d="M107.015 306.677C106.693 306.309 106.453 305.877 106.312 305.409C106.171 304.941 106.131 304.448 106.195 303.964L122.558 181.241L163.212 188.145L167.551 185.542L156.331 301.982C156.238 302.768 155.876 303.498 155.308 304.048C154.739 304.599 153.997 304.936 153.209 305.004L140.899 306.03C140.41 306.071 139.917 306.006 139.455 305.84C138.993 305.674 138.571 305.411 138.22 305.068C137.868 304.726 137.594 304.311 137.416 303.853C137.238 303.396 137.161 302.905 137.189 302.415L140.376 246.962C140.382 246.867 140.352 246.774 140.293 246.701C140.234 246.627 140.15 246.578 140.057 246.563C139.964 246.547 139.868 246.567 139.789 246.618C139.71 246.67 139.652 246.748 139.628 246.839L123.86 305.31C123.663 306.038 123.232 306.68 122.634 307.139C122.035 307.598 121.302 307.847 120.548 307.848H109.596C109.107 307.848 108.624 307.743 108.179 307.541C107.734 307.339 107.337 307.045 107.015 306.677Z" fill="#2F2E41"/>
<path d="M135.169 189.831C134.703 189.409 134.103 189.163 133.474 189.137C132.845 189.11 132.227 189.305 131.727 189.688L123.599 196.009C123.157 196.354 122.636 196.586 122.084 196.683C121.531 196.78 120.964 196.74 120.43 196.566C119.897 196.393 119.414 196.091 119.025 195.687C118.635 195.283 118.351 194.79 118.196 194.251C114.209 180.289 105.177 145.144 107.402 120.408C108.663 106.386 120.771 95.7303 134.392 96.6244C143.704 97.2453 149.831 102.617 152.601 112.591C159.403 137.078 166.878 181.996 168.307 190.752C168.42 191.431 168.325 192.129 168.034 192.753C167.744 193.378 167.271 193.899 166.679 194.25C162.833 196.559 158.439 197.795 153.954 197.831C148.527 197.831 142.02 195.942 135.169 189.831Z" fill="#3960B0"/>
<path d="M138.236 198.542C138.327 197.425 138.172 196.302 137.782 195.251C137.392 194.2 136.776 193.248 135.978 192.461C135.18 191.674 134.22 191.072 133.164 190.696C132.108 190.321 130.982 190.182 129.867 190.288L118.53 165.518L111.027 177.523L122.943 199.204C123.247 201.067 124.222 202.753 125.686 203.944C127.149 205.135 128.999 205.747 130.884 205.666C132.769 205.584 134.559 204.814 135.914 203.501C137.269 202.188 138.095 200.423 138.236 198.542H138.236Z" fill="#FFB8B8"/>
<path d="M117.812 189.724C117.343 189.612 116.903 189.402 116.521 189.109C116.139 188.815 115.822 188.445 115.593 188.021L103.655 165.983C99.5728 158.449 98.3661 149.688 100.26 141.33L106.494 113.793C106.5 112.341 106.792 110.904 107.353 109.565C107.914 108.225 108.734 107.01 109.765 105.988C110.797 104.965 112.019 104.156 113.363 103.607C114.708 103.057 116.147 102.778 117.599 102.785C119.051 102.792 120.488 103.085 121.827 103.648C123.165 104.211 124.38 105.032 125.401 106.064C126.423 107.096 127.23 108.32 127.779 109.665C128.327 111.009 128.605 112.449 128.596 113.901L120.987 158.034L127.279 181.804C127.458 182.486 127.423 183.206 127.179 183.867C126.935 184.529 126.494 185.1 125.915 185.502L120.562 189.208C119.987 189.605 119.306 189.818 118.607 189.818C118.339 189.818 118.072 189.786 117.812 189.724Z" fill="#3960B0"/>
<path opacity="0.2" d="M127.077 132.513L120.216 161.482L130.126 185.876L123.266 162.244L127.077 132.513Z" fill="black"/>
<path d="M122.503 86.7737C120.838 86.8046 119.182 86.5051 117.633 85.8926C116.952 85.6299 116.244 85.414 115.564 85.1512C109.555 82.8298 105.597 76.4309 105.456 69.9913C105.314 63.5516 108.649 57.3013 113.601 53.1822C118.553 49.063 124.967 46.9483 131.39 46.4592C138.308 45.9325 146.098 47.6869 149.964 53.4484C150.993 54.982 151.713 56.8427 151.103 58.6944C150.92 59.2532 150.594 59.7542 150.157 60.1473C148.431 61.6833 146.709 60.5284 144.949 60.4263C142.53 60.2861 140.358 62.2442 139.577 64.538C138.796 66.8318 139.14 69.3571 139.77 71.6967C140.25 73.1046 140.553 74.5668 140.672 76.0497C140.722 76.7932 140.583 77.5374 140.265 78.2118C139.948 78.8861 139.464 79.4683 138.858 79.903C137.347 80.8167 135.362 80.2879 133.849 79.3756C132.337 78.4634 131.03 77.195 129.396 76.5237C127.762 75.8525 125.567 76.0014 124.616 77.4898C124.314 78.0314 124.11 78.622 124.012 79.2345C123.16 83.1184 123.355 82.8897 122.503 86.7736L122.503 86.7737Z" fill="#2F2E41"/>
<path d="M284.841 150.314C284.53 149.921 284.314 149.462 284.207 148.973C284.1 148.483 284.107 147.976 284.226 147.489C287.069 135.58 287.069 123.169 284.225 111.26C284.106 110.773 284.1 110.266 284.207 109.776C284.313 109.287 284.53 108.828 284.841 108.435C285.145 108.048 285.534 107.735 285.977 107.52C286.42 107.305 286.906 107.194 287.399 107.196H317.794C318.571 107.197 319.322 107.475 319.914 107.978C320.505 108.481 320.899 109.178 321.024 109.945C323.007 122.822 323.007 135.927 321.024 148.804C320.899 149.571 320.505 150.268 319.914 150.771C319.322 151.275 318.571 151.552 317.794 151.553H287.399C286.906 151.555 286.42 151.444 285.977 151.229C285.534 151.014 285.145 150.701 284.841 150.314Z" fill="#E6E6E6"/>
<path d="M237.82 43.1175C237.509 42.7246 237.293 42.266 237.186 41.7766C237.079 41.2872 237.086 40.7799 237.205 40.2934C240.048 28.3842 240.048 15.973 237.205 4.06381C237.086 3.57729 237.079 3.07003 237.186 2.58064C237.293 2.09125 237.509 1.63265 237.82 1.23974C238.124 0.852121 238.512 0.538982 238.956 0.324146C239.399 0.10931 239.885 -0.0015462 240.378 1.62904e-05H270.774C271.55 0.00158169 272.301 0.278696 272.893 0.782045C273.484 1.2854 273.878 1.98231 274.004 2.74873C275.986 15.6261 275.986 28.7311 274.004 41.6085C273.878 42.3749 273.484 43.0718 272.893 43.5752C272.301 44.0785 271.55 44.3556 270.774 44.3572H240.378C239.885 44.3588 239.399 44.2479 238.956 44.0331C238.512 43.8182 238.124 43.5051 237.82 43.1175Z" fill="#E6E6E6"/>
<path d="M312.613 78.9755C310.63 66.0982 310.63 52.9932 312.613 40.1158C312.739 39.3494 313.132 38.6524 313.724 38.149C314.315 37.6456 315.066 37.3685 315.843 37.3671H346.239C346.731 37.3655 347.218 37.4764 347.661 37.6912C348.104 37.906 348.492 38.2192 348.796 38.6068C349.107 38.9997 349.324 39.4583 349.431 39.9477C349.537 40.4371 349.531 40.9444 349.412 41.4309C346.569 53.34 346.569 65.7513 349.412 77.6605C349.531 78.147 349.537 78.6542 349.431 79.1436C349.324 79.633 349.107 80.0916 348.796 80.4845C348.492 80.8722 348.104 81.1853 347.661 81.4001C347.218 81.615 346.731 81.7258 346.239 81.7243H315.843C315.066 81.7228 314.315 81.4457 313.724 80.9423C313.132 80.439 312.739 79.742 312.613 78.9755Z" fill="#5DBCD2"/>
<path d="M185.364 77.6187C183.381 64.7413 183.381 51.6364 185.364 38.759C185.489 37.9926 185.883 37.2956 186.475 36.7923C187.066 36.289 187.817 36.0118 188.594 36.0103H218.989C219.482 36.0087 219.968 36.1196 220.412 36.3344C220.855 36.5492 221.243 36.8624 221.547 37.25C221.858 37.6429 222.075 38.1015 222.181 38.5909C222.288 39.0803 222.282 39.5875 222.163 40.0741C219.319 51.9832 219.319 64.3945 222.162 76.3037C222.282 76.7902 222.288 77.2974 222.181 77.7868C222.075 78.2762 221.858 78.7348 221.547 79.1277C221.243 79.5153 220.855 79.8285 220.412 80.0433C219.968 80.2582 219.482 80.369 218.989 80.3674H188.594C187.817 80.3659 187.066 80.0888 186.475 79.5854C185.883 79.0821 185.489 78.3852 185.364 77.6187Z" fill="#FF6584"/>
<path d="M192.882 167.323C192.566 166.923 192.345 166.457 192.237 165.96C192.128 165.462 192.135 164.947 192.256 164.452C195.146 152.347 195.146 139.732 192.256 127.627C192.135 127.133 192.128 126.617 192.237 126.119C192.345 125.622 192.566 125.156 192.882 124.756C193.191 124.362 193.585 124.044 194.036 123.826C194.486 123.608 194.981 123.495 195.481 123.497H226.376C227.166 123.498 227.929 123.78 228.53 124.291C229.131 124.803 229.532 125.511 229.659 126.29C231.675 139.379 231.675 152.7 229.659 165.789C229.532 166.568 229.131 167.276 228.53 167.788C227.929 168.299 227.166 168.581 226.376 168.582H195.481C194.981 168.584 194.486 168.471 194.036 168.253C193.585 168.035 193.191 167.717 192.882 167.323Z" fill="#5DBCD2"/>
<path d="M9.59151 326.372H599.092C599.333 326.372 599.564 326.276 599.734 326.106C599.904 325.936 600 325.705 600 325.464C600 325.224 599.904 324.993 599.734 324.823C599.564 324.652 599.333 324.557 599.092 324.557H9.59151C9.47209 324.556 9.35378 324.58 9.24335 324.625C9.13292 324.671 9.03255 324.737 8.94799 324.822C8.86342 324.906 8.79632 325.006 8.75054 325.116C8.70476 325.227 8.68119 325.345 8.68119 325.464C8.68119 325.584 8.70476 325.702 8.75054 325.812C8.79632 325.923 8.86342 326.023 8.94799 326.107C9.03255 326.191 9.13292 326.258 9.24335 326.304C9.35378 326.349 9.47209 326.372 9.59151 326.372Z" fill="#3F3D56"/>
<path d="M220.414 140.132H204.139C203.533 140.131 202.952 139.89 202.523 139.461C202.094 139.032 201.853 138.451 201.852 137.845V136.874C201.853 136.267 202.094 135.686 202.523 135.257C202.952 134.829 203.533 134.587 204.139 134.587H220.414C221.021 134.587 221.602 134.829 222.031 135.257C222.46 135.686 222.701 136.267 222.701 136.874V137.845C222.701 138.451 222.46 139.032 222.031 139.461C221.602 139.89 221.021 140.131 220.414 140.132Z" fill="white"/>
<path d="M220.414 149.697H204.139C203.533 149.696 202.952 149.455 202.523 149.026C202.094 148.598 201.853 148.016 201.852 147.41V146.439C201.853 145.832 202.094 145.251 202.523 144.822C202.952 144.394 203.533 144.153 204.139 144.152H220.414C221.021 144.153 221.602 144.394 222.031 144.822C222.46 145.251 222.701 145.832 222.701 146.439V147.41C222.701 148.016 222.46 148.598 222.031 149.026C221.602 149.455 221.021 149.696 220.414 149.697Z" fill="white"/>
<path d="M209.636 54.8218H193.685C193.079 54.8212 192.497 54.58 192.069 54.1513C191.64 53.7225 191.399 53.1412 191.398 52.5349V51.6415C191.399 51.0352 191.64 50.4539 192.069 50.0251C192.497 49.5964 193.079 49.3552 193.685 49.3546H209.636C210.242 49.3552 210.823 49.5964 211.252 50.0251C211.681 50.4539 211.922 51.0352 211.923 51.6415V52.5349C211.922 53.1412 211.681 53.7225 211.252 54.1513C210.823 54.58 210.242 54.8212 209.636 54.8218Z" fill="white"/>
<path d="M311.543 122.005H295.592C294.986 122.004 294.405 121.763 293.976 121.334C293.547 120.906 293.306 120.324 293.305 119.718V118.824C293.306 118.218 293.547 117.637 293.976 117.208C294.405 116.779 294.986 116.538 295.592 116.537H311.543C312.149 116.538 312.73 116.779 313.159 117.208C313.588 117.637 313.829 118.218 313.83 118.824V119.718C313.829 120.324 313.588 120.906 313.159 121.334C312.73 121.763 312.149 122.004 311.543 122.005Z" fill="white"/>
<path d="M311.543 133.298H295.592C294.986 133.297 294.405 133.056 293.976 132.627C293.547 132.198 293.306 131.617 293.305 131.011V130.117C293.306 129.511 293.547 128.929 293.976 128.501C294.405 128.072 294.986 127.831 295.592 127.83H311.543C312.149 127.831 312.73 128.072 313.159 128.501C313.588 128.929 313.829 129.511 313.83 130.117V131.011C313.829 131.617 313.588 132.198 313.159 132.627C312.73 133.056 312.149 133.297 311.543 133.298Z" fill="white"/>
<path d="M311.543 144.59H295.592C294.986 144.59 294.405 144.349 293.976 143.92C293.547 143.491 293.306 142.91 293.305 142.303V141.41C293.306 140.803 293.547 140.222 293.976 139.793C294.405 139.365 294.986 139.123 295.592 139.123H311.543C312.149 139.123 312.73 139.365 313.159 139.793C313.588 140.222 313.829 140.803 313.83 141.41V142.303C313.829 142.91 313.588 143.491 313.159 143.92C312.73 144.349 312.149 144.59 311.543 144.59Z" fill="white"/>
<path d="M209.636 64.2325H193.685C193.079 64.2318 192.497 63.9907 192.069 63.5619C191.64 63.1332 191.399 62.5519 191.398 61.9455V61.0518C191.399 60.4455 191.64 59.8641 192.069 59.4354C192.497 59.0067 193.079 58.7655 193.685 58.7648H209.636C210.242 58.7655 210.823 59.0067 211.252 59.4354C211.681 59.8641 211.922 60.4455 211.923 61.0518V61.9455C211.922 62.5519 211.681 63.1332 211.252 63.5619C210.823 63.9907 210.242 64.2318 209.636 64.2325Z" fill="white"/>
<path d="M264.658 16.6911H248.708C248.101 16.6905 247.52 16.4493 247.091 16.0205C246.662 15.5918 246.421 15.0105 246.421 14.4041V13.5104C246.421 12.9041 246.662 12.3228 247.091 11.894C247.52 11.4653 248.101 11.2241 248.708 11.2234H264.658C265.264 11.2241 265.846 11.4653 266.274 11.894C266.703 12.3228 266.944 12.9041 266.945 13.5104V14.4041C266.944 15.0105 266.703 15.5918 266.274 16.0205C265.846 16.4493 265.264 16.6905 264.658 16.6911Z" fill="white"/>
<path d="M337.44 57.12H321.489C320.883 57.1193 320.302 56.8782 319.873 56.4494C319.444 56.0207 319.203 55.4394 319.202 54.833V53.9393C319.203 53.333 319.444 52.7517 319.873 52.3229C320.302 51.8942 320.883 51.653 321.489 51.6523H337.44C338.046 51.653 338.628 51.8942 339.056 52.3229C339.485 52.7517 339.726 53.333 339.727 53.9393V54.833C339.726 55.4394 339.485 56.0207 339.056 56.4494C338.628 56.8782 338.046 57.1193 337.44 57.12Z" fill="white"/>
</g>
<defs>
<clipPath id="clip0">
<rect width="600" height="326.372" fill="white"/>
</clipPath>
</defs>
</svg>
