<svg width="132" height="105" viewBox="0 0 132 105" fill="none" xmlns="http://www.w3.org/2000/svg">
<path opacity="0.1" d="M63.3888 105C93.3894 105 117.71 103.313 117.71 101.232C117.71 99.1507 93.3894 97.4636 63.3888 97.4636C33.3882 97.4636 9.06786 99.1507 9.06786 101.232C9.06786 103.313 33.3882 105 63.3888 105Z" fill="#6C63FF"/>
<path opacity="0.1" d="M4.28943 11.9988C0.904535 15.9613 0.0482232 20.9844 0.00156112 25.8007C-0.0312284 29.1969 0.43287 32.8807 3.26791 35.3853C6.99961 38.6807 14.1641 39.3302 16.013 43.5411C17.6524 47.2829 13.8375 51.0474 10.1726 53.6882C6.50777 56.329 2.29935 59.5626 2.98415 63.4948C3.41798 66.0057 5.79775 67.9769 8.17121 69.6315C12.6836 72.7843 17.7558 75.5425 23.4738 76.8843C33.848 79.3158 45.0532 76.7985 54.774 72.9874C60.7581 70.6417 67.7057 67.7625 73.6482 70.1751C75.217 70.8119 76.5488 71.7742 77.9953 72.5712C82.2012 74.8753 87.3378 75.7241 92.337 76.4442C99.6642 77.5035 107.365 78.3876 114.425 76.477C121.484 74.5663 127.586 68.9782 126.505 63.0181C125.486 57.4035 118.999 53.7437 113.829 49.9086C112.006 48.5554 110.149 46.762 110.603 44.7934C110.964 43.2321 112.661 42.145 114.175 41.1361C122.14 35.7965 127.994 28.4251 130.686 20.3425C131.957 16.5288 132.416 12.135 129.58 8.9191C127.292 6.32494 123.371 5.07893 119.642 4.05363C112.722 2.15057 105.629 0.542623 98.3513 0.108792C91.0733 -0.32504 83.5544 0.502266 77.0936 3.24776C73.995 4.56565 71.1864 6.30097 68.0576 7.56968C59.1741 11.1715 48.7067 10.6872 38.7992 10.1184C35.2592 9.91539 31.559 9.55471 28.4856 8.00855C25.8372 6.67427 24.3239 5.71833 21.0449 5.56952C14.6181 5.27819 7.96943 7.68318 4.28943 11.9988Z" fill="#6C63FF"/>
<path d="M52.2631 39.1434L52.1243 39.4297L51.2252 41.2773L41.7931 60.6445L25.788 99.8608L23.5003 99.8785L39.5142 60.6445L50.4269 38.2341L51.2252 38.6289L52.1243 39.074L52.2631 39.1434Z" fill="#535461"/>
<path d="M80.3435 99.8785L78.4606 99.8608L62.4543 60.6445L53.2707 41.7855L52.1243 39.4297L51.9844 39.1434L52.1243 39.074L53.2707 38.5065L53.8218 38.2341L64.5705 60.6445L80.3435 99.8785Z" fill="#535461"/>
<path d="M53.272 32.9666H51.2252V99.8787H53.272V32.9666Z" fill="#535461"/>
<path d="M52.0146 21.9429C51.3241 21.9435 50.6621 22.2181 50.1739 22.7064C49.6856 23.1946 49.411 23.8566 49.4104 24.5471V25.4778C49.4027 25.8247 49.4645 26.1697 49.592 26.4924C49.7194 26.8151 49.9101 27.1091 50.1527 27.3572C50.3954 27.6052 50.6851 27.8023 51.0049 27.9368C51.3248 28.0714 51.6683 28.1407 52.0153 28.1407C52.3622 28.1407 52.7057 28.0714 53.0256 27.9368C53.3454 27.8023 53.6351 27.6052 53.8778 27.3572C54.1204 27.1091 54.3111 26.8151 54.4386 26.4924C54.566 26.1697 54.6278 25.8247 54.6201 25.4778V24.5471C54.6191 23.8565 54.3443 23.1945 53.8558 22.7063C53.3674 22.2181 52.7052 21.9435 52.0146 21.9429ZM53.9681 25.4741C53.9681 25.9925 53.7622 26.4897 53.3956 26.8563C53.029 27.2229 52.5318 27.4288 52.0134 27.4288C51.4949 27.4288 50.9977 27.2229 50.6311 26.8563C50.2645 26.4897 50.0586 25.9925 50.0586 25.4741V24.5433C50.0586 24.0249 50.2645 23.5277 50.6311 23.1611C50.9977 22.7945 51.4949 22.5886 52.0134 22.5886C52.5318 22.5886 53.029 22.7945 53.3956 23.1611C53.7622 23.5277 53.9681 24.0249 53.9681 24.5433V25.4741Z" fill="#535461"/>
<path opacity="0.1" d="M64.5705 60.6447H62.4543L53.2707 41.7857V60.6447H51.2252V41.2774L41.7931 60.6447H39.5142L50.4269 38.2343L51.2252 38.6291V32.9666H53.2707V38.5067L53.8218 38.2343L64.5705 60.6447Z" fill="black"/>
<path opacity="0.1" d="M54.6201 24.6404V25.4778C54.6278 25.8247 54.566 26.1696 54.4386 26.4923C54.3111 26.815 54.1204 27.1091 53.8778 27.3571C53.6351 27.6051 53.3454 27.8022 53.0256 27.9368C52.7057 28.0713 52.3622 28.1406 52.0153 28.1406C51.6683 28.1406 51.3248 28.0713 51.0049 27.9368C50.6851 27.8022 50.3954 27.6051 50.1527 27.3571C49.9101 27.1091 49.7194 26.815 49.592 26.4923C49.4645 26.1696 49.4027 25.8247 49.4104 25.4778V24.6404H50.0611V25.4778C50.0611 25.9962 50.2671 26.4934 50.6337 26.86C51.0003 27.2266 51.4975 27.4325 52.0159 27.4325C52.5343 27.4325 53.0315 27.2266 53.3981 26.86C53.7647 26.4934 53.9706 25.9962 53.9706 25.4778V24.6404H54.6201Z" fill="black"/>
<path d="M91.3684 24.8271H12.6621V60.366H91.3684V24.8271Z" fill="#535461"/>
<path d="M89.7869 25.9431H14.0582V58.319H89.7869V25.9431Z" fill="white"/>
<g opacity="0.2">
<path opacity="0.2" d="M25.1171 29.4629H21.5367V31.0935H25.1171V29.4629Z" fill="#6C63FF"/>
</g>
<g opacity="0.2">
<path opacity="0.2" d="M25.1171 32.6169H21.5367V34.2476H25.1171V32.6169Z" fill="#6C63FF"/>
</g>
<g opacity="0.2">
<path opacity="0.2" d="M25.1171 35.77H21.5367V37.4007H25.1171V35.77Z" fill="#6C63FF"/>
</g>
<g opacity="0.2">
<path opacity="0.2" d="M25.1171 38.9229H21.5367V40.5535H25.1171V38.9229Z" fill="#6C63FF"/>
</g>
<g opacity="0.2">
<path opacity="0.2" d="M25.1171 42.0769H21.5367V43.7076H25.1171V42.0769Z" fill="#6C63FF"/>
</g>
<g opacity="0.2">
<path opacity="0.2" d="M25.1171 45.2297H21.5367V46.8604H25.1171V45.2297Z" fill="#6C63FF"/>
</g>
<g opacity="0.2">
<path opacity="0.2" d="M25.1171 48.3826H21.5367V50.0132H25.1171V48.3826Z" fill="#6C63FF"/>
</g>
<g opacity="0.2">
<path opacity="0.2" d="M25.1171 51.5354H21.5367V53.1661H25.1171V51.5354Z" fill="#6C63FF"/>
</g>
<g opacity="0.2">
<path opacity="0.2" d="M31.8579 53.1672H28.2775V54.7979H31.8579V53.1672Z" fill="#6C63FF"/>
</g>
<g opacity="0.2">
<path opacity="0.2" d="M38.1648 53.1672H34.5845V54.7979H38.1648V53.1672Z" fill="#6C63FF"/>
</g>
<g opacity="0.2">
<path opacity="0.2" d="M44.4705 53.1672H40.8901V54.7979H44.4705V53.1672Z" fill="#6C63FF"/>
</g>
<g opacity="0.2">
<path opacity="0.2" d="M50.7775 53.1672H47.1971V54.7979H50.7775V53.1672Z" fill="#6C63FF"/>
</g>
<g opacity="0.2">
<path opacity="0.2" d="M57.0831 53.1672H53.5028V54.7979H57.0831V53.1672Z" fill="#6C63FF"/>
</g>
<g opacity="0.2">
<path opacity="0.2" d="M63.3901 53.1672H59.8097V54.7979H63.3901V53.1672Z" fill="#6C63FF"/>
</g>
<g opacity="0.2">
<path opacity="0.2" d="M69.6958 53.1672H66.1154V54.7979H69.6958V53.1672Z" fill="#6C63FF"/>
</g>
<g opacity="0.2">
<path opacity="0.2" d="M76.0027 53.1672H72.4223V54.7979H76.0027V53.1672Z" fill="#6C63FF"/>
</g>
<g opacity="0.2">
<path opacity="0.2" d="M82.3084 53.1672H78.728V54.7979H82.3084V53.1672Z" fill="#6C63FF"/>
</g>
<path d="M31.8579 41.3152H28.2775V51.5354H31.8579V41.3152Z" fill="#5DBCD2"/>
<path d="M38.1648 36.5857H34.5845V51.5365H38.1648V36.5857Z" fill="#5DBCD2"/>
<path d="M44.4705 32.6169H40.8901V51.5365H44.4705V32.6169Z" fill="#5DBCD2"/>
<path d="M50.7775 34.6741H47.1971V51.5355H50.7775V34.6741Z" fill="#5DBCD2"/>
<path d="M57.0831 31.095H53.5028V51.5367H57.0831V31.095Z" fill="#5DBCD2"/>
<g opacity="0.2">
<path opacity="0.2" d="M63.3901 38.9229H59.8097V51.5355H63.3901V38.9229Z" fill="#6C63FF"/>
</g>
<g opacity="0.2">
<path opacity="0.2" d="M69.6958 38.9229H66.1154V51.5355H69.6958V38.9229Z" fill="#6C63FF"/>
</g>
<g opacity="0.2">
<path opacity="0.2" d="M76.0027 38.9229H72.4223V51.5355H76.0027V38.9229Z" fill="#6C63FF"/>
</g>
<g opacity="0.2">
<path opacity="0.2" d="M82.3084 38.9229H78.728V51.5355H82.3084V38.9229Z" fill="#6C63FF"/>
</g>
<path d="M78.3169 38.895L47.6587 40.7817V41.3795L78.9702 40.1372L78.3169 38.895Z" fill="#535461"/>
<g opacity="0.1">
<path opacity="0.1" d="M95.5377 52.7459C95.5134 52.7339 95.4898 52.7204 95.4671 52.7056C95.4671 52.7056 95.4671 52.7131 95.4595 52.7245L95.5377 52.7459Z" fill="black"/>
<path opacity="0.1" d="M111.2 80.5138C111.2 80.5138 109.939 75.7316 110.342 74.5562C110.342 74.5562 109.618 69.6 110.048 68.1244C110.478 66.6489 109.752 55.7653 109.752 55.7653L109.514 53.7235L109.38 52.5721L109.324 52.0903L109.047 52.1748L108.876 52.2253L108.897 52.4119L109.031 53.5621L109.269 55.6039C109.269 55.6039 109.993 66.4913 109.565 67.963C109.138 69.4347 109.859 74.3948 109.859 74.3948C109.457 75.5714 110.717 80.3524 110.717 80.3524C110.717 80.3524 111.6 86.7363 111.361 88.5322C111.123 90.328 110.797 95.3423 110.797 95.3423C109.975 96.5769 108.423 96.4231 107.645 96.2503L107.659 96.2806C107.659 96.2806 110.153 97.1936 111.279 95.5037C111.279 95.5037 111.601 90.4882 111.843 88.6936C112.085 86.899 111.2 80.5138 111.2 80.5138Z" fill="black"/>
<path opacity="0.1" d="M104.845 88.5863C105.274 87.3794 104.443 83.49 104.443 83.49C104.443 83.49 102.968 79.3283 103.209 76.2499C103.31 74.9648 103.304 73.2017 103.261 71.5837C102.919 69.4965 102.591 67.1697 102.591 67.1697C102.591 67.1697 102.97 73.015 102.727 76.0985C102.485 79.182 103.96 83.34 103.96 83.34C103.96 83.34 104.792 87.2281 104.362 88.435C103.932 89.6419 105.433 94.6234 105.433 94.6234C105.325 95.7836 102.57 95.6323 101.476 95.5314L101.518 95.6424C101.518 95.6424 105.782 96.2326 105.916 94.7848C105.918 94.781 104.416 89.7932 104.845 88.5863Z" fill="black"/>
</g>
</svg>
