<svg width="46" height="44" viewBox="0 0 46 44" fill="none" xmlns="http://www.w3.org/2000/svg">
<path d="M45.1285 16.3969C45.4789 16.1305 46 16.3797 46 16.8008V34.375C46 36.6523 44.0684 38.5 41.6875 38.5H4.3125C1.93164 38.5 0 36.6523 0 34.375V16.8094C0 16.3797 0.512109 16.1391 0.871484 16.4055C2.88398 17.9008 5.55234 19.8 14.7164 26.168C16.6121 27.4914 19.8105 30.2758 23 30.2586C26.2074 30.2844 29.4687 27.4398 31.2926 26.168C40.4566 19.8 43.116 17.8922 45.1285 16.3969ZM23 27.5C25.0844 27.5344 28.0852 24.9906 29.5945 23.9422C41.5168 15.6664 42.4242 14.9445 45.1734 12.882C45.6945 12.4953 46 11.8938 46 11.2578V9.625C46 7.34766 44.0684 5.5 41.6875 5.5H4.3125C1.93164 5.5 0 7.34766 0 9.625V11.2578C0 11.8938 0.305469 12.4867 0.826562 12.882C3.57578 14.9359 4.4832 15.6664 16.4055 23.9422C17.9148 24.9906 20.9156 27.5344 23 27.5Z" fill="black"/>
</svg>
