<svg width="46" height="44" viewBox="0 0 46 44" fill="none" xmlns="http://www.w3.org/2000/svg">
<g clip-path="url(#clip0)">
<path d="M45.3747 38.0411L36.4164 29.474C36.0121 29.0873 35.464 28.8724 34.889 28.8724H33.4246C35.9043 25.8388 37.3777 22.0241 37.3777 17.8733C37.3777 7.99992 29.0123 0 18.6893 0C8.36625 0 0 7.99992 0 17.8733C0 27.7466 8.36535 35.7466 18.6893 35.7466C23.0287 35.7466 27.0187 34.3372 30.1902 31.9653V33.3661C30.1902 33.9161 30.4148 34.4403 30.8191 34.827L39.7774 43.3941C40.622 44.202 41.9876 44.202 42.8231 43.3941L45.3657 40.9621C46.2102 40.1543 46.2102 38.8489 45.3747 38.0411ZM18.6893 30.2466C11.5431 30.2466 5.7518 24.7173 5.7518 17.8733C5.7518 11.0387 11.5332 5.5 18.6893 5.5C25.8355 5.5 31.6268 11.0292 31.6268 17.8733C31.6268 24.7079 25.8454 30.2466 18.6893 30.2466ZM18.6911 9.625C15.0273 9.625 12.057 12.4652 12.057 15.9698C12.057 18.8023 16.3929 23.9662 18.0541 25.8405C18.132 25.9297 18.2294 26.0014 18.3395 26.0507C18.4496 26.0999 18.5696 26.1254 18.6911 26.1254C18.8126 26.1254 18.9326 26.0999 19.0427 26.0507C19.1527 26.0014 19.2502 25.9297 19.3281 25.8405C20.9893 23.9662 25.3252 18.8031 25.3252 15.9698C25.3252 12.4652 22.3549 9.625 18.6911 9.625ZM18.6911 17.875C17.4998 17.875 16.5348 16.9512 16.5348 15.8125C16.5348 14.673 17.5007 13.75 18.6911 13.75C19.8815 13.75 20.8473 14.673 20.8473 15.8125C20.8473 16.9512 19.8815 17.875 18.6911 17.875Z" fill="black"/>
</g>
<defs>
<clipPath id="clip0">
<rect width="46" height="44" fill="white"/>
</clipPath>
</defs>
</svg>
