<svg width="34" height="44" viewBox="0 0 34 44" fill="none" xmlns="http://www.w3.org/2000/svg">
<path d="M28.9 0H5.1C2.28438 0 0 1.84766 0 4.125V39.875C0 42.1523 2.28438 44 5.1 44H28.9C31.7156 44 34 42.1523 34 39.875V4.125C34 1.84766 31.7156 0 28.9 0ZM17 41.25C15.1194 41.25 13.6 40.0211 13.6 38.5C13.6 36.9789 15.1194 35.75 17 35.75C18.8806 35.75 20.4 36.9789 20.4 38.5C20.4 40.0211 18.8806 41.25 17 41.25ZM28.9 31.9688C28.9 32.5359 28.3263 33 27.625 33H6.375C5.67375 33 5.1 32.5359 5.1 31.9688V5.15625C5.1 4.58906 5.67375 4.125 6.375 4.125H27.625C28.3263 4.125 28.9 4.58906 28.9 5.15625V31.9688Z" fill="black"/>
</svg>
