<svg width="204" height="206" viewBox="0 0 204 206" fill="none" xmlns="http://www.w3.org/2000/svg">
<g clip-path="url(#clip0)">
<path d="M180.506 144.858C179.387 144.393 178.1 144.649 177.243 145.508L144.521 178.316C143.665 179.175 143.409 180.466 143.872 181.588C144.335 182.71 145.428 183.441 146.639 183.441H179.361C181.015 183.441 182.355 182.097 182.355 180.439V147.631C182.355 146.417 181.625 145.322 180.506 144.858ZM153.866 177.437L176.366 154.879V177.437H153.866Z" fill="url(#paint0_linear)"/>
<path d="M202.152 96.7377C201.033 96.2727 199.745 96.5296 198.889 97.3881L189.921 106.379V45.2457C189.921 43.5874 188.58 42.2436 186.927 42.2436H163.921L172.272 33.8704C172.273 33.8692 172.274 33.8676 172.276 33.8664L180.322 25.7984C182.046 24.0698 182.996 21.7704 182.996 19.3255C182.996 16.8807 182.046 14.582 180.322 12.8526L171.017 3.52307C169.293 1.7945 167 0.842529 164.561 0.842529C162.123 0.842529 159.83 1.7945 158.105 3.52307L150.055 11.5951L140.326 21.3489L119.487 42.2432H26.544V12.5434C26.544 10.8852 25.2032 9.54132 23.5497 9.54132C10.5646 9.54211 0 20.1337 0 33.1537V160.664C0 160.885 0.0255001 161.101 0.070922 161.309C0.484501 166.833 2.86836 171.966 6.85234 175.863C11.1109 180.027 16.7324 182.321 22.6819 182.321H114.178L96.9464 199.598C96.0902 200.457 95.834 201.748 96.2974 202.87C96.7607 203.991 97.8529 204.723 99.0637 204.723H201.006C202.66 204.723 204 203.379 204 201.721V99.5113C204 98.2973 203.27 97.2023 202.152 96.7377ZM162.341 7.7692C163.565 6.54118 165.559 6.54118 166.783 7.7692L176.089 17.0992C177.313 18.3268 177.313 20.3254 176.089 21.5534L170.155 27.5026L156.407 13.7183L162.341 7.7692ZM152.172 17.9641L165.92 31.7479L160.426 37.2564L146.679 23.4726L152.172 17.9641ZM198.013 133.245H192.488C190.834 133.245 189.494 134.589 189.494 136.247C189.494 137.905 190.834 139.249 192.488 139.249H198.013V148.296H192.488C190.834 148.296 189.494 149.64 189.494 151.298C189.494 152.956 190.834 154.3 192.488 154.3H198.013V163.346H192.488C190.834 163.346 189.494 164.69 189.494 166.348C189.494 168.007 190.834 169.35 192.488 169.35H198.013V178.397H192.488C190.834 178.397 189.494 179.742 189.494 181.399C189.494 183.058 190.834 184.401 192.488 184.401H198.013V198.72H106.292L136.537 168.396C137.706 167.223 137.706 165.323 136.537 164.15C136.403 164.016 136.258 163.899 136.107 163.795C134.941 162.995 133.337 163.113 132.302 164.15L120.167 176.317H22.6823C13.6011 176.317 6.29054 169.209 6.00287 160.12C6.02 159.55 6.06423 158.984 6.13515 158.425C6.13555 158.421 6.13595 158.418 6.13635 158.415C6.16982 158.149 6.21006 157.885 6.25588 157.622C6.26106 157.592 6.26664 157.562 6.27182 157.532C6.31365 157.298 6.36067 157.064 6.41207 156.832C6.42641 156.767 6.44155 156.702 6.45669 156.638C6.50211 156.442 6.55112 156.246 6.60372 156.052C6.6324 155.946 6.66229 155.842 6.69297 155.737C6.73679 155.584 6.78222 155.432 6.83043 155.281C6.87864 155.131 6.93004 154.982 6.98223 154.833C7.01849 154.729 7.05435 154.624 7.0934 154.521C7.16631 154.324 7.24361 154.13 7.3233 153.937C7.34601 153.881 7.36832 153.825 7.39183 153.769C7.49423 153.53 7.60061 153.293 7.71297 153.059C7.71775 153.049 7.72213 153.039 7.72691 153.029C10.0689 148.169 14.5733 144.546 19.9789 143.422C19.994 143.419 20.0092 143.416 20.0243 143.412C20.2721 143.362 20.5224 143.318 20.7742 143.278C20.816 143.271 20.8578 143.263 20.9005 143.256C21.128 143.221 21.3579 143.194 21.5878 143.168C21.6523 143.161 21.7165 143.151 21.7814 143.145C22.0034 143.122 22.2273 143.108 22.4512 143.094C22.5221 143.089 22.593 143.082 22.664 143.078C22.9572 143.063 23.2529 143.056 23.5497 143.056C25.2032 143.056 26.544 141.712 26.544 140.053V118.286C26.544 116.628 25.2032 115.284 23.5497 115.284C21.8962 115.284 20.5554 116.628 20.5554 118.286V137.24C15.4993 137.881 10.806 140.143 7.10535 143.766C6.71608 144.147 6.34712 144.543 5.98773 144.946V33.1537C5.98773 24.4685 12.2934 17.231 20.555 15.8016V45.2457V106.278V106.278C20.555 107.936 21.8958 109.28 23.5493 109.28C25.2028 109.28 26.5436 107.936 26.5436 106.278V106.278V48.2478H113.499L96.946 64.844C95.7766 66.0169 95.7766 67.9173 96.946 69.0898C98.1154 70.2618 100.011 70.2618 101.18 69.0898L122.845 47.3686C122.845 47.3678 122.846 47.367 122.847 47.3666L142.444 27.7179L156.191 41.5021L154.578 43.1192C154.577 43.1204 154.575 43.1216 154.574 43.1228L94.1996 103.657L80.4519 89.873L92.3524 77.9411C93.5218 76.7682 93.5218 74.8679 92.3524 73.6954C91.183 72.5233 89.2872 72.5233 88.1182 73.6954L74.1 87.7501C74.0251 87.8252 73.9549 87.9047 73.8892 87.9862C73.8673 88.0134 73.8477 88.0425 73.827 88.0709C73.7848 88.1272 73.7434 88.1839 73.7047 88.2431C73.6828 88.2774 73.6629 88.3126 73.6422 88.3481C73.6091 88.4041 73.5772 88.4608 73.5481 88.5187C73.529 88.5563 73.5119 88.5942 73.4943 88.6334C73.4676 88.6921 73.4429 88.752 73.4202 88.8119C73.4123 88.8331 73.4019 88.8531 73.3943 88.8742L67.5608 105.443L63.5836 116.74C63.531 116.89 63.4931 117.043 63.4648 117.197H53.5071C51.8536 117.197 50.5128 118.54 50.5128 120.199C50.5128 121.857 51.8536 123.201 53.5071 123.201H136.428C138.082 123.201 139.422 121.857 139.422 120.199C139.422 118.54 138.082 117.197 136.428 117.197H76.9356L95.1961 110.734C95.2112 110.728 95.2256 110.72 95.2407 110.715C95.3116 110.689 95.3813 110.659 95.4503 110.627C95.4778 110.615 95.5053 110.603 95.532 110.589C95.6037 110.553 95.6742 110.514 95.7435 110.472C95.7658 110.458 95.789 110.446 95.8109 110.432C95.883 110.385 95.9531 110.335 96.022 110.281C96.0392 110.268 96.0571 110.256 96.0738 110.243C96.1571 110.176 96.2388 110.103 96.3161 110.026L157.932 48.2482H183.932V112.384L141.102 155.327C139.932 156.5 139.932 158.401 141.102 159.573C141.175 159.646 141.251 159.715 141.329 159.779C141.878 160.228 142.549 160.452 143.219 160.452C143.889 160.452 144.56 160.228 145.109 159.779C145.187 159.715 145.263 159.646 145.336 159.573C145.338 159.572 145.336 159.573 145.338 159.572L198.013 106.758V133.245ZM88.723 106.657L80.1463 109.692L74.4319 103.963L77.4596 95.3635L88.723 106.657Z" fill="url(#paint1_linear)"/>
</g>
<defs>
<linearGradient id="paint0_linear" x1="163" y1="144.629" x2="163" y2="183.441" gradientUnits="userSpaceOnUse">
<stop stop-color="#5DBCD2"/>
<stop offset="1" stop-color="#2A99BF"/>
</linearGradient>
<linearGradient id="paint1_linear" x1="102" y1="0.842529" x2="102" y2="204.723" gradientUnits="userSpaceOnUse">
<stop stop-color="#5DBCD2"/>
<stop offset="1" stop-color="#2A99BF"/>
</linearGradient>
<clipPath id="clip0">
<rect width="204" height="204.536" fill="white" transform="translate(0 0.514893)"/>
</clipPath>
</defs>
</svg>
