<svg width="208" height="252" viewBox="0 0 208 252" fill="none" xmlns="http://www.w3.org/2000/svg">
<g clip-path="url(#clip0)">
<path d="M37.1808 27.6919H37.1317C29.6083 27.8253 23.4894 35.3528 23.4894 44.472V68.4514H3.0615C1.37069 68.4514 0 70.112 0 72.1605C0 74.209 1.37069 75.8696 3.0615 75.8696H23.4898V95.3711H3.0615C1.37069 95.3711 0 97.0317 0 99.0802C0 101.129 1.37069 102.789 3.0615 102.789H23.4898V122.29H3.0615C1.37069 122.291 0 123.951 0 126C0 128.048 1.37069 129.709 3.0615 129.709H23.4898V149.21H3.0615C1.37069 149.21 0 150.871 0 152.919C0 154.968 1.37069 156.628 3.0615 156.628H23.4898V176.13H3.0615C1.37069 176.13 0 177.79 0 179.839C0 181.887 1.37069 183.548 3.0615 183.548H23.4898V196.232C23.4898 198.279 24.8613 199.941 26.5513 199.941C28.2413 199.941 29.6128 198.279 29.6128 196.232V44.4725C29.6128 39.3833 33.0253 35.1849 37.2259 35.1057C38.9159 35.0762 40.2671 33.3944 40.2387 31.342C40.2139 29.3141 38.8505 27.6919 37.1808 27.6919Z" fill="url(#paint0_linear)"/>
<path d="M166.631 215.356H37.3442C34.1888 215.356 31.3804 213.071 30.1844 209.535C29.5434 207.636 27.7595 206.731 26.1922 207.507C24.6245 208.284 23.8778 210.45 24.5185 212.344C26.6574 218.679 31.6908 222.774 37.3442 222.774H56.5001V248.29C56.5001 250.338 57.8708 251.999 59.5616 251.999C61.2524 251.999 62.6231 250.338 62.6231 248.29V222.774H78.7195V248.29C78.7195 250.338 80.0902 251.999 81.781 251.999C83.4718 251.999 84.8425 250.338 84.8425 248.29V222.774H100.939V248.29C100.939 250.338 102.309 251.999 104 251.999C105.691 251.999 107.062 250.338 107.062 248.29V222.774H123.158V248.29C123.158 250.338 124.528 251.999 126.219 251.999C127.91 251.999 129.281 250.338 129.281 248.29V222.774H145.377V248.29C145.377 250.338 146.748 251.999 148.439 251.999C150.129 251.999 151.5 250.338 151.5 248.29V222.774H166.631C168.321 222.774 169.692 221.112 169.692 219.065C169.692 217.013 168.321 215.356 166.631 215.356Z" fill="url(#paint1_linear)"/>
<path d="M145.523 63.068H62.4779C57.0813 63.068 52.6934 68.3846 52.6934 74.9223V175.54C52.6934 182.078 57.0817 187.394 62.4779 187.394H145.523C150.92 187.394 155.308 182.077 155.308 175.54V74.9223C155.308 68.3841 150.919 63.068 145.523 63.068ZM58.816 74.9223C58.816 72.4742 60.4568 70.4862 62.4775 70.4862H125.806V109.225C120.271 110.674 115.899 115.971 114.703 122.677H92.1419V103.656C97.926 102.286 102.302 96.0992 102.302 88.6957C102.302 80.2931 96.6565 73.4536 89.7174 73.4536C83.6065 73.4536 78.5004 78.755 77.369 85.7578H58.816V74.9223ZM128.868 116.247C133.481 116.247 137.232 120.797 137.232 126.386C137.232 131.975 133.481 136.52 128.868 136.52C124.222 136.52 120.5 131.93 120.5 126.386C120.5 120.832 124.233 116.247 128.868 116.247ZM89.7174 96.5244C86.1769 96.5244 83.2556 93.0358 83.2556 88.6957C83.2556 84.3832 86.1537 80.8719 89.7174 80.8719C93.281 80.8719 96.1792 84.3832 96.1792 88.6957C96.1792 93.0506 93.2525 96.5244 89.7174 96.5244ZM76.4956 157.147C74.7198 155.94 73.5198 153.631 73.5198 150.995C73.5198 147.103 76.1364 143.937 79.3491 143.937C82.5617 143.937 85.1743 147.103 85.1743 150.995C85.1739 156.388 80.359 159.793 76.4956 157.147ZM101.256 179.976H80.7165V165.377C86.664 164.556 91.2973 158.418 91.2973 150.995C91.2973 143.013 85.9376 136.519 79.3491 136.519C72.7564 136.519 67.3968 143.013 67.3968 150.995C67.3968 156.93 70.3604 162.048 74.5935 164.278V179.976H62.4779C60.4572 179.976 58.8164 177.983 58.8164 175.54V93.1761H77.6875C77.7135 93.2273 79.3588 100.791 86.0189 103.27V126.386C86.0189 128.433 87.3904 130.095 89.0804 130.095H101.256V179.976ZM149.185 175.54C149.185 177.983 147.544 179.976 145.523 179.976H107.379V163.935H149.185V175.54ZM149.185 156.517H107.379V130.095H114.703C116.112 137.998 121.929 143.938 128.868 143.938C136.857 143.938 143.355 136.064 143.355 126.386C143.355 117.978 138.453 110.931 131.93 109.225C131.93 109.225 131.929 109.225 131.929 109.225V70.4862H145.523C147.543 70.4862 149.184 72.4742 149.184 74.9223V156.517H149.185Z" fill="url(#paint2_linear)"/>
<path d="M204.939 102.79C206.629 102.79 208 101.129 208 99.0808C208 97.0323 206.629 95.3717 204.939 95.3717H184.51V75.8702H204.939C206.629 75.8702 208 74.2096 208 72.1611C208 70.1126 206.629 68.452 204.939 68.452H184.51V44.4726C184.51 35.2195 178.297 27.6875 170.656 27.6875H151.5V3.70913C151.5 1.66064 150.129 0 148.438 0C146.748 0 145.377 1.66064 145.377 3.70913V27.687H129.281V3.70913C129.281 1.66064 127.91 0 126.219 0C124.528 0 123.158 1.66064 123.158 3.70913V27.687H107.062V3.70913C107.062 1.66064 105.691 0 104 0C102.309 0 100.939 1.66064 100.939 3.70913V27.687H84.8425V3.70913C84.8425 1.66064 83.4718 0 81.781 0C80.0902 0 78.7195 1.66064 78.7195 3.70913V27.687H62.623V3.70913C62.623 1.66064 61.2524 0 59.5615 0C57.8707 0 56.5 1.66064 56.5 3.70913V27.687H49.4272C47.7332 27.687 46.3657 29.3487 46.3657 31.3962C46.3657 33.4436 47.7332 35.1053 49.4272 35.1053C65.4648 35.1053 157.821 35.1053 170.656 35.1053C174.922 35.1053 178.387 39.3091 178.387 44.4721V205.989C178.387 208.576 177.538 210.985 175.991 212.77C174.767 214.184 174.718 216.533 175.885 218.012C176.489 218.778 177.294 219.164 178.102 219.164C178.861 219.164 179.62 218.823 180.216 218.14C182.984 214.941 184.511 210.623 184.511 205.989V183.548H204.939C206.63 183.548 208 181.887 208 179.839C208 177.79 206.63 176.13 204.939 176.13H184.511V156.628H204.939C206.63 156.628 208 154.968 208 152.919C208 150.871 206.63 149.21 204.939 149.21H184.511V129.709H204.939C206.63 129.709 208 128.048 208 126C208 123.952 206.63 122.291 204.939 122.291H184.511V102.79H204.939Z" fill="url(#paint3_linear)"/>
</g>
<defs>
<linearGradient id="paint0_linear" x1="20.1195" y1="27.6919" x2="20.1195" y2="199.941" gradientUnits="userSpaceOnUse">
<stop stop-color="#5DBCD2"/>
<stop offset="1" stop-color="#2A99BF"/>
</linearGradient>
<linearGradient id="paint1_linear" x1="96.9907" y1="207.229" x2="96.9907" y2="251.999" gradientUnits="userSpaceOnUse">
<stop stop-color="#5DBCD2"/>
<stop offset="1" stop-color="#2A99BF"/>
</linearGradient>
<linearGradient id="paint2_linear" x1="104.001" y1="63.068" x2="104.001" y2="187.394" gradientUnits="userSpaceOnUse">
<stop stop-color="#5DBCD2"/>
<stop offset="1" stop-color="#2A99BF"/>
</linearGradient>
<linearGradient id="paint3_linear" x1="127.183" y1="0" x2="127.183" y2="219.164" gradientUnits="userSpaceOnUse">
<stop stop-color="#5DBCD2"/>
<stop offset="1" stop-color="#2A99BF"/>
</linearGradient>
<clipPath id="clip0">
<rect width="208" height="252" fill="white"/>
</clipPath>
</defs>
</svg>
