<svg width="1264" height="611" viewBox="0 0 1264 611" fill="none" xmlns="http://www.w3.org/2000/svg">
<path d="M120 126.844H20V147.156H120V126.844Z" fill="#455255"/>
<path d="M406 126.844H306V147.156H406V126.844Z" fill="#455255"/>
<path d="M406 470.844H306V491.156H406V470.844Z" fill="#455255"/>
<path d="M506 126.844H406V147.156H506V126.844Z" fill="#455255"/>
<path d="M506 470.844H406V491.156H506V470.844Z" fill="#455255"/>
<g clip-path="url(#clip0)">
<path d="M801 126.844H701V147.156H801V126.844Z" fill="#455255"/>
</g>
<path d="M901 126.844H801V147.156H901V126.844Z" fill="#455255"/>
<path d="M901 470.844H801V491.156H901V470.844Z" fill="#455255"/>
<path d="M801 470.844H701V491.156H801V470.844Z" fill="#455255"/>
<g clip-path="url(#clip1)">
<path d="M1145.68 120C1249.52 223.842 1250.7 391.617 1148.32 494L1132.41 478.086C1226.14 384.355 1225.05 230.757 1129.99 135.691L1145.68 120Z" fill="#455255"/>
</g>
<g clip-path="url(#clip2)">
<path d="M192.188 483.187H26.7353L54.1431 455.912C57.2013 452.869 57.213 447.922 54.1693 444.864C51.1255 441.805 46.1787 441.794 43.1205 444.837L2.29859 485.462C2.29585 485.465 2.2939 485.468 2.29155 485.47C-0.758836 488.514 -0.768602 493.476 2.29077 496.53C2.29351 496.532 2.29546 496.535 2.2978 496.537L43.1197 537.162C46.1775 540.205 51.1244 540.195 54.1685 537.136C57.2123 534.078 57.2005 529.131 54.1423 526.087L26.7353 498.812H192.188C196.502 498.812 200 495.315 200 491C200 486.685 196.502 483.187 192.188 483.187Z" fill="#455255"/>
</g>
<rect x="71" y="13" width="285" height="248.81" rx="20" fill="white"/>
<circle cx="78" cy="20" r="20" fill="#F7F4D7"/>
<path d="M81.328 25.704C81.52 25.704 81.672 25.768 81.784 25.896C81.912 26.008 81.976 26.16 81.976 26.352C81.976 26.544 81.912 26.704 81.784 26.832C81.672 26.944 81.512 27 81.304 27H73.408C73.216 27 73.056 26.944 72.928 26.832C72.816 26.704 72.76 26.552 72.76 26.376C72.76 26.184 72.816 26.024 72.928 25.896C73.056 25.768 73.224 25.704 73.432 25.704H76.672L77.776 11.976L75.064 13.632C74.952 13.696 74.832 13.728 74.704 13.728C74.512 13.728 74.352 13.664 74.224 13.536C74.096 13.392 74.032 13.224 74.032 13.032C74.032 12.792 74.144 12.608 74.368 12.48L78.184 10.08C78.36 9.968 78.544 9.912 78.736 9.912C78.928 9.912 79.08 9.976 79.192 10.104C79.304 10.216 79.352 10.36 79.336 10.536L78.136 25.704H81.328Z" fill="black"/>
<path d="M231.27 99.0864H202.422C201.613 99.0864 200.957 99.7425 200.957 100.552C200.957 101.361 201.613 102.017 202.422 102.017H231.27C232.079 102.017 232.735 101.361 232.735 100.552C232.735 99.7425 232.079 99.0864 231.27 99.0864Z" fill="url(#paint0_linear)"/>
<path d="M231.27 107.117H202.422C201.613 107.117 200.957 107.773 200.957 108.582C200.957 109.391 201.613 110.047 202.422 110.047H231.27C232.079 110.047 232.735 109.391 232.735 108.582C232.735 107.773 232.079 107.117 231.27 107.117Z" fill="url(#paint1_linear)"/>
<path d="M232.736 61.4798C232.736 58.4319 230.256 55.9526 227.208 55.9526H206.484C203.436 55.9526 200.957 58.4321 200.957 61.4798V62.7556C200.957 63.5649 201.613 64.2208 202.422 64.2208C203.231 64.2208 203.887 63.5647 203.887 62.7556V61.4798C203.887 60.0479 205.052 58.8833 206.484 58.8833H227.208C228.64 58.8833 229.805 60.0481 229.805 61.4798V82.9997C228.066 80.8341 225.804 79.1296 223.206 78.0585C224.195 76.7351 224.781 75.094 224.781 73.3185C224.781 68.9429 221.221 65.3831 216.846 65.3831C212.47 65.3831 208.91 68.9431 208.91 73.3185C208.91 75.0938 209.497 76.7349 210.485 78.0585C207.888 79.1296 205.626 80.8341 203.887 82.9997V69.6062C203.887 68.7968 203.231 68.1409 202.422 68.1409C201.613 68.1409 200.957 68.797 200.957 69.6062V87.1778C200.957 90.2257 203.436 92.7052 206.484 92.7052H227.208C230.256 92.7052 232.735 90.2255 232.735 87.1778V61.4798H232.736ZM216.846 68.3138C219.606 68.3138 221.851 70.5589 221.851 73.3187C221.851 76.0784 219.606 78.3235 216.846 78.3235C214.086 78.3235 211.841 76.0784 211.841 73.3187C211.841 70.5589 214.086 68.3138 216.846 68.3138ZM227.208 89.7743H206.484C205.454 89.7743 204.565 89.17 204.145 88.2985C205.722 84.388 208.985 81.4399 213.026 80.2714C214.16 80.897 215.462 81.2538 216.846 81.2538C218.23 81.2538 219.532 80.8968 220.666 80.2714C224.707 81.4397 227.971 84.3878 229.547 88.2985C229.128 89.17 228.238 89.7743 227.208 89.7743Z" fill="url(#paint2_linear)"/>
<path d="M246.901 115.693C247.711 115.693 248.367 115.037 248.367 114.228V38.6076C248.367 35.5156 245.851 33 242.759 33H178.421C175.329 33 172.813 35.5156 172.813 38.6076V43.3836H170.583C167.854 43.3836 165.633 45.6041 165.633 48.3332C165.633 51.0625 167.854 53.283 170.583 53.283H172.813V60.7166H170.583C167.854 60.7166 165.633 62.9371 165.633 65.6664C165.633 68.3957 167.854 70.6162 170.583 70.6162H172.813V78.0498H170.583C167.854 78.0498 165.633 80.2703 165.633 82.9996C165.633 85.7289 167.854 87.9494 170.583 87.9494H172.813V95.383H170.583C167.854 95.383 165.633 97.6035 165.633 100.333C165.633 103.062 167.854 105.283 170.583 105.283H172.813V112.716H170.583C167.854 112.716 165.633 114.937 165.633 117.666C165.633 120.395 167.854 122.616 170.583 122.616H172.813V127.392C172.813 130.484 175.329 132.999 178.421 132.999H242.759C245.851 132.999 248.367 130.484 248.367 127.392V121.092C248.367 120.282 247.711 119.627 246.901 119.627C246.092 119.627 245.436 120.283 245.436 121.092V127.392C245.436 128.869 244.235 130.07 242.759 130.07H190.68V35.9307H242.758C244.235 35.9307 245.436 37.1314 245.436 38.6078V114.228C245.436 115.037 246.092 115.693 246.901 115.693ZM170.583 50.3525C169.47 50.3525 168.564 49.4467 168.564 48.3334C168.564 47.2201 169.47 46.3145 170.583 46.3145H177.974C179.088 46.3145 179.993 47.2201 179.993 48.3334C179.993 49.4467 179.088 50.3525 177.974 50.3525H170.583ZM170.583 67.6859C169.47 67.6859 168.564 66.7801 168.564 65.6668C168.564 64.5535 169.47 63.6477 170.583 63.6477H174.275C174.276 63.6477 174.277 63.6479 174.279 63.6479C174.28 63.6479 174.281 63.6477 174.282 63.6477H177.974C179.087 63.6477 179.993 64.5535 179.993 65.6668C179.993 66.7801 179.087 67.6859 177.974 67.6859H170.583ZM170.583 85.0191C169.47 85.0191 168.564 84.1133 168.564 83C168.564 81.8867 169.47 80.9809 170.583 80.9809H177.974C179.088 80.9809 179.993 81.8867 179.993 83C179.993 84.1133 179.088 85.0191 177.974 85.0191H170.583ZM170.583 102.353C169.47 102.353 168.564 101.447 168.564 100.333C168.564 99.2201 169.47 98.3143 170.583 98.3143H177.974C179.088 98.3143 179.993 99.2201 179.993 100.333C179.993 101.447 179.088 102.353 177.974 102.353H170.583ZM170.583 119.686C169.47 119.686 168.564 118.78 168.564 117.667C168.564 116.553 169.47 115.647 170.583 115.647H177.974C179.088 115.647 179.993 116.553 179.993 117.667C179.993 118.78 179.088 119.686 177.974 119.686H170.583ZM187.75 130.069H178.421C176.945 130.069 175.744 128.869 175.744 127.392V122.616H177.974C180.704 122.616 182.924 120.396 182.924 117.667C182.924 114.937 180.704 112.717 177.974 112.717H175.744V105.283H177.974C180.704 105.283 182.924 103.063 182.924 100.333C182.924 97.6041 180.704 95.3836 177.974 95.3836H175.744V87.95H177.974C180.704 87.95 182.924 85.7295 182.924 83.0002C182.924 80.2709 180.704 78.0504 177.974 78.0504H175.744V70.6168H177.974C180.704 70.6168 182.924 68.3963 182.924 65.667C182.924 62.9377 180.704 60.7172 177.974 60.7172H175.744V53.2836H177.974C180.704 53.2836 182.924 51.0631 182.924 48.3338C182.924 45.6047 180.704 43.3842 177.974 43.3842H175.744V38.6076C175.744 37.1314 176.945 35.9305 178.421 35.9305H187.75V130.069Z" fill="url(#paint3_linear)"/>
<path d="M174.336 201.192C172.72 201.192 171.312 200.848 170.112 200.16C168.912 199.456 167.992 198.456 167.352 197.16C166.712 195.848 166.392 194.304 166.392 192.528C166.392 190.768 166.712 189.24 167.352 187.944C167.992 186.632 168.912 185.632 170.112 184.944C171.312 184.24 172.72 183.888 174.336 183.888C175.392 183.888 176.392 184.056 177.336 184.392C178.28 184.712 179.104 185.184 179.808 185.808C180.112 186.048 180.264 186.368 180.264 186.768C180.264 187.056 180.184 187.304 180.024 187.512C179.864 187.704 179.672 187.8 179.448 187.8C179.176 187.8 178.912 187.696 178.656 187.488C177.888 186.912 177.184 186.512 176.544 186.288C175.92 186.048 175.208 185.928 174.408 185.928C172.648 185.928 171.296 186.496 170.352 187.632C169.408 188.768 168.936 190.4 168.936 192.528C168.936 194.672 169.408 196.312 170.352 197.448C171.296 198.584 172.648 199.152 174.408 199.152C175.176 199.152 175.872 199.032 176.496 198.792C177.136 198.552 177.856 198.152 178.656 197.592C178.976 197.384 179.24 197.28 179.448 197.28C179.672 197.28 179.864 197.384 180.024 197.592C180.184 197.784 180.264 198.024 180.264 198.312C180.264 198.712 180.112 199.032 179.808 199.272C179.104 199.896 178.28 200.376 177.336 200.712C176.392 201.032 175.392 201.192 174.336 201.192ZM187.776 201.168C186.624 201.168 185.608 200.92 184.728 200.424C183.864 199.928 183.192 199.224 182.712 198.312C182.248 197.384 182.016 196.312 182.016 195.096C182.016 193.864 182.248 192.792 182.712 191.88C183.192 190.952 183.864 190.24 184.728 189.744C185.608 189.248 186.624 189 187.776 189C188.928 189 189.936 189.248 190.8 189.744C191.68 190.24 192.352 190.952 192.816 191.88C193.296 192.792 193.536 193.864 193.536 195.096C193.536 196.312 193.296 197.384 192.816 198.312C192.352 199.224 191.68 199.928 190.8 200.424C189.936 200.92 188.928 201.168 187.776 201.168ZM187.776 199.248C188.848 199.248 189.664 198.896 190.224 198.192C190.8 197.488 191.088 196.456 191.088 195.096C191.088 193.752 190.8 192.728 190.224 192.024C189.648 191.304 188.832 190.944 187.776 190.944C186.72 190.944 185.904 191.304 185.328 192.024C184.752 192.728 184.464 193.752 184.464 195.096C184.464 196.456 184.744 197.488 185.304 198.192C185.88 198.896 186.704 199.248 187.776 199.248ZM202.547 189C205.347 189 206.747 190.576 206.747 193.728V199.968C206.747 200.336 206.635 200.624 206.411 200.832C206.203 201.024 205.907 201.12 205.523 201.12C205.155 201.12 204.859 201.016 204.635 200.808C204.427 200.6 204.323 200.32 204.323 199.968V193.848C204.323 192.856 204.123 192.128 203.723 191.664C203.339 191.2 202.731 190.968 201.899 190.968C200.923 190.968 200.139 191.272 199.547 191.88C198.955 192.488 198.659 193.304 198.659 194.328V199.968C198.659 200.32 198.547 200.6 198.323 200.808C198.115 201.016 197.827 201.12 197.459 201.12C197.091 201.12 196.795 201.016 196.571 200.808C196.347 200.6 196.235 200.32 196.235 199.968V190.2C196.235 189.864 196.347 189.592 196.571 189.384C196.811 189.16 197.107 189.048 197.459 189.048C197.811 189.048 198.091 189.152 198.299 189.36C198.507 189.568 198.611 189.84 198.611 190.176V191.16C198.995 190.456 199.531 189.92 200.219 189.552C200.907 189.184 201.683 189 202.547 189ZM215.799 199.272C216.151 199.304 216.399 199.4 216.543 199.56C216.703 199.704 216.783 199.912 216.783 200.184C216.783 200.504 216.655 200.752 216.399 200.928C216.159 201.088 215.799 201.152 215.319 201.12L214.671 201.072C213.375 200.976 212.407 200.584 211.767 199.896C211.127 199.192 210.807 198.16 210.807 196.8V191.16H209.367C208.663 191.16 208.311 190.848 208.311 190.224C208.311 189.936 208.399 189.712 208.575 189.552C208.767 189.376 209.031 189.288 209.367 189.288H210.807V186.816C210.807 186.448 210.911 186.16 211.119 185.952C211.343 185.744 211.639 185.64 212.007 185.64C212.375 185.64 212.671 185.744 212.895 185.952C213.119 186.16 213.231 186.448 213.231 186.816V189.288H215.607C215.943 189.288 216.199 189.376 216.375 189.552C216.567 189.712 216.663 189.936 216.663 190.224C216.663 190.528 216.567 190.76 216.375 190.92C216.199 191.08 215.943 191.16 215.607 191.16H213.231V196.968C213.231 197.72 213.383 198.272 213.687 198.624C214.007 198.976 214.487 199.176 215.127 199.224L215.799 199.272ZM223.444 189C224.996 189 226.148 189.392 226.9 190.176C227.668 190.96 228.052 192.152 228.052 193.752V199.968C228.052 200.336 227.948 200.624 227.74 200.832C227.532 201.024 227.244 201.12 226.876 201.12C226.524 201.12 226.244 201.016 226.036 200.808C225.828 200.6 225.724 200.32 225.724 199.968V199.08C225.42 199.752 224.964 200.272 224.356 200.64C223.764 200.992 223.068 201.168 222.268 201.168C221.5 201.168 220.796 201.016 220.156 200.712C219.532 200.392 219.036 199.96 218.668 199.416C218.3 198.872 218.116 198.256 218.116 197.568C218.1 196.704 218.316 196.032 218.764 195.552C219.212 195.056 219.94 194.704 220.948 194.496C221.956 194.272 223.356 194.16 225.148 194.16H225.7V193.464C225.7 192.568 225.516 191.92 225.148 191.52C224.78 191.12 224.188 190.92 223.372 190.92C222.812 190.92 222.284 190.992 221.788 191.136C221.292 191.28 220.748 191.488 220.156 191.76C219.724 192 219.42 192.12 219.244 192.12C219.004 192.12 218.804 192.032 218.644 191.856C218.5 191.68 218.428 191.456 218.428 191.184C218.428 190.944 218.492 190.736 218.62 190.56C218.764 190.368 218.988 190.184 219.292 190.008C219.852 189.704 220.508 189.464 221.26 189.288C222.012 189.096 222.74 189 223.444 189ZM222.7 199.368C223.58 199.368 224.3 199.072 224.86 198.48C225.42 197.872 225.7 197.096 225.7 196.152V195.528H225.268C224.02 195.528 223.06 195.584 222.388 195.696C221.716 195.808 221.236 196 220.948 196.272C220.66 196.528 220.516 196.904 220.516 197.4C220.516 197.976 220.724 198.448 221.14 198.816C221.556 199.184 222.076 199.368 222.7 199.368ZM236.384 201.168C235.248 201.168 234.248 200.92 233.384 200.424C232.536 199.928 231.872 199.224 231.392 198.312C230.928 197.4 230.696 196.344 230.696 195.144C230.696 193.928 230.936 192.856 231.416 191.928C231.912 191 232.6 190.28 233.48 189.768C234.36 189.256 235.368 189 236.504 189C237.112 189 237.72 189.088 238.328 189.264C238.952 189.44 239.504 189.68 239.984 189.984C240.496 190.336 240.752 190.744 240.752 191.208C240.752 191.48 240.68 191.712 240.536 191.904C240.392 192.08 240.208 192.168 239.984 192.168C239.84 192.168 239.696 192.136 239.552 192.072C239.408 191.992 239.224 191.88 239 191.736C238.6 191.48 238.224 191.288 237.872 191.16C237.536 191.016 237.128 190.944 236.648 190.944C235.56 190.944 234.712 191.312 234.104 192.048C233.512 192.784 233.215 193.808 233.215 195.12C233.215 196.432 233.512 197.448 234.104 198.168C234.696 198.872 235.536 199.224 236.624 199.224C237.104 199.224 237.528 199.152 237.896 199.008C238.264 198.864 238.64 198.672 239.024 198.432C239.2 198.32 239.376 198.224 239.552 198.144C239.728 198.064 239.888 198.024 240.032 198.024C240.256 198.024 240.44 198.12 240.584 198.312C240.728 198.488 240.8 198.712 240.8 198.984C240.8 199.208 240.736 199.416 240.608 199.608C240.496 199.784 240.296 199.968 240.008 200.16C239.528 200.48 238.968 200.728 238.328 200.904C237.688 201.08 237.04 201.168 236.384 201.168ZM248.752 199.272C249.104 199.304 249.352 199.4 249.496 199.56C249.656 199.704 249.736 199.912 249.736 200.184C249.736 200.504 249.608 200.752 249.352 200.928C249.112 201.088 248.752 201.152 248.272 201.12L247.624 201.072C246.328 200.976 245.36 200.584 244.72 199.896C244.08 199.192 243.76 198.16 243.76 196.8V191.16H242.32C241.616 191.16 241.264 190.848 241.264 190.224C241.264 189.936 241.352 189.712 241.528 189.552C241.72 189.376 241.984 189.288 242.32 189.288H243.76V186.816C243.76 186.448 243.864 186.16 244.072 185.952C244.296 185.744 244.592 185.64 244.96 185.64C245.328 185.64 245.624 185.744 245.848 185.952C246.072 186.16 246.184 186.448 246.184 186.816V189.288H248.56C248.896 189.288 249.152 189.376 249.328 189.552C249.52 189.712 249.616 189.936 249.616 190.224C249.616 190.528 249.52 190.76 249.328 190.92C249.152 191.08 248.896 191.16 248.56 191.16H246.184V196.968C246.184 197.72 246.336 198.272 246.64 198.624C246.96 198.976 247.44 199.176 248.08 199.224L248.752 199.272Z" fill="black"/>
<rect x="466" y="13" width="285" height="248.81" rx="20" fill="white"/>
<circle cx="478" cy="20" r="20" fill="#F7F4D7"/>
<path d="M482 25.704C482.384 25.704 482.576 25.904 482.576 26.304C482.576 26.496 482.52 26.664 482.408 26.808C482.296 26.936 482.12 27 481.88 27H472.256C472.064 27 471.904 26.944 471.776 26.832C471.664 26.72 471.608 26.576 471.608 26.4C471.608 26.176 471.712 25.96 471.92 25.752L478.352 19.224C479.392 18.168 480.12 17.256 480.536 16.488C480.968 15.72 481.184 14.92 481.184 14.088C481.184 13.208 480.904 12.504 480.344 11.976C479.784 11.448 479.032 11.184 478.088 11.184C477.192 11.184 476.36 11.336 475.592 11.64C474.84 11.928 474.112 12.368 473.408 12.96C473.216 13.104 473.04 13.176 472.88 13.176C472.72 13.176 472.592 13.128 472.496 13.032C472.4 12.92 472.352 12.776 472.352 12.6C472.352 12.344 472.488 12.088 472.76 11.832C473.4 11.256 474.184 10.792 475.112 10.44C476.056 10.088 477.016 9.904 477.992 9.888C479.416 9.872 480.552 10.24 481.4 10.992C482.248 11.744 482.672 12.768 482.672 14.064C482.672 15.088 482.416 16.072 481.904 17.016C481.392 17.96 480.528 19.04 479.312 20.256L473.84 25.704H482Z" fill="black"/>
<path d="M654.428 51.343L636.654 33.5721C636.288 33.2059 635.791 33 635.273 33H577.266C574.035 33 571.406 35.6285 571.406 38.8594V42.5828C561.812 46.3465 555 55.6982 555 66.6115C555 67.69 555.875 68.5646 556.953 68.5646H580.799C581.878 68.5646 582.752 67.69 582.752 66.6115V42.7656C582.752 41.6871 581.878 40.8125 580.799 40.8125C578.917 40.8125 577.081 41.017 575.312 41.4018V38.8594C575.312 37.7824 576.189 36.9062 577.266 36.9062H633.32V48.8203C633.32 52.0512 635.949 54.6797 639.18 54.6797H651.094V127.141C651.094 128.218 650.218 129.094 649.141 129.094H577.266C576.189 129.094 575.312 128.218 575.312 127.141V110.409C575.312 109.33 574.438 108.456 573.359 108.456C572.281 108.456 571.406 109.33 571.406 110.409V127.141C571.406 130.371 574.035 133 577.266 133H649.141C652.371 133 655 130.371 655 127.141V52.724C655 52.2061 654.794 51.7092 654.428 51.343ZM578.846 44.8053V64.6584H558.993C559.926 54.1412 568.329 45.7391 578.846 44.8053ZM639.18 50.7734C638.103 50.7734 637.227 49.8973 637.227 48.8203V39.668L648.334 50.7734H639.18Z" fill="url(#paint4_linear)"/>
<path d="M574.74 101.932C574.377 101.568 573.873 101.359 573.359 101.359C572.846 101.359 572.342 101.568 571.979 101.932C571.615 102.295 571.406 102.799 571.406 103.312C571.406 103.826 571.615 104.33 571.979 104.693C572.342 105.057 572.846 105.266 573.359 105.266C573.873 105.266 574.377 105.057 574.74 104.693C575.104 104.33 575.312 103.826 575.312 103.312C575.312 102.799 575.104 102.295 574.74 101.932Z" fill="url(#paint5_linear)"/>
<path d="M587.795 47.8083C586.716 47.8083 585.842 48.683 585.842 49.7615V71.6541H563.949C562.871 71.6541 561.996 72.5287 561.996 73.6072C561.996 87.8328 573.569 99.4062 587.795 99.4062C602.021 99.4062 613.594 87.8328 613.594 73.6072C613.594 59.3816 602.021 47.8083 587.795 47.8083ZM589.748 51.8011C594.32 52.207 598.492 54.0253 601.825 56.8148L589.748 68.8919V51.8011ZM587.795 95.4999C576.381 95.4999 566.98 86.7208 565.989 75.5603H587.795C588.334 75.5603 588.822 75.3419 589.175 74.9888C589.176 74.9886 589.176 74.9886 589.176 74.9882L604.588 59.5765C607.77 63.3787 609.688 68.2732 609.688 73.6072C609.688 85.6789 599.867 95.4999 587.795 95.4999Z" fill="url(#paint6_linear)"/>
<path d="M640.561 94.6416C637.33 94.6416 634.702 97.2701 634.702 100.501C634.702 101.311 634.867 102.082 635.165 102.785L623.913 114.037C623.139 113.66 622.271 113.448 621.355 113.448C620.46 113.448 619.612 113.651 618.853 114.011L611.381 106.538C611.64 105.878 611.784 105.159 611.784 104.407C611.784 101.176 609.155 98.5477 605.924 98.5477C602.693 98.5477 600.065 101.176 600.065 104.407C600.065 105.282 600.259 106.113 600.605 106.86L593.438 114.027C592.674 113.661 591.82 113.456 590.919 113.456C587.688 113.456 585.06 116.085 585.06 119.316C585.06 122.547 587.688 125.175 590.919 125.175C594.15 125.175 596.778 122.547 596.778 119.316C596.778 118.41 596.572 117.552 596.203 116.786L603.33 109.659C604.113 110.047 604.993 110.266 605.925 110.266C606.976 110.266 607.963 109.987 608.817 109.499L616.079 116.761C615.705 117.531 615.496 118.396 615.496 119.308C615.496 122.539 618.124 125.167 621.355 125.167C624.586 125.167 627.214 122.539 627.214 119.308C627.214 118.418 627.014 117.573 626.657 116.817L637.805 105.67C638.627 106.11 639.565 106.36 640.561 106.36C643.792 106.36 646.421 103.732 646.421 100.501C646.421 97.2701 643.792 94.6416 640.561 94.6416ZM590.919 121.269C589.842 121.269 588.966 120.393 588.966 119.316C588.966 118.239 589.842 117.363 590.919 117.363C591.443 117.363 591.919 117.572 592.27 117.909C592.278 117.917 592.285 117.926 592.293 117.934C592.302 117.944 592.312 117.951 592.322 117.96C592.662 118.312 592.872 118.79 592.872 119.316C592.872 120.393 591.996 121.269 590.919 121.269ZM605.924 106.36C604.847 106.36 603.971 105.484 603.971 104.407C603.971 103.33 604.847 102.454 605.924 102.454C607.001 102.454 607.877 103.33 607.877 104.407C607.877 105.484 607.001 106.36 605.924 106.36ZM621.355 121.261C620.278 121.261 619.402 120.385 619.402 119.308C619.402 118.231 620.278 117.355 621.355 117.355C622.432 117.355 623.308 118.231 623.308 119.308C623.308 120.385 622.432 121.261 621.355 121.261ZM640.561 102.454C639.484 102.454 638.608 101.578 638.608 100.501C638.608 99.4238 639.484 98.5477 640.561 98.5477C641.638 98.5477 642.514 99.4238 642.514 100.501C642.514 101.578 641.638 102.454 640.561 102.454Z" fill="url(#paint7_linear)"/>
<path d="M630.799 78.8984H620.49C619.412 78.8984 618.537 79.773 618.537 80.8516C618.537 81.9301 619.412 82.8047 620.49 82.8047H630.799C631.877 82.8047 632.752 81.9301 632.752 80.8516C632.752 79.773 631.877 78.8984 630.799 78.8984Z" fill="url(#paint8_linear)"/>
<path d="M641.072 79.4707C640.709 79.1074 640.205 78.8984 639.691 78.8984C639.178 78.8984 638.674 79.1072 638.311 79.4707C637.947 79.834 637.738 80.3379 637.738 80.8516C637.738 81.3652 637.947 81.8691 638.311 82.2322C638.674 82.5955 639.176 82.8047 639.691 82.8047C640.205 82.8047 640.709 82.5957 641.072 82.2322C641.435 81.8691 641.645 81.3652 641.645 80.8516C641.645 80.3379 641.436 79.834 641.072 79.4707Z" fill="url(#paint9_linear)"/>
<path d="M644.348 60.1484H620.49C619.412 60.1484 618.537 61.023 618.537 62.1016C618.537 63.1801 619.412 64.0547 620.49 64.0547H644.348C645.427 64.0547 646.302 63.1801 646.302 62.1016C646.302 61.023 645.427 60.1484 644.348 60.1484Z" fill="url(#paint10_linear)"/>
<path d="M644.348 69.5234H620.49C619.412 69.5234 618.537 70.398 618.537 71.4766C618.537 72.5551 619.412 73.4297 620.49 73.4297H644.348C645.427 73.4297 646.302 72.5551 646.302 71.4766C646.302 70.398 645.427 69.5234 644.348 69.5234Z" fill="url(#paint11_linear)"/>
<path d="M573.168 199.464C573.312 199.672 573.384 199.896 573.384 200.136C573.384 200.424 573.264 200.672 573.024 200.88C572.8 201.072 572.536 201.168 572.232 201.168C571.784 201.168 571.424 200.968 571.152 200.568L567.936 195.576C567.568 195 567.176 194.6 566.76 194.376C566.344 194.136 565.8 194.016 565.128 194.016H562.416V199.872C562.416 200.256 562.304 200.56 562.08 200.784C561.872 201.008 561.576 201.12 561.192 201.12C560.824 201.12 560.528 201.008 560.304 200.784C560.08 200.56 559.968 200.256 559.968 199.872V185.28C559.968 184.912 560.072 184.624 560.28 184.416C560.504 184.192 560.808 184.08 561.192 184.08H567.168C569.04 184.08 570.464 184.496 571.44 185.328C572.432 186.16 572.928 187.376 572.928 188.976C572.928 190.304 572.552 191.384 571.8 192.216C571.048 193.032 569.976 193.552 568.584 193.776C569 193.888 569.376 194.088 569.712 194.376C570.048 194.664 570.376 195.064 570.696 195.576L573.168 199.464ZM566.88 192.024C568.128 192.024 569.048 191.784 569.64 191.304C570.248 190.808 570.552 190.048 570.552 189.024C570.552 188 570.256 187.256 569.664 186.792C569.072 186.312 568.144 186.072 566.88 186.072H562.392V192.024H566.88ZM585.418 198.048C585.642 198.048 585.826 198.136 585.97 198.312C586.114 198.488 586.186 198.712 586.186 198.984C586.186 199.448 585.898 199.84 585.322 200.16C584.762 200.48 584.146 200.728 583.474 200.904C582.818 201.08 582.186 201.168 581.578 201.168C579.722 201.168 578.258 200.632 577.186 199.56C576.114 198.472 575.578 196.992 575.578 195.12C575.578 193.92 575.81 192.856 576.274 191.928C576.754 191 577.418 190.28 578.266 189.768C579.13 189.256 580.106 189 581.194 189C582.762 189 584.002 189.504 584.914 190.512C585.826 191.52 586.282 192.88 586.282 194.592C586.282 195.232 585.994 195.552 585.418 195.552H578.002C578.162 198.032 579.354 199.272 581.578 199.272C582.17 199.272 582.682 199.192 583.114 199.032C583.546 198.872 584.002 198.664 584.482 198.408C584.53 198.376 584.658 198.312 584.866 198.216C585.09 198.104 585.274 198.048 585.418 198.048ZM581.242 190.776C580.314 190.776 579.57 191.072 579.01 191.664C578.45 192.256 578.114 193.088 578.002 194.16H584.194C584.146 193.072 583.866 192.24 583.354 191.664C582.858 191.072 582.154 190.776 581.242 190.776ZM593.033 201.168C591.401 201.168 590.065 200.832 589.025 200.16C588.737 199.984 588.529 199.8 588.401 199.608C588.289 199.416 588.233 199.2 588.233 198.96C588.233 198.704 588.305 198.488 588.449 198.312C588.593 198.136 588.777 198.048 589.001 198.048C589.209 198.048 589.537 198.176 589.985 198.432C590.465 198.688 590.929 198.896 591.377 199.056C591.841 199.216 592.417 199.296 593.105 199.296C593.873 199.296 594.473 199.16 594.905 198.888C595.337 198.616 595.553 198.232 595.553 197.736C595.553 197.416 595.465 197.16 595.289 196.968C595.129 196.776 594.841 196.608 594.425 196.464C594.009 196.304 593.393 196.136 592.577 195.96C591.169 195.656 590.153 195.248 589.529 194.736C588.921 194.208 588.617 193.496 588.617 192.6C588.617 191.912 588.817 191.296 589.217 190.752C589.617 190.192 590.169 189.76 590.873 189.456C591.577 189.152 592.377 189 593.273 189C593.913 189 594.537 189.088 595.145 189.264C595.753 189.424 596.289 189.664 596.753 189.984C597.281 190.336 597.545 190.744 597.545 191.208C597.545 191.464 597.465 191.68 597.305 191.856C597.161 192.032 596.985 192.12 596.777 192.12C596.633 192.12 596.489 192.088 596.345 192.024C596.201 191.96 596.009 191.856 595.769 191.712C595.337 191.456 594.929 191.256 594.545 191.112C594.177 190.968 593.713 190.896 593.153 190.896C592.481 190.896 591.937 191.04 591.521 191.328C591.121 191.616 590.921 192.008 590.921 192.504C590.921 192.952 591.105 193.304 591.473 193.56C591.857 193.8 592.569 194.032 593.609 194.256C594.681 194.48 595.521 194.736 596.129 195.024C596.737 195.312 597.169 195.672 597.425 196.104C597.697 196.52 597.833 197.056 597.833 197.712C597.833 198.752 597.393 199.592 596.513 200.232C595.649 200.856 594.489 201.168 593.033 201.168ZM609.7 198.048C609.924 198.048 610.108 198.136 610.252 198.312C610.396 198.488 610.468 198.712 610.468 198.984C610.468 199.448 610.18 199.84 609.604 200.16C609.044 200.48 608.428 200.728 607.756 200.904C607.1 201.08 606.468 201.168 605.86 201.168C604.004 201.168 602.54 200.632 601.468 199.56C600.396 198.472 599.86 196.992 599.86 195.12C599.86 193.92 600.092 192.856 600.556 191.928C601.036 191 601.7 190.28 602.548 189.768C603.412 189.256 604.388 189 605.476 189C607.044 189 608.284 189.504 609.196 190.512C610.108 191.52 610.564 192.88 610.564 194.592C610.564 195.232 610.276 195.552 609.7 195.552H602.284C602.444 198.032 603.636 199.272 605.86 199.272C606.452 199.272 606.964 199.192 607.396 199.032C607.828 198.872 608.284 198.664 608.764 198.408C608.812 198.376 608.94 198.312 609.148 198.216C609.372 198.104 609.556 198.048 609.7 198.048ZM605.524 190.776C604.596 190.776 603.852 191.072 603.292 191.664C602.732 192.256 602.396 193.088 602.284 194.16H608.476C608.428 193.072 608.148 192.24 607.636 191.664C607.14 191.072 606.436 190.776 605.524 190.776ZM618.155 189C619.707 189 620.859 189.392 621.611 190.176C622.379 190.96 622.763 192.152 622.763 193.752V199.968C622.763 200.336 622.659 200.624 622.451 200.832C622.243 201.024 621.955 201.12 621.587 201.12C621.235 201.12 620.955 201.016 620.747 200.808C620.539 200.6 620.435 200.32 620.435 199.968V199.08C620.131 199.752 619.675 200.272 619.067 200.64C618.475 200.992 617.779 201.168 616.979 201.168C616.211 201.168 615.507 201.016 614.867 200.712C614.243 200.392 613.747 199.96 613.379 199.416C613.011 198.872 612.827 198.256 612.827 197.568C612.811 196.704 613.027 196.032 613.475 195.552C613.923 195.056 614.651 194.704 615.659 194.496C616.667 194.272 618.067 194.16 619.859 194.16H620.411V193.464C620.411 192.568 620.227 191.92 619.859 191.52C619.491 191.12 618.899 190.92 618.083 190.92C617.523 190.92 616.995 190.992 616.499 191.136C616.003 191.28 615.459 191.488 614.867 191.76C614.435 192 614.131 192.12 613.955 192.12C613.715 192.12 613.515 192.032 613.355 191.856C613.211 191.68 613.139 191.456 613.139 191.184C613.139 190.944 613.203 190.736 613.331 190.56C613.475 190.368 613.699 190.184 614.003 190.008C614.563 189.704 615.219 189.464 615.971 189.288C616.723 189.096 617.451 189 618.155 189ZM617.411 199.368C618.291 199.368 619.011 199.072 619.571 198.48C620.131 197.872 620.411 197.096 620.411 196.152V195.528H619.979C618.731 195.528 617.771 195.584 617.099 195.696C616.427 195.808 615.947 196 615.659 196.272C615.371 196.528 615.227 196.904 615.227 197.4C615.227 197.976 615.435 198.448 615.851 198.816C616.267 199.184 616.787 199.368 617.411 199.368ZM632.222 189.048C632.99 189 633.374 189.328 633.374 190.032C633.374 190.384 633.286 190.648 633.11 190.824C632.934 191 632.63 191.104 632.198 191.136L631.478 191.208C630.47 191.304 629.718 191.656 629.222 192.264C628.742 192.872 628.502 193.608 628.502 194.472V199.968C628.502 200.352 628.39 200.64 628.166 200.832C627.942 201.024 627.654 201.12 627.302 201.12C626.95 201.12 626.654 201.024 626.414 200.832C626.19 200.64 626.078 200.352 626.078 199.968V190.2C626.078 189.832 626.19 189.552 626.414 189.36C626.654 189.152 626.95 189.048 627.302 189.048C627.622 189.048 627.886 189.152 628.094 189.36C628.318 189.552 628.43 189.824 628.43 190.176V191.328C628.75 190.624 629.214 190.088 629.822 189.72C630.43 189.352 631.118 189.136 631.886 189.072L632.222 189.048ZM639.649 201.168C638.513 201.168 637.513 200.92 636.649 200.424C635.801 199.928 635.137 199.224 634.657 198.312C634.193 197.4 633.961 196.344 633.961 195.144C633.961 193.928 634.201 192.856 634.681 191.928C635.177 191 635.865 190.28 636.745 189.768C637.625 189.256 638.633 189 639.769 189C640.377 189 640.985 189.088 641.593 189.264C642.217 189.44 642.769 189.68 643.249 189.984C643.761 190.336 644.017 190.744 644.017 191.208C644.017 191.48 643.945 191.712 643.801 191.904C643.657 192.08 643.473 192.168 643.249 192.168C643.105 192.168 642.961 192.136 642.817 192.072C642.673 191.992 642.489 191.88 642.265 191.736C641.865 191.48 641.489 191.288 641.137 191.16C640.801 191.016 640.393 190.944 639.913 190.944C638.825 190.944 637.977 191.312 637.369 192.048C636.777 192.784 636.481 193.808 636.481 195.12C636.481 196.432 636.777 197.448 637.369 198.168C637.961 198.872 638.801 199.224 639.889 199.224C640.369 199.224 640.793 199.152 641.161 199.008C641.529 198.864 641.905 198.672 642.289 198.432C642.465 198.32 642.641 198.224 642.817 198.144C642.993 198.064 643.153 198.024 643.297 198.024C643.521 198.024 643.705 198.12 643.849 198.312C643.993 198.488 644.065 198.712 644.065 198.984C644.065 199.208 644.001 199.416 643.873 199.608C643.761 199.784 643.561 199.968 643.273 200.16C642.793 200.48 642.233 200.728 641.593 200.904C640.953 201.08 640.305 201.168 639.649 201.168ZM652.571 189C655.355 189 656.747 190.576 656.747 193.728V199.968C656.747 200.32 656.635 200.6 656.411 200.808C656.187 201.016 655.891 201.12 655.523 201.12C655.155 201.12 654.859 201.016 654.635 200.808C654.427 200.6 654.323 200.32 654.323 199.968V193.752C654.323 192.792 654.123 192.088 653.723 191.64C653.339 191.192 652.731 190.968 651.899 190.968C650.923 190.968 650.139 191.272 649.547 191.88C648.955 192.488 648.659 193.304 648.659 194.328V199.968C648.659 200.32 648.547 200.6 648.323 200.808C648.115 201.016 647.827 201.12 647.459 201.12C647.091 201.12 646.795 201.016 646.571 200.808C646.347 200.6 646.235 200.32 646.235 199.968V185.112C646.235 184.76 646.347 184.48 646.571 184.272C646.811 184.064 647.115 183.96 647.483 183.96C647.835 183.96 648.115 184.064 648.323 184.272C648.547 184.464 648.659 184.728 648.659 185.064V191.064C649.059 190.392 649.595 189.88 650.267 189.528C650.939 189.176 651.707 189 652.571 189Z" fill="black"/>
<rect x="861" y="13" width="285" height="248.81" rx="20" fill="white"/>
<circle cx="870" cy="20" r="20" fill="#F7F4D7"/>
<path d="M871.504 18.36C872.416 18.6 873.12 19.048 873.616 19.704C874.128 20.36 874.384 21.176 874.384 22.152C874.384 23.16 874.152 24.04 873.688 24.792C873.24 25.544 872.584 26.128 871.72 26.544C870.872 26.96 869.88 27.168 868.744 27.168C867.72 27.168 866.752 27 865.84 26.664C864.928 26.328 864.144 25.88 863.488 25.32C863.312 25.16 863.224 24.968 863.224 24.744C863.224 24.552 863.28 24.392 863.392 24.264C863.52 24.12 863.672 24.048 863.848 24.048C864.04 24.048 864.208 24.112 864.352 24.24C865.648 25.328 867.136 25.872 868.816 25.872C870.08 25.872 871.072 25.552 871.792 24.912C872.528 24.272 872.896 23.368 872.896 22.2C872.896 20.104 871.584 19.056 868.96 19.056H867.616C867.44 19.056 867.296 18.992 867.184 18.864C867.088 18.736 867.04 18.576 867.04 18.384C867.04 18.192 867.088 18.04 867.184 17.928C867.296 17.816 867.448 17.76 867.64 17.76H868.936C870.232 17.76 871.264 17.424 872.032 16.752C872.8 16.064 873.184 15.136 873.184 13.968C873.184 13.12 872.896 12.448 872.32 11.952C871.744 11.44 870.976 11.184 870.016 11.184C869.152 11.184 868.344 11.336 867.592 11.64C866.84 11.928 866.112 12.368 865.408 12.96C865.216 13.104 865.04 13.176 864.88 13.176C864.72 13.176 864.592 13.128 864.496 13.032C864.4 12.92 864.352 12.776 864.352 12.6C864.352 12.344 864.488 12.088 864.76 11.832C865.4 11.24 866.184 10.776 867.112 10.44C868.056 10.088 869.024 9.904 870.016 9.888C871.424 9.872 872.552 10.232 873.4 10.968C874.248 11.704 874.672 12.696 874.672 13.944C874.672 14.936 874.384 15.832 873.808 16.632C873.248 17.432 872.48 18.008 871.504 18.36Z" fill="black"/>
<path d="M965.192 201C964.808 201 964.504 200.896 964.28 200.688C964.072 200.464 963.968 200.168 963.968 199.8V185.28C963.968 184.912 964.072 184.624 964.28 184.416C964.504 184.192 964.808 184.08 965.192 184.08H969.896C972.632 184.08 974.752 184.816 976.256 186.288C977.76 187.76 978.512 189.84 978.512 192.528C978.512 195.216 977.76 197.304 976.256 198.792C974.752 200.264 972.632 201 969.896 201H965.192ZM969.752 198.936C973.912 198.936 975.992 196.8 975.992 192.528C975.992 188.272 973.912 186.144 969.752 186.144H966.44V198.936H969.752ZM982.81 201.12C982.458 201.12 982.162 201.024 981.922 200.832C981.698 200.64 981.586 200.352 981.586 199.968V190.224C981.586 189.84 981.698 189.552 981.922 189.36C982.162 189.152 982.458 189.048 982.81 189.048C983.162 189.048 983.45 189.152 983.674 189.36C983.898 189.552 984.01 189.84 984.01 190.224V199.968C984.01 200.352 983.898 200.64 983.674 200.832C983.45 201.024 983.162 201.12 982.81 201.12ZM982.81 186.696C982.346 186.696 981.978 186.568 981.706 186.312C981.434 186.056 981.298 185.72 981.298 185.304C981.298 184.888 981.434 184.56 981.706 184.32C981.978 184.064 982.346 183.936 982.81 183.936C983.258 183.936 983.618 184.064 983.89 184.32C984.178 184.56 984.322 184.888 984.322 185.304C984.322 185.72 984.186 186.056 983.914 186.312C983.642 186.568 983.274 186.696 982.81 186.696ZM991.479 201.168C989.847 201.168 988.511 200.832 987.471 200.16C987.183 199.984 986.975 199.8 986.847 199.608C986.735 199.416 986.679 199.2 986.679 198.96C986.679 198.704 986.751 198.488 986.895 198.312C987.039 198.136 987.223 198.048 987.447 198.048C987.655 198.048 987.983 198.176 988.431 198.432C988.911 198.688 989.375 198.896 989.823 199.056C990.287 199.216 990.863 199.296 991.551 199.296C992.319 199.296 992.919 199.16 993.351 198.888C993.783 198.616 993.999 198.232 993.999 197.736C993.999 197.416 993.911 197.16 993.735 196.968C993.575 196.776 993.287 196.608 992.871 196.464C992.455 196.304 991.839 196.136 991.023 195.96C989.615 195.656 988.599 195.248 987.975 194.736C987.367 194.208 987.063 193.496 987.063 192.6C987.063 191.912 987.263 191.296 987.663 190.752C988.063 190.192 988.615 189.76 989.319 189.456C990.023 189.152 990.823 189 991.719 189C992.359 189 992.983 189.088 993.591 189.264C994.199 189.424 994.735 189.664 995.199 189.984C995.727 190.336 995.991 190.744 995.991 191.208C995.991 191.464 995.911 191.68 995.751 191.856C995.607 192.032 995.431 192.12 995.223 192.12C995.079 192.12 994.935 192.088 994.791 192.024C994.647 191.96 994.455 191.856 994.215 191.712C993.783 191.456 993.375 191.256 992.991 191.112C992.623 190.968 992.159 190.896 991.599 190.896C990.927 190.896 990.383 191.04 989.967 191.328C989.567 191.616 989.367 192.008 989.367 192.504C989.367 192.952 989.551 193.304 989.919 193.56C990.303 193.8 991.015 194.032 992.055 194.256C993.127 194.48 993.967 194.736 994.575 195.024C995.183 195.312 995.615 195.672 995.871 196.104C996.143 196.52 996.279 197.056 996.279 197.712C996.279 198.752 995.839 199.592 994.959 200.232C994.095 200.856 992.935 201.168 991.479 201.168ZM1003.99 201.168C1002.86 201.168 1001.86 200.92 1000.99 200.424C1000.14 199.928 999.481 199.224 999.001 198.312C998.537 197.4 998.305 196.344 998.305 195.144C998.305 193.928 998.545 192.856 999.025 191.928C999.521 191 1000.21 190.28 1001.09 189.768C1001.97 189.256 1002.98 189 1004.11 189C1004.72 189 1005.33 189.088 1005.94 189.264C1006.56 189.44 1007.11 189.68 1007.59 189.984C1008.1 190.336 1008.36 190.744 1008.36 191.208C1008.36 191.48 1008.29 191.712 1008.14 191.904C1008 192.08 1007.82 192.168 1007.59 192.168C1007.45 192.168 1007.3 192.136 1007.16 192.072C1007.02 191.992 1006.83 191.88 1006.61 191.736C1006.21 191.48 1005.83 191.288 1005.48 191.16C1005.14 191.016 1004.74 190.944 1004.26 190.944C1003.17 190.944 1002.32 191.312 1001.71 192.048C1001.12 192.784 1000.82 193.808 1000.82 195.12C1000.82 196.432 1001.12 197.448 1001.71 198.168C1002.3 198.872 1003.14 199.224 1004.23 199.224C1004.71 199.224 1005.14 199.152 1005.5 199.008C1005.87 198.864 1006.25 198.672 1006.63 198.432C1006.81 198.32 1006.98 198.224 1007.16 198.144C1007.34 198.064 1007.5 198.024 1007.64 198.024C1007.86 198.024 1008.05 198.12 1008.19 198.312C1008.34 198.488 1008.41 198.712 1008.41 198.984C1008.41 199.208 1008.34 199.416 1008.22 199.608C1008.1 199.784 1007.9 199.968 1007.62 200.16C1007.14 200.48 1006.58 200.728 1005.94 200.904C1005.3 201.08 1004.65 201.168 1003.99 201.168ZM1019.65 189.048C1020.02 189.048 1020.31 189.152 1020.51 189.36C1020.74 189.568 1020.85 189.856 1020.85 190.224V199.992C1020.85 200.328 1020.74 200.6 1020.51 200.808C1020.29 201.016 1019.99 201.12 1019.63 201.12C1019.29 201.12 1019.02 201.024 1018.81 200.832C1018.6 200.624 1018.5 200.352 1018.5 200.016V199.104C1018.13 199.776 1017.62 200.288 1016.96 200.64C1016.32 200.992 1015.6 201.168 1014.8 201.168C1011.95 201.168 1010.53 199.6 1010.53 196.464V190.224C1010.53 189.856 1010.63 189.568 1010.84 189.36C1011.07 189.152 1011.37 189.048 1011.75 189.048C1012.12 189.048 1012.41 189.152 1012.62 189.36C1012.84 189.568 1012.95 189.856 1012.95 190.224V196.44C1012.95 197.384 1013.15 198.08 1013.53 198.528C1013.91 198.976 1014.51 199.2 1015.31 199.2C1016.25 199.2 1017 198.896 1017.56 198.288C1018.14 197.68 1018.43 196.872 1018.43 195.864V190.224C1018.43 189.872 1018.54 189.592 1018.76 189.384C1018.99 189.16 1019.28 189.048 1019.65 189.048ZM1028.32 201.168C1026.69 201.168 1025.35 200.832 1024.31 200.16C1024.03 199.984 1023.82 199.8 1023.69 199.608C1023.58 199.416 1023.52 199.2 1023.52 198.96C1023.52 198.704 1023.59 198.488 1023.74 198.312C1023.88 198.136 1024.07 198.048 1024.29 198.048C1024.5 198.048 1024.83 198.176 1025.27 198.432C1025.75 198.688 1026.22 198.896 1026.67 199.056C1027.13 199.216 1027.71 199.296 1028.39 199.296C1029.16 199.296 1029.76 199.16 1030.19 198.888C1030.63 198.616 1030.84 198.232 1030.84 197.736C1030.84 197.416 1030.75 197.16 1030.58 196.968C1030.42 196.776 1030.13 196.608 1029.71 196.464C1029.3 196.304 1028.68 196.136 1027.87 195.96C1026.46 195.656 1025.44 195.248 1024.82 194.736C1024.21 194.208 1023.91 193.496 1023.91 192.6C1023.91 191.912 1024.11 191.296 1024.51 190.752C1024.91 190.192 1025.46 189.76 1026.16 189.456C1026.87 189.152 1027.67 189 1028.56 189C1029.2 189 1029.83 189.088 1030.43 189.264C1031.04 189.424 1031.58 189.664 1032.04 189.984C1032.57 190.336 1032.83 190.744 1032.83 191.208C1032.83 191.464 1032.75 191.68 1032.59 191.856C1032.45 192.032 1032.27 192.12 1032.07 192.12C1031.92 192.12 1031.78 192.088 1031.63 192.024C1031.49 191.96 1031.3 191.856 1031.06 191.712C1030.63 191.456 1030.22 191.256 1029.83 191.112C1029.47 190.968 1029 190.896 1028.44 190.896C1027.77 190.896 1027.23 191.04 1026.81 191.328C1026.41 191.616 1026.21 192.008 1026.21 192.504C1026.21 192.952 1026.39 193.304 1026.76 193.56C1027.15 193.8 1027.86 194.032 1028.9 194.256C1029.97 194.48 1030.81 194.736 1031.42 195.024C1032.03 195.312 1032.46 195.672 1032.71 196.104C1032.99 196.52 1033.12 197.056 1033.12 197.712C1033.12 198.752 1032.68 199.592 1031.8 200.232C1030.94 200.856 1029.78 201.168 1028.32 201.168ZM1039.9 201.168C1038.27 201.168 1036.93 200.832 1035.89 200.16C1035.6 199.984 1035.4 199.8 1035.27 199.608C1035.16 199.416 1035.1 199.2 1035.1 198.96C1035.1 198.704 1035.17 198.488 1035.32 198.312C1035.46 198.136 1035.64 198.048 1035.87 198.048C1036.08 198.048 1036.4 198.176 1036.85 198.432C1037.33 198.688 1037.8 198.896 1038.24 199.056C1038.71 199.216 1039.28 199.296 1039.97 199.296C1040.74 199.296 1041.34 199.16 1041.77 198.888C1042.2 198.616 1042.42 198.232 1042.42 197.736C1042.42 197.416 1042.33 197.16 1042.16 196.968C1042 196.776 1041.71 196.608 1041.29 196.464C1040.88 196.304 1040.26 196.136 1039.44 195.96C1038.04 195.656 1037.02 195.248 1036.4 194.736C1035.79 194.208 1035.48 193.496 1035.48 192.6C1035.48 191.912 1035.68 191.296 1036.08 190.752C1036.48 190.192 1037.04 189.76 1037.74 189.456C1038.44 189.152 1039.24 189 1040.14 189C1040.78 189 1041.4 189.088 1042.01 189.264C1042.62 189.424 1043.16 189.664 1043.62 189.984C1044.15 190.336 1044.41 190.744 1044.41 191.208C1044.41 191.464 1044.33 191.68 1044.17 191.856C1044.03 192.032 1043.85 192.12 1043.64 192.12C1043.5 192.12 1043.36 192.088 1043.21 192.024C1043.07 191.96 1042.88 191.856 1042.64 191.712C1042.2 191.456 1041.8 191.256 1041.41 191.112C1041.04 190.968 1040.58 190.896 1040.02 190.896C1039.35 190.896 1038.8 191.04 1038.39 191.328C1037.99 191.616 1037.79 192.008 1037.79 192.504C1037.79 192.952 1037.97 193.304 1038.34 193.56C1038.72 193.8 1039.44 194.032 1040.48 194.256C1041.55 194.48 1042.39 194.736 1043 195.024C1043.6 195.312 1044.04 195.672 1044.29 196.104C1044.56 196.52 1044.7 197.056 1044.7 197.712C1044.7 198.752 1044.26 199.592 1043.38 200.232C1042.52 200.856 1041.36 201.168 1039.9 201.168Z" fill="black"/>
<rect x="861" y="357" width="285" height="248.81" rx="20" fill="white"/>
<circle cx="870" cy="357" r="20" fill="#F7F4D7"/>
<path d="M874.816 358.888C875.024 358.888 875.184 358.952 875.296 359.08C875.408 359.192 875.464 359.344 875.464 359.536C875.464 359.728 875.4 359.88 875.272 359.992C875.16 360.104 875 360.16 874.792 360.16H872.656L872.392 363.424C872.376 363.632 872.296 363.8 872.152 363.928C872.008 364.056 871.84 364.12 871.648 364.12C871.44 364.12 871.264 364.048 871.12 363.904C870.976 363.76 870.912 363.576 870.928 363.352L871.192 360.16H863.872C863.648 360.16 863.456 360.104 863.296 359.992C863.152 359.88 863.08 359.728 863.08 359.536C863.08 359.36 863.16 359.168 863.32 358.96L872.272 347.32C872.48 347.064 872.72 346.936 872.992 346.936C873.2 346.936 873.36 347 873.472 347.128C873.6 347.256 873.656 347.432 873.64 347.656L872.752 358.888H874.816ZM864.976 358.888H871.288L872.008 349.744L864.976 358.888Z" fill="black"/>
<path d="M968.192 545C967.808 545 967.504 544.896 967.28 544.688C967.072 544.464 966.968 544.168 966.968 543.8V529.28C966.968 528.912 967.072 528.624 967.28 528.416C967.504 528.192 967.808 528.08 968.192 528.08H972.896C975.632 528.08 977.752 528.816 979.256 530.288C980.76 531.76 981.512 533.84 981.512 536.528C981.512 539.216 980.76 541.304 979.256 542.792C977.752 544.264 975.632 545 972.896 545H968.192ZM972.752 542.936C976.912 542.936 978.992 540.8 978.992 536.528C978.992 532.272 976.912 530.144 972.752 530.144H969.44V542.936H972.752ZM993.754 542.048C993.978 542.048 994.162 542.136 994.306 542.312C994.45 542.488 994.522 542.712 994.522 542.984C994.522 543.448 994.234 543.84 993.658 544.16C993.098 544.48 992.482 544.728 991.81 544.904C991.154 545.08 990.522 545.168 989.914 545.168C988.058 545.168 986.594 544.632 985.522 543.56C984.45 542.472 983.914 540.992 983.914 539.12C983.914 537.92 984.146 536.856 984.61 535.928C985.09 535 985.754 534.28 986.602 533.768C987.466 533.256 988.442 533 989.53 533C991.098 533 992.338 533.504 993.25 534.512C994.162 535.52 994.618 536.88 994.618 538.592C994.618 539.232 994.33 539.552 993.754 539.552H986.338C986.498 542.032 987.69 543.272 989.914 543.272C990.506 543.272 991.018 543.192 991.45 543.032C991.882 542.872 992.338 542.664 992.818 542.408C992.866 542.376 992.994 542.312 993.202 542.216C993.426 542.104 993.61 542.048 993.754 542.048ZM989.578 534.776C988.65 534.776 987.906 535.072 987.346 535.664C986.786 536.256 986.45 537.088 986.338 538.16H992.53C992.482 537.072 992.202 536.24 991.69 535.664C991.194 535.072 990.49 534.776 989.578 534.776ZM1001.37 545.168C999.737 545.168 998.401 544.832 997.361 544.16C997.073 543.984 996.865 543.8 996.737 543.608C996.625 543.416 996.569 543.2 996.569 542.96C996.569 542.704 996.641 542.488 996.785 542.312C996.929 542.136 997.113 542.048 997.337 542.048C997.545 542.048 997.873 542.176 998.321 542.432C998.801 542.688 999.265 542.896 999.713 543.056C1000.18 543.216 1000.75 543.296 1001.44 543.296C1002.21 543.296 1002.81 543.16 1003.24 542.888C1003.67 542.616 1003.89 542.232 1003.89 541.736C1003.89 541.416 1003.8 541.16 1003.63 540.968C1003.47 540.776 1003.18 540.608 1002.76 540.464C1002.35 540.304 1001.73 540.136 1000.91 539.96C999.505 539.656 998.489 539.248 997.865 538.736C997.257 538.208 996.953 537.496 996.953 536.6C996.953 535.912 997.153 535.296 997.553 534.752C997.953 534.192 998.505 533.76 999.209 533.456C999.913 533.152 1000.71 533 1001.61 533C1002.25 533 1002.87 533.088 1003.48 533.264C1004.09 533.424 1004.63 533.664 1005.09 533.984C1005.62 534.336 1005.88 534.744 1005.88 535.208C1005.88 535.464 1005.8 535.68 1005.64 535.856C1005.5 536.032 1005.32 536.12 1005.11 536.12C1004.97 536.12 1004.83 536.088 1004.68 536.024C1004.54 535.96 1004.35 535.856 1004.11 535.712C1003.67 535.456 1003.27 535.256 1002.88 535.112C1002.51 534.968 1002.05 534.896 1001.49 534.896C1000.82 534.896 1000.27 535.04 999.857 535.328C999.457 535.616 999.257 536.008 999.257 536.504C999.257 536.952 999.441 537.304 999.809 537.56C1000.19 537.8 1000.91 538.032 1001.95 538.256C1003.02 538.48 1003.86 538.736 1004.47 539.024C1005.07 539.312 1005.51 539.672 1005.76 540.104C1006.03 540.52 1006.17 541.056 1006.17 541.712C1006.17 542.752 1005.73 543.592 1004.85 544.232C1003.99 544.856 1002.83 545.168 1001.37 545.168ZM1010.09 545.12C1009.74 545.12 1009.44 545.024 1009.2 544.832C1008.98 544.64 1008.87 544.352 1008.87 543.968V534.224C1008.87 533.84 1008.98 533.552 1009.2 533.36C1009.44 533.152 1009.74 533.048 1010.09 533.048C1010.44 533.048 1010.73 533.152 1010.96 533.36C1011.18 533.552 1011.29 533.84 1011.29 534.224V543.968C1011.29 544.352 1011.18 544.64 1010.96 544.832C1010.73 545.024 1010.44 545.12 1010.09 545.12ZM1010.09 530.696C1009.63 530.696 1009.26 530.568 1008.99 530.312C1008.72 530.056 1008.58 529.72 1008.58 529.304C1008.58 528.888 1008.72 528.56 1008.99 528.32C1009.26 528.064 1009.63 527.936 1010.09 527.936C1010.54 527.936 1010.9 528.064 1011.17 528.32C1011.46 528.56 1011.6 528.888 1011.6 529.304C1011.6 529.72 1011.47 530.056 1011.2 530.312C1010.92 530.568 1010.56 530.696 1010.09 530.696ZM1024.38 533.048C1024.74 533.048 1025.03 533.16 1025.24 533.384C1025.46 533.592 1025.58 533.872 1025.58 534.224V544.064C1025.58 545.856 1025.1 547.208 1024.14 548.12C1023.19 549.032 1021.79 549.488 1019.94 549.488C1018.21 549.488 1016.77 549.16 1015.62 548.504C1015.02 548.168 1014.73 547.768 1014.73 547.304C1014.73 547.032 1014.8 546.808 1014.94 546.632C1015.1 546.456 1015.3 546.368 1015.52 546.368C1015.73 546.368 1016.06 546.488 1016.5 546.728C1017.08 547 1017.62 547.208 1018.11 547.352C1018.61 547.512 1019.2 547.592 1019.89 547.592C1022.1 547.592 1023.2 546.48 1023.2 544.256V542.408C1022.86 543.112 1022.35 543.664 1021.66 544.064C1020.98 544.448 1020.18 544.64 1019.26 544.64C1018.24 544.64 1017.33 544.4 1016.53 543.92C1015.73 543.44 1015.1 542.76 1014.66 541.88C1014.22 541 1014.01 539.984 1014.01 538.832C1014.01 537.68 1014.23 536.664 1014.68 535.784C1015.13 534.904 1015.74 534.224 1016.53 533.744C1017.33 533.248 1018.24 533 1019.26 533C1020.16 533 1020.94 533.192 1021.62 533.576C1022.3 533.96 1022.82 534.504 1023.18 535.208V534.2C1023.18 533.848 1023.28 533.568 1023.49 533.36C1023.71 533.152 1024.01 533.048 1024.38 533.048ZM1019.84 542.72C1020.88 542.72 1021.7 542.376 1022.29 541.688C1022.88 541 1023.18 540.048 1023.18 538.832C1023.18 537.632 1022.88 536.688 1022.29 536C1021.71 535.296 1020.9 534.944 1019.84 534.944C1018.78 534.944 1017.95 535.288 1017.34 535.976C1016.75 536.664 1016.46 537.616 1016.46 538.832C1016.46 540.048 1016.76 541 1017.37 541.688C1017.98 542.376 1018.8 542.72 1019.84 542.72ZM1035.27 533C1038.07 533 1039.47 534.576 1039.47 537.728V543.968C1039.47 544.336 1039.35 544.624 1039.13 544.832C1038.92 545.024 1038.63 545.12 1038.24 545.12C1037.87 545.12 1037.58 545.016 1037.35 544.808C1037.15 544.6 1037.04 544.32 1037.04 543.968V537.848C1037.04 536.856 1036.84 536.128 1036.44 535.664C1036.06 535.2 1035.45 534.968 1034.62 534.968C1033.64 534.968 1032.86 535.272 1032.27 535.88C1031.67 536.488 1031.38 537.304 1031.38 538.328V543.968C1031.38 544.32 1031.27 544.6 1031.04 544.808C1030.83 545.016 1030.55 545.12 1030.18 545.12C1029.81 545.12 1029.51 545.016 1029.29 544.808C1029.07 544.6 1028.95 544.32 1028.95 543.968V534.2C1028.95 533.864 1029.07 533.592 1029.29 533.384C1029.53 533.16 1029.83 533.048 1030.18 533.048C1030.53 533.048 1030.81 533.152 1031.02 533.36C1031.23 533.568 1031.33 533.84 1031.33 534.176V535.16C1031.71 534.456 1032.25 533.92 1032.94 533.552C1033.63 533.184 1034.4 533 1035.27 533Z" fill="black"/>
<rect x="466" y="357" width="285" height="248.81" rx="20" fill="white"/>
<circle cx="478" cy="357" r="20" fill="#F7F4D7"/>
<path d="M474.776 348.352L474.248 355C474.712 354.52 475.28 354.152 475.952 353.896C476.624 353.624 477.328 353.488 478.064 353.488C479.056 353.488 479.928 353.696 480.68 354.112C481.448 354.512 482.04 355.08 482.456 355.816C482.872 356.552 483.08 357.4 483.08 358.36C483.08 359.496 482.832 360.504 482.336 361.384C481.856 362.264 481.176 362.952 480.296 363.448C479.416 363.928 478.408 364.168 477.272 364.168C476.312 364.168 475.376 364 474.464 363.664C473.568 363.328 472.8 362.872 472.16 362.296C471.968 362.12 471.872 361.912 471.872 361.672C471.872 361.496 471.928 361.344 472.04 361.216C472.168 361.072 472.32 361 472.496 361C472.704 361 472.888 361.072 473.048 361.216C474.36 362.32 475.784 362.872 477.32 362.872C478.616 362.872 479.648 362.472 480.416 361.672C481.184 360.856 481.568 359.776 481.568 358.432C481.568 357.328 481.232 356.448 480.56 355.792C479.904 355.12 479.032 354.784 477.944 354.784C476.264 354.784 474.92 355.432 473.912 356.728C473.752 356.92 473.544 357.016 473.288 357.016C473.096 357.016 472.936 356.952 472.808 356.824C472.696 356.68 472.648 356.48 472.664 356.224L473.336 347.824C473.352 347.6 473.432 347.424 473.576 347.296C473.72 347.152 473.904 347.08 474.128 347.08H482.744C482.968 347.08 483.136 347.136 483.248 347.248C483.376 347.36 483.44 347.512 483.44 347.704C483.44 347.912 483.376 348.072 483.248 348.184C483.136 348.296 482.968 348.352 482.744 348.352H474.776Z" fill="black"/>
<g clip-path="url(#clip3)">
<path d="M593.277 405.32H577.652C576.034 405.32 574.723 406.632 574.723 408.25C574.723 409.868 576.034 411.18 577.652 411.18H593.277C594.895 411.18 596.207 409.868 596.207 408.25C596.207 406.632 594.895 405.32 593.277 405.32Z" fill="url(#paint12_linear)"/>
<path d="M593.277 420.945H577.652C576.034 420.945 574.723 422.257 574.723 423.875C574.723 425.493 576.034 426.805 577.652 426.805H593.277C594.895 426.805 596.207 425.493 596.207 423.875C596.207 422.257 594.895 420.945 593.277 420.945Z" fill="url(#paint13_linear)"/>
<path d="M593.277 436.57H577.652C576.034 436.57 574.723 437.882 574.723 439.5C574.723 441.118 576.034 442.43 577.652 442.43H593.277C594.895 442.43 596.207 441.118 596.207 439.5C596.207 437.882 594.895 436.57 593.277 436.57Z" fill="url(#paint14_linear)"/>
<path d="M635.27 430.697V403.949C635.27 400.088 633.781 396.445 631.077 393.69L619.19 381.397C619.184 381.391 619.179 381.385 619.173 381.379C616.436 378.596 612.628 377 608.725 377H571.012C566.165 377 562.223 380.943 562.223 385.789V461.766C562.223 466.612 566.165 470.555 571.012 470.555H616.292C620.467 474.546 626.122 477 632.34 477C645.263 477 655.777 466.574 655.777 453.758C655.777 441.926 646.815 432.131 635.27 430.697ZM568.082 461.766V385.789C568.082 384.174 569.396 382.859 571.012 382.859H608.725C611.063 382.859 613.345 383.815 614.988 385.48L626.872 397.771C626.878 397.777 626.884 397.783 626.889 397.788C628.515 399.442 629.41 401.63 629.41 403.949V430.7C617.972 432.145 609.098 441.934 609.098 453.758C609.098 457.71 610.09 461.434 611.837 464.696H571.012C569.396 464.695 568.082 463.381 568.082 461.766ZM632.34 471.141C622.755 471.141 614.957 463.343 614.957 453.758C614.957 444.173 622.755 436.375 632.34 436.375C642.032 436.375 649.918 444.173 649.918 453.758C649.918 463.343 642.032 471.141 632.34 471.141Z" fill="url(#paint15_linear)"/>
<path d="M639.098 446.82C637.856 445.784 636.008 445.952 634.972 447.195L630.027 453.129L628.906 450.885C628.182 449.438 626.422 448.851 624.975 449.575C623.528 450.299 622.941 452.059 623.665 453.506L626.79 459.756C627.232 460.64 628.091 461.242 629.073 461.356C629.186 461.369 629.298 461.375 629.411 461.375C630.274 461.375 631.101 460.993 631.661 460.321L639.474 450.946C640.509 449.703 640.341 447.855 639.098 446.82Z" fill="url(#paint16_linear)"/>
<path d="M608.902 411.18H612.027C613.645 411.18 614.957 409.868 614.957 408.25C614.957 406.632 613.645 405.32 612.027 405.32H608.902C607.284 405.32 605.973 406.632 605.973 408.25C605.973 409.868 607.284 411.18 608.902 411.18Z" fill="url(#paint17_linear)"/>
<path d="M614.957 423.875C614.957 422.257 613.645 420.945 612.027 420.945H608.902C607.284 420.945 605.973 422.257 605.973 423.875C605.973 425.493 607.284 426.805 608.902 426.805H612.027C613.645 426.805 614.957 425.493 614.957 423.875Z" fill="url(#paint18_linear)"/>
</g>
<path d="M593.248 545.12C592.88 545.12 592.576 545.008 592.336 544.784C592.112 544.544 592 544.24 592 543.872V530.144H587.2C586.432 530.144 586.048 529.8 586.048 529.112C586.048 528.776 586.144 528.52 586.336 528.344C586.544 528.168 586.832 528.08 587.2 528.08H599.296C599.664 528.08 599.944 528.168 600.136 528.344C600.344 528.52 600.448 528.776 600.448 529.112C600.448 529.8 600.064 530.144 599.296 530.144H594.496V543.872C594.496 544.24 594.384 544.544 594.16 544.784C593.936 545.008 593.632 545.12 593.248 545.12ZM609.528 542.048C609.752 542.048 609.936 542.136 610.08 542.312C610.224 542.488 610.296 542.712 610.296 542.984C610.296 543.448 610.008 543.84 609.432 544.16C608.872 544.48 608.256 544.728 607.584 544.904C606.928 545.08 606.296 545.168 605.688 545.168C603.832 545.168 602.368 544.632 601.296 543.56C600.224 542.472 599.688 540.992 599.688 539.12C599.688 537.92 599.92 536.856 600.384 535.928C600.864 535 601.528 534.28 602.376 533.768C603.24 533.256 604.216 533 605.304 533C606.872 533 608.112 533.504 609.024 534.512C609.936 535.52 610.392 536.88 610.392 538.592C610.392 539.232 610.104 539.552 609.528 539.552H602.112C602.272 542.032 603.464 543.272 605.688 543.272C606.28 543.272 606.792 543.192 607.224 543.032C607.656 542.872 608.112 542.664 608.592 542.408C608.64 542.376 608.768 542.312 608.976 542.216C609.2 542.104 609.384 542.048 609.528 542.048ZM605.352 534.776C604.424 534.776 603.68 535.072 603.12 535.664C602.56 536.256 602.224 537.088 602.112 538.16H608.304C608.256 537.072 607.976 536.24 607.464 535.664C606.968 535.072 606.264 534.776 605.352 534.776ZM617.143 545.168C615.511 545.168 614.175 544.832 613.135 544.16C612.847 543.984 612.639 543.8 612.511 543.608C612.399 543.416 612.343 543.2 612.343 542.96C612.343 542.704 612.415 542.488 612.559 542.312C612.703 542.136 612.887 542.048 613.111 542.048C613.319 542.048 613.647 542.176 614.095 542.432C614.575 542.688 615.039 542.896 615.487 543.056C615.951 543.216 616.527 543.296 617.215 543.296C617.983 543.296 618.583 543.16 619.015 542.888C619.447 542.616 619.663 542.232 619.663 541.736C619.663 541.416 619.575 541.16 619.399 540.968C619.239 540.776 618.951 540.608 618.535 540.464C618.119 540.304 617.503 540.136 616.687 539.96C615.279 539.656 614.263 539.248 613.639 538.736C613.031 538.208 612.727 537.496 612.727 536.6C612.727 535.912 612.927 535.296 613.327 534.752C613.727 534.192 614.279 533.76 614.983 533.456C615.687 533.152 616.487 533 617.383 533C618.023 533 618.647 533.088 619.255 533.264C619.863 533.424 620.399 533.664 620.863 533.984C621.391 534.336 621.655 534.744 621.655 535.208C621.655 535.464 621.575 535.68 621.415 535.856C621.271 536.032 621.095 536.12 620.887 536.12C620.743 536.12 620.599 536.088 620.455 536.024C620.311 535.96 620.119 535.856 619.879 535.712C619.447 535.456 619.039 535.256 618.655 535.112C618.287 534.968 617.823 534.896 617.263 534.896C616.591 534.896 616.047 535.04 615.631 535.328C615.231 535.616 615.031 536.008 615.031 536.504C615.031 536.952 615.215 537.304 615.583 537.56C615.967 537.8 616.679 538.032 617.719 538.256C618.791 538.48 619.631 538.736 620.239 539.024C620.847 539.312 621.279 539.672 621.535 540.104C621.807 540.52 621.943 541.056 621.943 541.712C621.943 542.752 621.503 543.592 620.623 544.232C619.759 544.856 618.599 545.168 617.143 545.168ZM630.26 543.272C630.612 543.304 630.86 543.4 631.004 543.56C631.164 543.704 631.244 543.912 631.244 544.184C631.244 544.504 631.116 544.752 630.86 544.928C630.62 545.088 630.26 545.152 629.78 545.12L629.132 545.072C627.836 544.976 626.868 544.584 626.228 543.896C625.588 543.192 625.268 542.16 625.268 540.8V535.16H623.828C623.124 535.16 622.772 534.848 622.772 534.224C622.772 533.936 622.86 533.712 623.036 533.552C623.228 533.376 623.492 533.288 623.828 533.288H625.268V530.816C625.268 530.448 625.372 530.16 625.58 529.952C625.804 529.744 626.1 529.64 626.468 529.64C626.836 529.64 627.132 529.744 627.356 529.952C627.58 530.16 627.692 530.448 627.692 530.816V533.288H630.068C630.404 533.288 630.66 533.376 630.836 533.552C631.028 533.712 631.124 533.936 631.124 534.224C631.124 534.528 631.028 534.76 630.836 534.92C630.66 535.08 630.404 535.16 630.068 535.16H627.692V540.968C627.692 541.72 627.844 542.272 628.148 542.624C628.468 542.976 628.948 543.176 629.588 543.224L630.26 543.272Z" fill="black"/>
<rect x="71" y="357" width="285" height="248.81" rx="20" fill="white"/>
<circle cx="78" cy="357" r="20" fill="#F7F4D7"/>
<path d="M83.584 348.88C83.776 349.088 83.872 349.304 83.872 349.528C83.872 349.72 83.816 349.88 83.704 350.008C83.592 350.136 83.448 350.2 83.272 350.2C83.096 350.2 82.896 350.104 82.672 349.912C82.112 349.368 81.472 348.944 80.752 348.64C80.048 348.336 79.312 348.184 78.544 348.184C77.008 348.184 75.768 348.832 74.824 350.128C73.896 351.408 73.336 353.248 73.144 355.648L73.072 356.512C73.504 355.584 74.136 354.848 74.968 354.304C75.8 353.76 76.744 353.488 77.8 353.488C78.84 353.488 79.76 353.704 80.56 354.136C81.36 354.552 81.976 355.152 82.408 355.936C82.84 356.704 83.056 357.592 83.056 358.6C83.056 359.672 82.816 360.632 82.336 361.48C81.872 362.328 81.216 362.992 80.368 363.472C79.536 363.952 78.6 364.192 77.56 364.192C75.656 364.192 74.184 363.568 73.144 362.32C72.12 361.072 71.608 359.288 71.608 356.968C71.608 354.936 71.888 353.16 72.448 351.64C73.024 350.12 73.832 348.952 74.872 348.136C75.928 347.304 77.152 346.888 78.544 346.888C79.536 346.888 80.464 347.056 81.328 347.392C82.208 347.728 82.96 348.224 83.584 348.88ZM77.632 354.784C76.848 354.784 76.136 354.968 75.496 355.336C74.872 355.688 74.384 356.192 74.032 356.848C73.68 357.488 73.504 358.208 73.504 359.008C73.504 360.176 73.872 361.12 74.608 361.84C75.36 362.544 76.344 362.896 77.56 362.896C78.744 362.896 79.704 362.504 80.44 361.72C81.176 360.92 81.544 359.88 81.544 358.6C81.544 357.448 81.184 356.528 80.464 355.84C79.76 355.136 78.816 354.784 77.632 354.784Z" fill="black"/>
<path d="M178.192 545C177.808 545 177.504 544.896 177.28 544.688C177.072 544.464 176.968 544.168 176.968 543.8V529.28C176.968 528.912 177.072 528.624 177.28 528.416C177.504 528.192 177.808 528.08 178.192 528.08H182.896C185.632 528.08 187.752 528.816 189.256 530.288C190.76 531.76 191.512 533.84 191.512 536.528C191.512 539.216 190.76 541.304 189.256 542.792C187.752 544.264 185.632 545 182.896 545H178.192ZM182.752 542.936C186.912 542.936 188.992 540.8 188.992 536.528C188.992 532.272 186.912 530.144 182.752 530.144H179.44V542.936H182.752ZM203.754 542.048C203.978 542.048 204.162 542.136 204.306 542.312C204.45 542.488 204.522 542.712 204.522 542.984C204.522 543.448 204.234 543.84 203.658 544.16C203.098 544.48 202.482 544.728 201.81 544.904C201.154 545.08 200.522 545.168 199.914 545.168C198.058 545.168 196.594 544.632 195.522 543.56C194.45 542.472 193.914 540.992 193.914 539.12C193.914 537.92 194.146 536.856 194.61 535.928C195.09 535 195.754 534.28 196.602 533.768C197.466 533.256 198.442 533 199.53 533C201.098 533 202.338 533.504 203.25 534.512C204.162 535.52 204.618 536.88 204.618 538.592C204.618 539.232 204.33 539.552 203.754 539.552H196.338C196.498 542.032 197.69 543.272 199.914 543.272C200.506 543.272 201.018 543.192 201.45 543.032C201.882 542.872 202.338 542.664 202.818 542.408C202.866 542.376 202.994 542.312 203.202 542.216C203.426 542.104 203.61 542.048 203.754 542.048ZM199.578 534.776C198.65 534.776 197.906 535.072 197.346 535.664C196.786 536.256 196.45 537.088 196.338 538.16H202.53C202.482 537.072 202.202 536.24 201.69 535.664C201.194 535.072 200.49 534.776 199.578 534.776ZM213.577 533C214.585 533 215.481 533.256 216.265 533.768C217.065 534.28 217.681 535 218.113 535.928C218.561 536.856 218.785 537.928 218.785 539.144C218.785 540.344 218.569 541.4 218.137 542.312C217.705 543.224 217.089 543.928 216.289 544.424C215.505 544.92 214.601 545.168 213.577 545.168C212.697 545.168 211.921 544.984 211.249 544.616C210.577 544.232 210.065 543.688 209.713 542.984V548.336C209.713 548.672 209.601 548.936 209.377 549.128C209.169 549.336 208.889 549.44 208.537 549.44C208.169 549.44 207.865 549.336 207.625 549.128C207.401 548.92 207.289 548.64 207.289 548.288V534.224C207.289 533.872 207.401 533.592 207.625 533.384C207.849 533.16 208.145 533.048 208.513 533.048C208.865 533.048 209.153 533.16 209.377 533.384C209.601 533.592 209.713 533.872 209.713 534.224V535.208C210.065 534.504 210.577 533.96 211.249 533.576C211.921 533.192 212.697 533 213.577 533ZM213.001 543.248C214.057 543.248 214.873 542.896 215.449 542.192C216.025 541.472 216.313 540.456 216.313 539.144C216.313 537.816 216.017 536.784 215.425 536.048C214.849 535.312 214.041 534.944 213.001 534.944C211.945 534.944 211.129 535.304 210.553 536.024C209.993 536.744 209.713 537.768 209.713 539.096C209.713 540.424 209.993 541.448 210.553 542.168C211.129 542.888 211.945 543.248 213.001 543.248ZM222.693 545.12C222.341 545.12 222.045 545.024 221.805 544.832C221.581 544.64 221.469 544.352 221.469 543.968V529.136C221.469 528.752 221.581 528.464 221.805 528.272C222.045 528.064 222.341 527.96 222.693 527.96C223.045 527.96 223.333 528.064 223.557 528.272C223.781 528.464 223.893 528.752 223.893 529.136V543.968C223.893 544.352 223.781 544.64 223.557 544.832C223.333 545.024 223.045 545.12 222.693 545.12ZM232.37 545.168C231.218 545.168 230.202 544.92 229.322 544.424C228.458 543.928 227.786 543.224 227.306 542.312C226.842 541.384 226.61 540.312 226.61 539.096C226.61 537.864 226.842 536.792 227.306 535.88C227.786 534.952 228.458 534.24 229.322 533.744C230.202 533.248 231.218 533 232.37 533C233.522 533 234.53 533.248 235.394 533.744C236.274 534.24 236.946 534.952 237.41 535.88C237.89 536.792 238.13 537.864 238.13 539.096C238.13 540.312 237.89 541.384 237.41 542.312C236.946 543.224 236.274 543.928 235.394 544.424C234.53 544.92 233.522 545.168 232.37 545.168ZM232.37 543.248C233.442 543.248 234.258 542.896 234.818 542.192C235.394 541.488 235.682 540.456 235.682 539.096C235.682 537.752 235.394 536.728 234.818 536.024C234.242 535.304 233.426 534.944 232.37 534.944C231.314 534.944 230.498 535.304 229.922 536.024C229.346 536.728 229.058 537.752 229.058 539.096C229.058 540.456 229.338 541.488 229.898 542.192C230.474 542.896 231.298 543.248 232.37 543.248ZM248.992 533.768C249.088 533.528 249.224 533.352 249.4 533.24C249.592 533.128 249.792 533.072 250 533.072C250.304 533.072 250.568 533.176 250.792 533.384C251.032 533.592 251.152 533.84 251.152 534.128C251.152 534.288 251.12 534.44 251.056 534.584L244.384 548.744C244.288 548.968 244.144 549.136 243.952 549.248C243.776 549.376 243.584 549.44 243.376 549.44C243.088 549.44 242.824 549.344 242.584 549.152C242.36 548.96 242.248 548.72 242.248 548.432C242.248 548.304 242.288 548.144 242.368 547.952L244.024 544.424L239.392 534.584C239.328 534.456 239.296 534.312 239.296 534.152C239.296 533.848 239.424 533.592 239.68 533.384C239.936 533.176 240.224 533.072 240.544 533.072C241.024 533.072 241.368 533.296 241.576 533.744L245.296 542L248.992 533.768Z" fill="black"/>
<defs>
<linearGradient id="paint0_linear" x1="216.846" y1="99.0864" x2="216.846" y2="102.017" gradientUnits="userSpaceOnUse">
<stop stop-color="#5DBCD2"/>
<stop offset="1" stop-color="#2A99BF"/>
</linearGradient>
<linearGradient id="paint1_linear" x1="216.846" y1="107.117" x2="216.846" y2="110.047" gradientUnits="userSpaceOnUse">
<stop stop-color="#5DBCD2"/>
<stop offset="1" stop-color="#2A99BF"/>
</linearGradient>
<linearGradient id="paint2_linear" x1="216.846" y1="55.9526" x2="216.846" y2="92.7052" gradientUnits="userSpaceOnUse">
<stop stop-color="#5DBCD2"/>
<stop offset="1" stop-color="#2A99BF"/>
</linearGradient>
<linearGradient id="paint3_linear" x1="207" y1="33" x2="207" y2="132.999" gradientUnits="userSpaceOnUse">
<stop stop-color="#5DBCD2"/>
<stop offset="1" stop-color="#2A99BF"/>
</linearGradient>
<linearGradient id="paint4_linear" x1="605" y1="33" x2="605" y2="133" gradientUnits="userSpaceOnUse">
<stop stop-color="#5DBCD2"/>
<stop offset="1" stop-color="#2A99BF"/>
</linearGradient>
<linearGradient id="paint5_linear" x1="573.359" y1="101.359" x2="573.359" y2="105.266" gradientUnits="userSpaceOnUse">
<stop stop-color="#5DBCD2"/>
<stop offset="1" stop-color="#2A99BF"/>
</linearGradient>
<linearGradient id="paint6_linear" x1="587.795" y1="47.8083" x2="587.795" y2="99.4062" gradientUnits="userSpaceOnUse">
<stop stop-color="#5DBCD2"/>
<stop offset="1" stop-color="#2A99BF"/>
</linearGradient>
<linearGradient id="paint7_linear" x1="615.74" y1="94.6416" x2="615.74" y2="125.175" gradientUnits="userSpaceOnUse">
<stop stop-color="#5DBCD2"/>
<stop offset="1" stop-color="#2A99BF"/>
</linearGradient>
<linearGradient id="paint8_linear" x1="625.644" y1="78.8984" x2="625.644" y2="82.8047" gradientUnits="userSpaceOnUse">
<stop stop-color="#5DBCD2"/>
<stop offset="1" stop-color="#2A99BF"/>
</linearGradient>
<linearGradient id="paint9_linear" x1="639.691" y1="78.8984" x2="639.691" y2="82.8047" gradientUnits="userSpaceOnUse">
<stop stop-color="#5DBCD2"/>
<stop offset="1" stop-color="#2A99BF"/>
</linearGradient>
<linearGradient id="paint10_linear" x1="632.419" y1="60.1484" x2="632.419" y2="64.0547" gradientUnits="userSpaceOnUse">
<stop stop-color="#5DBCD2"/>
<stop offset="1" stop-color="#2A99BF"/>
</linearGradient>
<linearGradient id="paint11_linear" x1="632.419" y1="69.5234" x2="632.419" y2="73.4297" gradientUnits="userSpaceOnUse">
<stop stop-color="#5DBCD2"/>
<stop offset="1" stop-color="#2A99BF"/>
</linearGradient>
<linearGradient id="paint12_linear" x1="585.465" y1="405.32" x2="585.465" y2="411.18" gradientUnits="userSpaceOnUse">
<stop stop-color="#5DBCD2"/>
<stop offset="1" stop-color="#2A99BF"/>
</linearGradient>
<linearGradient id="paint13_linear" x1="585.465" y1="420.945" x2="585.465" y2="426.805" gradientUnits="userSpaceOnUse">
<stop stop-color="#5DBCD2"/>
<stop offset="1" stop-color="#2A99BF"/>
</linearGradient>
<linearGradient id="paint14_linear" x1="585.465" y1="436.57" x2="585.465" y2="442.43" gradientUnits="userSpaceOnUse">
<stop stop-color="#5DBCD2"/>
<stop offset="1" stop-color="#2A99BF"/>
</linearGradient>
<linearGradient id="paint15_linear" x1="609" y1="377" x2="609" y2="477" gradientUnits="userSpaceOnUse">
<stop stop-color="#5DBCD2"/>
<stop offset="1" stop-color="#2A99BF"/>
</linearGradient>
<linearGradient id="paint16_linear" x1="631.754" y1="446.141" x2="631.754" y2="461.375" gradientUnits="userSpaceOnUse">
<stop stop-color="#5DBCD2"/>
<stop offset="1" stop-color="#2A99BF"/>
</linearGradient>
<linearGradient id="paint17_linear" x1="610.465" y1="405.32" x2="610.465" y2="411.18" gradientUnits="userSpaceOnUse">
<stop stop-color="#5DBCD2"/>
<stop offset="1" stop-color="#2A99BF"/>
</linearGradient>
<linearGradient id="paint18_linear" x1="610.465" y1="420.945" x2="610.465" y2="426.805" gradientUnits="userSpaceOnUse">
<stop stop-color="#5DBCD2"/>
<stop offset="1" stop-color="#2A99BF"/>
</linearGradient>
<clipPath id="clip0">
<rect width="100" height="260" fill="white" transform="translate(701 7)"/>
</clipPath>
<clipPath id="clip1">
<rect width="262.588" height="266.328" fill="white" transform="translate(1334 308.322) rotate(135)"/>
</clipPath>
<clipPath id="clip2">
<rect width="200" height="200" fill="white" transform="translate(0 391)"/>
</clipPath>
<clipPath id="clip3">
<rect width="100" height="100" fill="white" transform="translate(559 377)"/>
</clipPath>
</defs>
</svg>
