<svg width="298" height="2214" viewBox="0 0 298 2214" fill="none" xmlns="http://www.w3.org/2000/svg">
<path d="M145.438 0V100H165.438V0H145.438Z" fill="#455255"/>
<path d="M145.438 238V338H165.438V238H145.438Z" fill="#455255"/>
<path d="M145.438 333V433H165.438V333H145.438Z" fill="#455255"/>
<path d="M145.438 592V692H165.438V592H145.438Z" fill="#455255"/>
<path d="M145.438 692V792H165.438V692H145.438Z" fill="#455255"/>
<path d="M145.438 966V1066H165.438V966H145.438Z" fill="#455255"/>
<path d="M145.438 1065V1165H165.438V1065H145.438Z" fill="#455255"/>
<path d="M145.438 1267V1367H165.438V1267H145.438Z" fill="#455255"/>
<path d="M145.438 1365V1465H165.438V1365H145.438Z" fill="#455255"/>
<path d="M145.438 1610V1710H165.438V1610H145.438Z" fill="#455255"/>
<path d="M145.438 1710V1810H165.438V1710H145.438Z" fill="#455255"/>
<path d="M140.625 1921.81V2087.26L113.35 2059.86C110.306 2056.8 105.36 2056.79 102.302 2059.83C99.2429 2062.87 99.2316 2067.82 102.275 2070.88L142.9 2111.7C142.902 2111.7 142.905 2111.71 142.907 2111.71C145.951 2114.76 150.914 2114.77 153.968 2111.71C153.97 2111.71 153.973 2111.7 153.975 2111.7L194.6 2070.88C197.643 2067.82 197.632 2062.88 194.573 2059.83C191.515 2056.79 186.569 2056.8 183.525 2059.86L156.25 2087.26V1921.81C156.25 1917.5 152.752 1914 148.437 1914C144.123 1914 140.625 1917.5 140.625 1921.81Z" fill="#455255"/>
<rect x="13" y="50.0095" width="285" height="248.991" rx="20" fill="white"/>
<ellipse cx="20" cy="57.0145" rx="20" ry="20.0146" fill="#F7F4D7"/>
<path d="M23.328 62.7062C23.52 62.7062 23.672 62.7702 23.784 62.8982C23.912 63.0102 23.976 63.1622 23.976 63.3542C23.976 63.5462 23.912 63.7062 23.784 63.8342C23.672 63.9462 23.512 64.0022 23.304 64.0022H15.408C15.216 64.0022 15.056 63.9462 14.928 63.8342C14.816 63.7062 14.76 63.5542 14.76 63.3782C14.76 63.1862 14.816 63.0262 14.928 62.8982C15.056 62.7702 15.224 62.7062 15.432 62.7062H18.672L19.776 48.9782L17.064 50.6342C16.952 50.6982 16.832 50.7302 16.704 50.7302C16.512 50.7302 16.352 50.6662 16.224 50.5382C16.096 50.3942 16.032 50.2262 16.032 50.0342C16.032 49.7942 16.144 49.6102 16.368 49.4822L20.184 47.0822C20.36 46.9702 20.544 46.9142 20.736 46.9142C20.928 46.9142 21.08 46.9782 21.192 47.1062C21.304 47.2182 21.352 47.3622 21.336 47.5382L20.136 62.7062H23.328Z" fill="black"/>
<g clip-path="url(#clip0)">
<path d="M180.27 136.158H151.422C150.613 136.158 149.957 136.815 149.957 137.625C149.957 138.435 150.613 139.091 151.422 139.091H180.27C181.079 139.091 181.735 138.435 181.735 137.625C181.735 136.815 181.079 136.158 180.27 136.158Z" fill="url(#paint0_linear)"/>
<path d="M180.27 144.195H151.422C150.613 144.195 149.957 144.851 149.957 145.661C149.957 146.471 150.613 147.127 151.422 147.127H180.27C181.079 147.127 181.735 146.471 181.735 145.661C181.735 144.851 181.079 144.195 180.27 144.195Z" fill="url(#paint1_linear)"/>
<path d="M181.736 98.5246C181.736 95.4745 179.256 92.9934 176.208 92.9934H155.484C152.436 92.9934 149.957 95.4747 149.957 98.5246V99.8013C149.957 100.611 150.613 101.268 151.422 101.268C152.231 101.268 152.887 100.611 152.887 99.8013V98.5246C152.887 97.0917 154.052 95.9262 155.484 95.9262H176.208C177.64 95.9262 178.805 97.0919 178.805 98.5246V120.06C177.066 117.893 174.804 116.187 172.206 115.115C173.195 113.791 173.781 112.149 173.781 110.372C173.781 105.993 170.221 102.431 165.846 102.431C161.47 102.431 157.91 105.993 157.91 110.372C157.91 112.149 158.497 113.791 159.485 115.115C156.888 116.187 154.626 117.893 152.887 120.06V106.657C152.887 105.847 152.231 105.191 151.422 105.191C150.613 105.191 149.957 105.847 149.957 106.657V124.241C149.957 127.291 152.436 129.773 155.484 129.773H176.208C179.256 129.773 181.735 127.291 181.735 124.241V98.5246H181.736ZM165.846 105.364C168.606 105.364 170.851 107.61 170.851 110.372C170.851 113.134 168.606 115.381 165.846 115.381C163.086 115.381 160.841 113.134 160.841 110.372C160.841 107.61 163.086 105.364 165.846 105.364ZM176.208 126.84H155.484C154.454 126.84 153.565 126.235 153.145 125.363C154.722 121.449 157.985 118.499 162.026 117.33C163.16 117.956 164.462 118.313 165.846 118.313C167.23 118.313 168.532 117.956 169.666 117.33C173.707 118.499 176.971 121.449 178.547 125.363C178.128 126.235 177.238 126.84 176.208 126.84Z" fill="url(#paint2_linear)"/>
<path d="M195.901 152.777C196.711 152.777 197.367 152.121 197.367 151.311V75.6356C197.367 72.5414 194.851 70.0239 191.759 70.0239H127.421C124.329 70.0239 121.813 72.5414 121.813 75.6356V80.4151H119.583C116.854 80.4151 114.633 82.6372 114.633 85.3683C114.633 88.0996 116.854 90.3217 119.583 90.3217H121.813V97.7607H119.583C116.854 97.7607 114.633 99.9828 114.633 102.714C114.633 105.445 116.854 107.668 119.583 107.668H121.813V115.107H119.583C116.854 115.107 114.633 117.329 114.633 120.06C114.633 122.791 116.854 125.013 119.583 125.013H121.813V132.452H119.583C116.854 132.452 114.633 134.674 114.633 137.406C114.633 140.137 116.854 142.359 119.583 142.359H121.813V149.798H119.583C116.854 149.798 114.633 152.02 114.633 154.752C114.633 157.483 116.854 159.705 119.583 159.705H121.813V164.484C121.813 167.578 124.329 170.096 127.421 170.096H191.759C194.851 170.096 197.367 167.578 197.367 164.484V158.18C197.367 157.37 196.711 156.714 195.901 156.714C195.092 156.714 194.436 157.37 194.436 158.18V164.485C194.436 165.962 193.235 167.164 191.759 167.164H139.68V72.9567H191.758C193.235 72.9567 194.436 74.1584 194.436 75.6358V151.311C194.436 152.121 195.092 152.777 195.901 152.777V152.777ZM119.583 87.3891C118.47 87.3891 117.564 86.4826 117.564 85.3685C117.564 84.2544 118.47 83.3481 119.583 83.3481H126.974C128.088 83.3481 128.993 84.2544 128.993 85.3685C128.993 86.4826 128.088 87.3891 126.974 87.3891H119.583ZM119.583 104.735C118.47 104.735 117.564 103.829 117.564 102.714C117.564 101.6 118.47 100.694 119.583 100.694H123.275C123.276 100.694 123.277 100.694 123.279 100.694C123.28 100.694 123.281 100.694 123.282 100.694H126.974C128.087 100.694 128.993 101.6 128.993 102.714C128.993 103.829 128.087 104.735 126.974 104.735H119.583ZM119.583 122.081C118.47 122.081 117.564 121.174 117.564 120.06C117.564 118.946 118.47 118.04 119.583 118.04H126.974C128.088 118.04 128.993 118.946 128.993 120.06C128.993 121.174 128.088 122.081 126.974 122.081H119.583ZM119.583 139.427C118.47 139.427 117.564 138.52 117.564 137.406C117.564 136.292 118.47 135.386 119.583 135.386H126.974C128.088 135.386 128.993 136.292 128.993 137.406C128.993 138.52 128.088 139.427 126.974 139.427H119.583ZM119.583 156.773C118.47 156.773 117.564 155.866 117.564 154.752C117.564 153.638 118.47 152.732 119.583 152.732H126.974C128.088 152.732 128.993 153.638 128.993 154.752C128.993 155.866 128.088 156.773 126.974 156.773H119.583ZM136.75 167.164H127.421C125.945 167.164 124.744 165.962 124.744 164.485V159.705H126.974C129.704 159.705 131.924 157.483 131.924 154.752C131.924 152.021 129.704 149.799 126.974 149.799H124.744V142.36H126.974C129.704 142.36 131.924 140.138 131.924 137.406C131.924 134.675 129.704 132.453 126.974 132.453H124.744V125.014H126.974C129.704 125.014 131.924 122.792 131.924 120.061C131.924 117.329 129.704 115.107 126.974 115.107H124.744V107.668H126.974C129.704 107.668 131.924 105.446 131.924 102.715C131.924 99.9834 129.704 97.7613 126.974 97.7613H124.744V90.3223H126.974C129.704 90.3223 131.924 88.1002 131.924 85.3689C131.924 82.6378 129.704 80.4157 126.974 80.4157H124.744V75.6356C124.744 74.1584 125.945 72.9565 127.421 72.9565H136.75V167.164Z" fill="url(#paint3_linear)"/>
</g>
<path d="M121.336 238.321C119.72 238.321 118.312 237.977 117.112 237.289C115.912 236.585 114.992 235.585 114.352 234.289C113.712 232.977 113.392 231.433 113.392 229.657C113.392 227.897 113.712 226.369 114.352 225.073C114.992 223.761 115.912 222.761 117.112 222.073C118.312 221.369 119.72 221.017 121.336 221.017C122.392 221.017 123.392 221.185 124.336 221.521C125.28 221.841 126.104 222.313 126.808 222.937C127.112 223.177 127.264 223.497 127.264 223.897C127.264 224.185 127.184 224.433 127.024 224.641C126.864 224.833 126.672 224.929 126.448 224.929C126.176 224.929 125.912 224.825 125.656 224.617C124.888 224.041 124.184 223.641 123.544 223.417C122.92 223.177 122.208 223.057 121.408 223.057C119.648 223.057 118.296 223.625 117.352 224.761C116.408 225.897 115.936 227.529 115.936 229.657C115.936 231.801 116.408 233.441 117.352 234.577C118.296 235.713 119.648 236.281 121.408 236.281C122.176 236.281 122.872 236.161 123.496 235.921C124.136 235.681 124.856 235.281 125.656 234.721C125.976 234.513 126.24 234.409 126.448 234.409C126.672 234.409 126.864 234.513 127.024 234.721C127.184 234.913 127.264 235.153 127.264 235.441C127.264 235.841 127.112 236.161 126.808 236.401C126.104 237.025 125.28 237.505 124.336 237.841C123.392 238.161 122.392 238.321 121.336 238.321ZM134.776 238.297C133.624 238.297 132.608 238.049 131.728 237.553C130.864 237.057 130.192 236.353 129.712 235.441C129.248 234.513 129.016 233.441 129.016 232.225C129.016 230.993 129.248 229.921 129.712 229.009C130.192 228.081 130.864 227.369 131.728 226.873C132.608 226.377 133.624 226.129 134.776 226.129C135.928 226.129 136.936 226.377 137.8 226.873C138.68 227.369 139.352 228.081 139.816 229.009C140.296 229.921 140.536 230.993 140.536 232.225C140.536 233.441 140.296 234.513 139.816 235.441C139.352 236.353 138.68 237.057 137.8 237.553C136.936 238.049 135.928 238.297 134.776 238.297ZM134.776 236.377C135.848 236.377 136.664 236.025 137.224 235.321C137.8 234.617 138.088 233.585 138.088 232.225C138.088 230.881 137.8 229.857 137.224 229.153C136.648 228.433 135.832 228.073 134.776 228.073C133.72 228.073 132.904 228.433 132.328 229.153C131.752 229.857 131.464 230.881 131.464 232.225C131.464 233.585 131.744 234.617 132.304 235.321C132.88 236.025 133.704 236.377 134.776 236.377ZM149.547 226.129C152.347 226.129 153.747 227.705 153.747 230.857V237.097C153.747 237.465 153.635 237.753 153.411 237.961C153.203 238.153 152.907 238.249 152.523 238.249C152.155 238.249 151.859 238.145 151.635 237.937C151.427 237.729 151.323 237.449 151.323 237.097V230.977C151.323 229.985 151.123 229.257 150.723 228.793C150.339 228.329 149.731 228.097 148.899 228.097C147.923 228.097 147.139 228.401 146.547 229.009C145.955 229.617 145.659 230.433 145.659 231.457V237.097C145.659 237.449 145.547 237.729 145.323 237.937C145.115 238.145 144.827 238.249 144.459 238.249C144.091 238.249 143.795 238.145 143.571 237.937C143.347 237.729 143.235 237.449 143.235 237.097V227.329C143.235 226.993 143.347 226.721 143.571 226.513C143.811 226.289 144.107 226.177 144.459 226.177C144.811 226.177 145.091 226.281 145.299 226.489C145.507 226.697 145.611 226.969 145.611 227.305V228.289C145.995 227.585 146.531 227.049 147.219 226.681C147.907 226.313 148.683 226.129 149.547 226.129ZM162.799 236.401C163.151 236.433 163.399 236.529 163.543 236.689C163.703 236.833 163.783 237.041 163.783 237.313C163.783 237.633 163.655 237.881 163.399 238.057C163.159 238.217 162.799 238.281 162.319 238.249L161.671 238.201C160.375 238.105 159.407 237.713 158.767 237.025C158.127 236.321 157.807 235.289 157.807 233.929V228.289H156.367C155.663 228.289 155.311 227.977 155.311 227.353C155.311 227.065 155.399 226.841 155.575 226.681C155.767 226.505 156.031 226.417 156.367 226.417H157.807V223.945C157.807 223.577 157.911 223.289 158.119 223.081C158.343 222.873 158.639 222.769 159.007 222.769C159.375 222.769 159.671 222.873 159.895 223.081C160.119 223.289 160.231 223.577 160.231 223.945V226.417H162.607C162.943 226.417 163.199 226.505 163.375 226.681C163.567 226.841 163.663 227.065 163.663 227.353C163.663 227.657 163.567 227.889 163.375 228.049C163.199 228.209 162.943 228.289 162.607 228.289H160.231V234.097C160.231 234.849 160.383 235.401 160.687 235.753C161.007 236.105 161.487 236.305 162.127 236.353L162.799 236.401ZM170.444 226.129C171.996 226.129 173.148 226.521 173.9 227.305C174.668 228.089 175.052 229.281 175.052 230.881V237.097C175.052 237.465 174.948 237.753 174.74 237.961C174.532 238.153 174.244 238.249 173.876 238.249C173.524 238.249 173.244 238.145 173.036 237.937C172.828 237.729 172.724 237.449 172.724 237.097V236.209C172.42 236.881 171.964 237.401 171.356 237.769C170.764 238.121 170.068 238.297 169.268 238.297C168.5 238.297 167.796 238.145 167.156 237.841C166.532 237.521 166.036 237.089 165.668 236.545C165.3 236.001 165.116 235.385 165.116 234.697C165.1 233.833 165.316 233.161 165.764 232.681C166.212 232.185 166.94 231.833 167.948 231.625C168.956 231.401 170.356 231.289 172.148 231.289H172.7V230.593C172.7 229.697 172.516 229.049 172.148 228.649C171.78 228.249 171.188 228.049 170.372 228.049C169.812 228.049 169.284 228.121 168.788 228.265C168.292 228.409 167.748 228.617 167.156 228.889C166.724 229.129 166.42 229.249 166.244 229.249C166.004 229.249 165.804 229.161 165.644 228.985C165.5 228.809 165.428 228.585 165.428 228.313C165.428 228.073 165.492 227.865 165.62 227.689C165.764 227.497 165.988 227.313 166.292 227.137C166.852 226.833 167.508 226.593 168.26 226.417C169.012 226.225 169.74 226.129 170.444 226.129ZM169.7 236.497C170.58 236.497 171.3 236.201 171.86 235.609C172.42 235.001 172.7 234.225 172.7 233.281V232.657H172.268C171.02 232.657 170.06 232.713 169.388 232.825C168.716 232.937 168.236 233.129 167.948 233.401C167.66 233.657 167.516 234.033 167.516 234.529C167.516 235.105 167.724 235.577 168.14 235.945C168.556 236.313 169.076 236.497 169.7 236.497ZM183.384 238.297C182.248 238.297 181.248 238.049 180.384 237.553C179.536 237.057 178.872 236.353 178.392 235.441C177.928 234.529 177.696 233.473 177.696 232.273C177.696 231.057 177.936 229.985 178.416 229.057C178.912 228.129 179.6 227.409 180.48 226.897C181.36 226.385 182.368 226.129 183.504 226.129C184.112 226.129 184.72 226.217 185.328 226.393C185.952 226.569 186.504 226.809 186.984 227.113C187.496 227.465 187.752 227.873 187.752 228.337C187.752 228.609 187.68 228.841 187.536 229.033C187.392 229.209 187.208 229.297 186.984 229.297C186.84 229.297 186.696 229.265 186.552 229.201C186.408 229.121 186.224 229.009 186 228.865C185.6 228.609 185.224 228.417 184.872 228.289C184.536 228.145 184.128 228.073 183.648 228.073C182.56 228.073 181.712 228.441 181.104 229.177C180.512 229.913 180.215 230.937 180.215 232.249C180.215 233.561 180.512 234.577 181.104 235.297C181.696 236.001 182.536 236.353 183.624 236.353C184.104 236.353 184.528 236.281 184.896 236.137C185.264 235.993 185.64 235.801 186.024 235.561C186.2 235.449 186.376 235.353 186.552 235.273C186.728 235.193 186.888 235.153 187.032 235.153C187.256 235.153 187.44 235.249 187.584 235.441C187.728 235.617 187.8 235.841 187.8 236.113C187.8 236.337 187.736 236.545 187.608 236.737C187.496 236.913 187.296 237.097 187.008 237.289C186.528 237.609 185.968 237.857 185.328 238.033C184.688 238.209 184.04 238.297 183.384 238.297ZM195.752 236.401C196.104 236.433 196.352 236.529 196.496 236.689C196.656 236.833 196.736 237.041 196.736 237.313C196.736 237.633 196.608 237.881 196.352 238.057C196.112 238.217 195.752 238.281 195.272 238.249L194.624 238.201C193.328 238.105 192.36 237.713 191.72 237.025C191.08 236.321 190.76 235.289 190.76 233.929V228.289H189.32C188.616 228.289 188.264 227.977 188.264 227.353C188.264 227.065 188.352 226.841 188.528 226.681C188.72 226.505 188.984 226.417 189.32 226.417H190.76V223.945C190.76 223.577 190.864 223.289 191.072 223.081C191.296 222.873 191.592 222.769 191.96 222.769C192.328 222.769 192.624 222.873 192.848 223.081C193.072 223.289 193.184 223.577 193.184 223.945V226.417H195.56C195.896 226.417 196.152 226.505 196.328 226.681C196.52 226.841 196.616 227.065 196.616 227.353C196.616 227.657 196.52 227.889 196.328 228.049C196.152 228.209 195.896 228.289 195.56 228.289H193.184V234.097C193.184 234.849 193.336 235.401 193.64 235.753C193.96 236.105 194.44 236.305 195.08 236.353L195.752 236.401Z" fill="black"/>
<rect x="13" y="393.01" width="285" height="248.991" rx="20" fill="white"/>
<ellipse cx="20" cy="400.015" rx="20" ry="20.0146" fill="#F7F4D7"/>
<path d="M24 405.706C24.384 405.706 24.576 405.906 24.576 406.306C24.576 406.498 24.52 406.666 24.408 406.81C24.296 406.938 24.12 407.002 23.88 407.002H14.256C14.064 407.002 13.904 406.946 13.776 406.834C13.664 406.722 13.608 406.578 13.608 406.402C13.608 406.178 13.712 405.962 13.92 405.754L20.352 399.226C21.392 398.17 22.12 397.258 22.536 396.49C22.968 395.722 23.184 394.922 23.184 394.09C23.184 393.21 22.904 392.506 22.344 391.978C21.784 391.45 21.032 391.186 20.088 391.186C19.192 391.186 18.36 391.338 17.592 391.642C16.84 391.93 16.112 392.37 15.408 392.962C15.216 393.106 15.04 393.178 14.88 393.178C14.72 393.178 14.592 393.13 14.496 393.034C14.4 392.922 14.352 392.778 14.352 392.602C14.352 392.346 14.488 392.09 14.76 391.834C15.4 391.258 16.184 390.794 17.112 390.442C18.056 390.09 19.016 389.906 19.992 389.89C21.416 389.874 22.552 390.242 23.4 390.994C24.248 391.746 24.672 392.77 24.672 394.066C24.672 395.09 24.416 396.074 23.904 397.018C23.392 397.962 22.528 399.042 21.312 400.258L15.84 405.706H24Z" fill="black"/>
<path d="M204.428 431.343L186.654 413.572C186.288 413.206 185.791 413 185.273 413H127.266C124.035 413 121.406 415.629 121.406 418.859V422.583C111.812 426.346 105 435.698 105 446.612C105 447.69 105.875 448.565 106.953 448.565H130.799C131.878 448.565 132.752 447.69 132.752 446.612V422.766C132.752 421.687 131.878 420.812 130.799 420.812C128.917 420.812 127.081 421.017 125.312 421.402V418.859C125.312 417.782 126.189 416.906 127.266 416.906H183.32V428.82C183.32 432.051 185.949 434.68 189.18 434.68H201.094V507.141C201.094 508.218 200.218 509.094 199.141 509.094H127.266C126.189 509.094 125.312 508.218 125.312 507.141V490.409C125.312 489.33 124.438 488.456 123.359 488.456C122.281 488.456 121.406 489.33 121.406 490.409V507.141C121.406 510.371 124.035 513 127.266 513H199.141C202.371 513 205 510.371 205 507.141V432.724C205 432.206 204.794 431.709 204.428 431.343ZM128.846 424.805V444.658H108.993C109.926 434.141 118.329 425.739 128.846 424.805ZM189.18 430.773C188.103 430.773 187.227 429.897 187.227 428.82V419.668L198.334 430.773H189.18Z" fill="url(#paint4_linear)"/>
<path d="M124.74 481.932C124.377 481.568 123.873 481.359 123.359 481.359C122.846 481.359 122.342 481.568 121.979 481.932C121.615 482.295 121.406 482.799 121.406 483.312C121.406 483.826 121.615 484.33 121.979 484.693C122.342 485.057 122.846 485.266 123.359 485.266C123.873 485.266 124.377 485.057 124.74 484.693C125.104 484.33 125.312 483.826 125.312 483.312C125.312 482.799 125.104 482.295 124.74 481.932Z" fill="url(#paint5_linear)"/>
<path d="M137.795 427.808C136.716 427.808 135.842 428.683 135.842 429.761V451.654H113.949C112.871 451.654 111.996 452.529 111.996 453.607C111.996 467.833 123.569 479.406 137.795 479.406C152.021 479.406 163.594 467.833 163.594 453.607C163.594 439.382 152.021 427.808 137.795 427.808ZM139.748 431.801C144.32 432.207 148.492 434.025 151.825 436.815L139.748 448.892V431.801ZM137.795 475.5C126.381 475.5 116.98 466.721 115.989 455.56H137.795C138.334 455.56 138.822 455.342 139.175 454.989C139.176 454.989 139.176 454.989 139.176 454.988L154.588 439.577C157.77 443.379 159.688 448.273 159.688 453.607C159.688 465.679 149.867 475.5 137.795 475.5Z" fill="url(#paint6_linear)"/>
<path d="M190.561 474.642C187.33 474.642 184.702 477.27 184.702 480.501C184.702 481.311 184.867 482.082 185.165 482.785L173.913 494.037C173.139 493.66 172.271 493.448 171.355 493.448C170.46 493.448 169.612 493.651 168.853 494.011L161.381 486.538C161.64 485.878 161.784 485.159 161.784 484.407C161.784 481.176 159.155 478.548 155.924 478.548C152.693 478.548 150.065 481.176 150.065 484.407C150.065 485.282 150.259 486.113 150.605 486.86L143.438 494.027C142.674 493.661 141.82 493.456 140.919 493.456C137.688 493.456 135.06 496.085 135.06 499.316C135.06 502.547 137.688 505.175 140.919 505.175C144.15 505.175 146.778 502.547 146.778 499.316C146.778 498.41 146.572 497.552 146.203 496.786L153.33 489.659C154.113 490.047 154.993 490.266 155.925 490.266C156.976 490.266 157.963 489.987 158.817 489.499L166.079 496.761C165.705 497.531 165.496 498.396 165.496 499.308C165.496 502.539 168.124 505.167 171.355 505.167C174.586 505.167 177.214 502.539 177.214 499.308C177.214 498.418 177.014 497.573 176.657 496.817L187.805 485.67C188.627 486.11 189.565 486.36 190.561 486.36C193.792 486.36 196.421 483.732 196.421 480.501C196.421 477.27 193.792 474.642 190.561 474.642ZM140.919 501.269C139.842 501.269 138.966 500.393 138.966 499.316C138.966 498.239 139.842 497.363 140.919 497.363C141.443 497.363 141.919 497.572 142.27 497.909C142.278 497.917 142.285 497.926 142.293 497.934C142.302 497.944 142.312 497.951 142.322 497.96C142.662 498.312 142.872 498.79 142.872 499.316C142.872 500.393 141.996 501.269 140.919 501.269ZM155.924 486.36C154.847 486.36 153.971 485.484 153.971 484.407C153.971 483.33 154.847 482.454 155.924 482.454C157.001 482.454 157.877 483.33 157.877 484.407C157.877 485.484 157.001 486.36 155.924 486.36ZM171.355 501.261C170.278 501.261 169.402 500.385 169.402 499.308C169.402 498.231 170.278 497.355 171.355 497.355C172.432 497.355 173.308 498.231 173.308 499.308C173.308 500.385 172.432 501.261 171.355 501.261ZM190.561 482.454C189.484 482.454 188.608 481.578 188.608 480.501C188.608 479.424 189.484 478.548 190.561 478.548C191.638 478.548 192.514 479.424 192.514 480.501C192.514 481.578 191.638 482.454 190.561 482.454Z" fill="url(#paint7_linear)"/>
<path d="M180.799 458.898H170.49C169.412 458.898 168.537 459.773 168.537 460.852C168.537 461.93 169.412 462.805 170.49 462.805H180.799C181.877 462.805 182.752 461.93 182.752 460.852C182.752 459.773 181.877 458.898 180.799 458.898Z" fill="url(#paint8_linear)"/>
<path d="M191.072 459.471C190.709 459.107 190.205 458.898 189.691 458.898C189.178 458.898 188.674 459.107 188.311 459.471C187.947 459.834 187.738 460.338 187.738 460.852C187.738 461.365 187.947 461.869 188.311 462.232C188.674 462.596 189.176 462.805 189.691 462.805C190.205 462.805 190.709 462.596 191.072 462.232C191.435 461.869 191.645 461.365 191.645 460.852C191.645 460.338 191.436 459.834 191.072 459.471Z" fill="url(#paint9_linear)"/>
<path d="M194.348 440.148H170.49C169.412 440.148 168.537 441.023 168.537 442.102C168.537 443.18 169.412 444.055 170.49 444.055H194.348C195.427 444.055 196.302 443.18 196.302 442.102C196.302 441.023 195.427 440.148 194.348 440.148Z" fill="url(#paint10_linear)"/>
<path d="M194.348 449.523H170.49C169.412 449.523 168.537 450.398 168.537 451.477C168.537 452.555 169.412 453.43 170.49 453.43H194.348C195.427 453.43 196.302 452.555 196.302 451.477C196.302 450.398 195.427 449.523 194.348 449.523Z" fill="url(#paint11_linear)"/>
<path d="M120.168 579.593C120.312 579.801 120.384 580.025 120.384 580.265C120.384 580.553 120.264 580.801 120.024 581.009C119.8 581.201 119.536 581.297 119.232 581.297C118.784 581.297 118.424 581.097 118.152 580.697L114.936 575.705C114.568 575.129 114.176 574.729 113.76 574.505C113.344 574.265 112.8 574.145 112.128 574.145H109.416V580.001C109.416 580.385 109.304 580.689 109.08 580.913C108.872 581.137 108.576 581.249 108.192 581.249C107.824 581.249 107.528 581.137 107.304 580.913C107.08 580.689 106.968 580.385 106.968 580.001V565.409C106.968 565.041 107.072 564.753 107.28 564.545C107.504 564.321 107.808 564.209 108.192 564.209H114.168C116.04 564.209 117.464 564.625 118.44 565.457C119.432 566.289 119.928 567.505 119.928 569.105C119.928 570.433 119.552 571.513 118.8 572.345C118.048 573.161 116.976 573.681 115.584 573.905C116 574.017 116.376 574.217 116.712 574.505C117.048 574.793 117.376 575.193 117.696 575.705L120.168 579.593ZM113.88 572.153C115.128 572.153 116.048 571.913 116.64 571.433C117.248 570.937 117.552 570.177 117.552 569.153C117.552 568.129 117.256 567.385 116.664 566.921C116.072 566.441 115.144 566.201 113.88 566.201H109.392V572.153H113.88ZM132.418 578.177C132.642 578.177 132.826 578.265 132.97 578.441C133.114 578.617 133.186 578.841 133.186 579.113C133.186 579.577 132.898 579.969 132.322 580.289C131.762 580.609 131.146 580.857 130.474 581.033C129.818 581.209 129.186 581.297 128.578 581.297C126.722 581.297 125.258 580.761 124.186 579.689C123.114 578.601 122.578 577.121 122.578 575.249C122.578 574.049 122.81 572.985 123.274 572.057C123.754 571.129 124.418 570.409 125.266 569.897C126.13 569.385 127.106 569.129 128.194 569.129C129.762 569.129 131.002 569.633 131.914 570.641C132.826 571.649 133.282 573.009 133.282 574.721C133.282 575.361 132.994 575.681 132.418 575.681H125.002C125.162 578.161 126.354 579.401 128.578 579.401C129.17 579.401 129.682 579.321 130.114 579.161C130.546 579.001 131.002 578.793 131.482 578.537C131.53 578.505 131.658 578.441 131.866 578.345C132.09 578.233 132.274 578.177 132.418 578.177ZM128.242 570.905C127.314 570.905 126.57 571.201 126.01 571.793C125.45 572.385 125.114 573.217 125.002 574.289H131.194C131.146 573.201 130.866 572.369 130.354 571.793C129.858 571.201 129.154 570.905 128.242 570.905ZM140.033 581.297C138.401 581.297 137.065 580.961 136.025 580.289C135.737 580.113 135.529 579.929 135.401 579.737C135.289 579.545 135.233 579.329 135.233 579.089C135.233 578.833 135.305 578.617 135.449 578.441C135.593 578.265 135.777 578.177 136.001 578.177C136.209 578.177 136.537 578.305 136.985 578.561C137.465 578.817 137.929 579.025 138.377 579.185C138.841 579.345 139.417 579.425 140.105 579.425C140.873 579.425 141.473 579.289 141.905 579.017C142.337 578.745 142.553 578.361 142.553 577.865C142.553 577.545 142.465 577.289 142.289 577.097C142.129 576.905 141.841 576.737 141.425 576.593C141.009 576.433 140.393 576.265 139.577 576.089C138.169 575.785 137.153 575.377 136.529 574.865C135.921 574.337 135.617 573.625 135.617 572.729C135.617 572.041 135.817 571.425 136.217 570.881C136.617 570.321 137.169 569.889 137.873 569.585C138.577 569.281 139.377 569.129 140.273 569.129C140.913 569.129 141.537 569.217 142.145 569.393C142.753 569.553 143.289 569.793 143.753 570.113C144.281 570.465 144.545 570.873 144.545 571.337C144.545 571.593 144.465 571.809 144.305 571.985C144.161 572.161 143.985 572.249 143.777 572.249C143.633 572.249 143.489 572.217 143.345 572.153C143.201 572.089 143.009 571.985 142.769 571.841C142.337 571.585 141.929 571.385 141.545 571.241C141.177 571.097 140.713 571.025 140.153 571.025C139.481 571.025 138.937 571.169 138.521 571.457C138.121 571.745 137.921 572.137 137.921 572.633C137.921 573.081 138.105 573.433 138.473 573.689C138.857 573.929 139.569 574.161 140.609 574.385C141.681 574.609 142.521 574.865 143.129 575.153C143.737 575.441 144.169 575.801 144.425 576.233C144.697 576.649 144.833 577.185 144.833 577.841C144.833 578.881 144.393 579.721 143.513 580.361C142.649 580.985 141.489 581.297 140.033 581.297ZM156.7 578.177C156.924 578.177 157.108 578.265 157.252 578.441C157.396 578.617 157.468 578.841 157.468 579.113C157.468 579.577 157.18 579.969 156.604 580.289C156.044 580.609 155.428 580.857 154.756 581.033C154.1 581.209 153.468 581.297 152.86 581.297C151.004 581.297 149.54 580.761 148.468 579.689C147.396 578.601 146.86 577.121 146.86 575.249C146.86 574.049 147.092 572.985 147.556 572.057C148.036 571.129 148.7 570.409 149.548 569.897C150.412 569.385 151.388 569.129 152.476 569.129C154.044 569.129 155.284 569.633 156.196 570.641C157.108 571.649 157.564 573.009 157.564 574.721C157.564 575.361 157.276 575.681 156.7 575.681H149.284C149.444 578.161 150.636 579.401 152.86 579.401C153.452 579.401 153.964 579.321 154.396 579.161C154.828 579.001 155.284 578.793 155.764 578.537C155.812 578.505 155.94 578.441 156.148 578.345C156.372 578.233 156.556 578.177 156.7 578.177ZM152.524 570.905C151.596 570.905 150.852 571.201 150.292 571.793C149.732 572.385 149.396 573.217 149.284 574.289H155.476C155.428 573.201 155.148 572.369 154.636 571.793C154.14 571.201 153.436 570.905 152.524 570.905ZM165.155 569.129C166.707 569.129 167.859 569.521 168.611 570.305C169.379 571.089 169.763 572.281 169.763 573.881V580.097C169.763 580.465 169.659 580.753 169.451 580.961C169.243 581.153 168.955 581.249 168.587 581.249C168.235 581.249 167.955 581.145 167.747 580.937C167.539 580.729 167.435 580.449 167.435 580.097V579.209C167.131 579.881 166.675 580.401 166.067 580.769C165.475 581.121 164.779 581.297 163.979 581.297C163.211 581.297 162.507 581.145 161.867 580.841C161.243 580.521 160.747 580.089 160.379 579.545C160.011 579.001 159.827 578.385 159.827 577.697C159.811 576.833 160.027 576.161 160.475 575.681C160.923 575.185 161.651 574.833 162.659 574.625C163.667 574.401 165.067 574.289 166.859 574.289H167.411V573.593C167.411 572.697 167.227 572.049 166.859 571.649C166.491 571.249 165.899 571.049 165.083 571.049C164.523 571.049 163.995 571.121 163.499 571.265C163.003 571.409 162.459 571.617 161.867 571.889C161.435 572.129 161.131 572.249 160.955 572.249C160.715 572.249 160.515 572.161 160.355 571.985C160.211 571.809 160.139 571.585 160.139 571.313C160.139 571.073 160.203 570.865 160.331 570.689C160.475 570.497 160.699 570.313 161.003 570.137C161.563 569.833 162.219 569.593 162.971 569.417C163.723 569.225 164.451 569.129 165.155 569.129ZM164.411 579.497C165.291 579.497 166.011 579.201 166.571 578.609C167.131 578.001 167.411 577.225 167.411 576.281V575.657H166.979C165.731 575.657 164.771 575.713 164.099 575.825C163.427 575.937 162.947 576.129 162.659 576.401C162.371 576.657 162.227 577.033 162.227 577.529C162.227 578.105 162.435 578.577 162.851 578.945C163.267 579.313 163.787 579.497 164.411 579.497ZM179.222 569.177C179.99 569.129 180.374 569.457 180.374 570.161C180.374 570.513 180.286 570.777 180.11 570.953C179.934 571.129 179.63 571.233 179.198 571.265L178.478 571.337C177.47 571.433 176.718 571.785 176.222 572.393C175.742 573.001 175.502 573.737 175.502 574.601V580.097C175.502 580.481 175.39 580.769 175.166 580.961C174.942 581.153 174.654 581.249 174.302 581.249C173.95 581.249 173.654 581.153 173.414 580.961C173.19 580.769 173.078 580.481 173.078 580.097V570.329C173.078 569.961 173.19 569.681 173.414 569.489C173.654 569.281 173.95 569.177 174.302 569.177C174.622 569.177 174.886 569.281 175.094 569.489C175.318 569.681 175.43 569.953 175.43 570.305V571.457C175.75 570.753 176.214 570.217 176.822 569.849C177.43 569.481 178.118 569.265 178.886 569.201L179.222 569.177ZM186.649 581.297C185.513 581.297 184.513 581.049 183.649 580.553C182.801 580.057 182.137 579.353 181.657 578.441C181.193 577.529 180.961 576.473 180.961 575.273C180.961 574.057 181.201 572.985 181.681 572.057C182.177 571.129 182.865 570.409 183.745 569.897C184.625 569.385 185.633 569.129 186.769 569.129C187.377 569.129 187.985 569.217 188.593 569.393C189.217 569.569 189.769 569.809 190.249 570.113C190.761 570.465 191.017 570.873 191.017 571.337C191.017 571.609 190.945 571.841 190.801 572.033C190.657 572.209 190.473 572.297 190.249 572.297C190.105 572.297 189.961 572.265 189.817 572.201C189.673 572.121 189.489 572.009 189.265 571.865C188.865 571.609 188.489 571.417 188.137 571.289C187.801 571.145 187.393 571.073 186.913 571.073C185.825 571.073 184.977 571.441 184.369 572.177C183.777 572.913 183.481 573.937 183.481 575.249C183.481 576.561 183.777 577.577 184.369 578.297C184.961 579.001 185.801 579.353 186.889 579.353C187.369 579.353 187.793 579.281 188.161 579.137C188.529 578.993 188.905 578.801 189.289 578.561C189.465 578.449 189.641 578.353 189.817 578.273C189.993 578.193 190.153 578.153 190.297 578.153C190.521 578.153 190.705 578.249 190.849 578.441C190.993 578.617 191.065 578.841 191.065 579.113C191.065 579.337 191.001 579.545 190.873 579.737C190.761 579.913 190.561 580.097 190.273 580.289C189.793 580.609 189.233 580.857 188.593 581.033C187.953 581.209 187.305 581.297 186.649 581.297ZM199.571 569.129C202.355 569.129 203.747 570.705 203.747 573.857V580.097C203.747 580.449 203.635 580.729 203.411 580.937C203.187 581.145 202.891 581.249 202.523 581.249C202.155 581.249 201.859 581.145 201.635 580.937C201.427 580.729 201.323 580.449 201.323 580.097V573.881C201.323 572.921 201.123 572.217 200.723 571.769C200.339 571.321 199.731 571.097 198.899 571.097C197.923 571.097 197.139 571.401 196.547 572.009C195.955 572.617 195.659 573.433 195.659 574.457V580.097C195.659 580.449 195.547 580.729 195.323 580.937C195.115 581.145 194.827 581.249 194.459 581.249C194.091 581.249 193.795 581.145 193.571 580.937C193.347 580.729 193.235 580.449 193.235 580.097V565.241C193.235 564.889 193.347 564.609 193.571 564.401C193.811 564.193 194.115 564.089 194.483 564.089C194.835 564.089 195.115 564.193 195.323 564.401C195.547 564.593 195.659 564.857 195.659 565.193V571.193C196.059 570.521 196.595 570.009 197.267 569.657C197.939 569.305 198.707 569.129 199.571 569.129Z" fill="black"/>
<rect x="13" y="736.01" width="285" height="248.991" rx="20" fill="white"/>
<ellipse cx="20" cy="743.015" rx="20" ry="20.0146" fill="#F7F4D7"/>
<path d="M21.504 741.362C22.416 741.602 23.12 742.05 23.616 742.706C24.128 743.362 24.384 744.178 24.384 745.154C24.384 746.162 24.152 747.042 23.688 747.794C23.24 748.546 22.584 749.13 21.72 749.546C20.872 749.962 19.88 750.17 18.744 750.17C17.72 750.17 16.752 750.002 15.84 749.666C14.928 749.33 14.144 748.882 13.488 748.322C13.312 748.162 13.224 747.97 13.224 747.746C13.224 747.554 13.28 747.394 13.392 747.266C13.52 747.122 13.672 747.05 13.848 747.05C14.04 747.05 14.208 747.114 14.352 747.242C15.648 748.33 17.136 748.874 18.816 748.874C20.08 748.874 21.072 748.554 21.792 747.914C22.528 747.274 22.896 746.37 22.896 745.202C22.896 743.106 21.584 742.058 18.96 742.058H17.616C17.44 742.058 17.296 741.994 17.184 741.866C17.088 741.738 17.04 741.578 17.04 741.386C17.04 741.194 17.088 741.042 17.184 740.93C17.296 740.818 17.448 740.762 17.64 740.762H18.936C20.232 740.762 21.264 740.426 22.032 739.754C22.8 739.066 23.184 738.138 23.184 736.97C23.184 736.122 22.896 735.45 22.32 734.954C21.744 734.442 20.976 734.186 20.016 734.186C19.152 734.186 18.344 734.338 17.592 734.642C16.84 734.93 16.112 735.37 15.408 735.962C15.216 736.106 15.04 736.178 14.88 736.178C14.72 736.178 14.592 736.13 14.496 736.034C14.4 735.922 14.352 735.778 14.352 735.602C14.352 735.346 14.488 735.09 14.76 734.834C15.4 734.242 16.184 733.778 17.112 733.442C18.056 733.09 19.024 732.906 20.016 732.89C21.424 732.874 22.552 733.234 23.4 733.97C24.248 734.706 24.672 735.698 24.672 736.946C24.672 737.938 24.384 738.834 23.808 739.634C23.248 740.434 22.48 741.01 21.504 741.362Z" fill="black"/>
<path d="M141.156 777.484C141.156 772.1 136.775 767.719 131.391 767.719C126.006 767.719 121.625 772.1 121.625 777.484C121.625 782.869 126.006 787.25 131.391 787.25C136.775 787.25 141.156 782.869 141.156 777.484ZM131.391 783.344C128.16 783.344 125.531 780.715 125.531 777.484C125.531 774.254 128.16 771.625 131.391 771.625C134.621 771.625 137.25 774.254 137.25 777.484C137.25 780.715 134.621 783.344 131.391 783.344Z" fill="url(#paint12_linear)"/>
<path d="M131.391 806.781C145.562 806.781 156.781 795.228 156.781 781.391C156.781 767.39 145.391 756 131.391 756C117.39 756 106 767.39 106 781.391C106 795.227 117.217 806.781 131.391 806.781ZM121.635 800.534C121.84 795.328 126.136 791.156 131.391 791.156C136.645 791.156 140.942 795.328 141.146 800.534C138.143 802.067 134.794 802.875 131.391 802.875C127.988 802.875 124.639 802.067 121.635 800.534ZM131.391 759.906C143.237 759.906 152.875 769.544 152.875 781.391C152.875 787.954 149.839 794.137 144.786 798.182C143.514 791.952 137.991 787.25 131.391 787.25C124.79 787.25 119.267 791.952 117.995 798.182C112.943 794.137 109.906 787.955 109.906 781.391C109.906 769.544 119.544 759.906 131.391 759.906Z" fill="url(#paint13_linear)"/>
<path d="M190.375 826.703C190.375 821.318 185.994 816.938 180.609 816.938C175.225 816.938 170.844 821.318 170.844 826.703C170.844 832.088 175.225 836.469 180.609 836.469C185.994 836.469 190.375 832.088 190.375 826.703ZM180.609 832.562C177.379 832.562 174.75 829.934 174.75 826.703C174.75 823.472 177.379 820.844 180.609 820.844C183.84 820.844 186.469 823.472 186.469 826.703C186.469 829.934 183.84 832.562 180.609 832.562Z" fill="url(#paint14_linear)"/>
<path d="M180.609 805.219C166.609 805.219 155.219 816.609 155.219 830.609C155.219 844.447 166.436 856 180.609 856C194.78 856 206 844.447 206 830.609C206 816.609 194.61 805.219 180.609 805.219ZM170.854 849.752C171.058 844.547 175.355 840.375 180.609 840.375C185.864 840.375 190.16 844.547 190.365 849.752C187.361 851.286 184.012 852.094 180.609 852.094C177.206 852.094 173.857 851.286 170.854 849.752ZM194.005 847.4C192.733 841.171 187.21 836.469 180.609 836.469C174.009 836.469 168.486 841.171 167.214 847.4C162.161 843.356 159.125 837.173 159.125 830.609C159.125 818.763 168.763 809.125 180.609 809.125C192.456 809.125 202.094 818.763 202.094 830.609C202.094 837.173 199.058 843.356 194.005 847.4Z" fill="url(#paint15_linear)"/>
<path d="M152.094 847.016C144.555 847.016 138.422 840.882 138.422 833.344V831.391H140.375C141.115 831.391 141.791 830.973 142.122 830.311C142.453 829.649 142.381 828.857 141.938 828.266L130.219 812.641C129.85 812.149 129.271 811.859 128.656 811.859C128.042 811.859 127.463 812.149 127.094 812.641L115.375 828.266C114.931 828.857 114.86 829.649 115.191 830.311C115.522 830.973 116.198 831.391 116.938 831.391H118.891V833.344C118.891 843.036 126.776 850.922 136.469 850.922H152.094C153.172 850.922 154.047 850.047 154.047 848.969C154.047 847.89 153.172 847.016 152.094 847.016ZM136.469 847.016C128.93 847.016 122.797 840.882 122.797 833.344V829.438C122.797 828.359 121.922 827.484 120.844 827.484L128.656 817.068L136.469 827.484C135.39 827.484 134.516 828.359 134.516 829.438V833.344C134.516 838.86 137.069 843.79 141.057 847.016H136.469Z" fill="url(#paint16_linear)"/>
<path d="M159.906 764.984C167.445 764.984 173.578 771.118 173.578 778.656V780.609H171.625C170.885 780.609 170.209 781.027 169.878 781.689C169.547 782.351 169.619 783.143 170.062 783.734L181.781 799.359C182.15 799.851 182.729 800.141 183.344 800.141C183.958 800.141 184.537 799.851 184.906 799.359L196.625 783.734C197.069 783.143 197.14 782.351 196.809 781.689C196.478 781.027 195.802 780.609 195.062 780.609H193.109V778.656C193.109 778.13 193.086 777.598 193.039 777.075C192.943 776.001 191.995 775.208 190.92 775.304C189.846 775.4 189.052 776.348 189.148 777.423C189.185 777.83 189.203 778.245 189.203 778.656V782.562C189.203 783.641 190.078 784.515 191.156 784.515L183.344 794.932L175.531 784.516C176.61 784.516 177.484 783.641 177.484 782.562V778.656C177.484 773.14 174.931 768.21 170.943 764.984H175.531C177.093 764.984 178.624 765.245 180.081 765.759C181.099 766.118 182.214 765.585 182.573 764.567C182.932 763.55 182.398 762.435 181.381 762.076C179.505 761.414 177.537 761.078 175.531 761.078H159.906C158.828 761.078 157.953 761.953 157.953 763.031C157.953 764.11 158.828 764.984 159.906 764.984V764.984Z" fill="url(#paint17_linear)"/>
<path d="M187.836 771.039C188.915 771.039 189.789 770.165 189.789 769.086C189.789 768.007 188.915 767.133 187.836 767.133C186.757 767.133 185.883 768.007 185.883 769.086C185.883 770.165 186.757 771.039 187.836 771.039Z" fill="url(#paint18_linear)"/>
<path d="M116.192 924.129C115.808 924.129 115.504 924.025 115.28 923.817C115.072 923.593 114.968 923.297 114.968 922.929V908.409C114.968 908.041 115.072 907.753 115.28 907.545C115.504 907.321 115.808 907.209 116.192 907.209H120.896C123.632 907.209 125.752 907.945 127.256 909.417C128.76 910.889 129.512 912.969 129.512 915.657C129.512 918.345 128.76 920.433 127.256 921.921C125.752 923.393 123.632 924.129 120.896 924.129H116.192ZM120.752 922.065C124.912 922.065 126.992 919.929 126.992 915.657C126.992 911.401 124.912 909.273 120.752 909.273H117.44V922.065H120.752ZM133.81 924.249C133.458 924.249 133.162 924.153 132.922 923.961C132.698 923.769 132.586 923.481 132.586 923.097V913.353C132.586 912.969 132.698 912.681 132.922 912.489C133.162 912.281 133.458 912.177 133.81 912.177C134.162 912.177 134.45 912.281 134.674 912.489C134.898 912.681 135.01 912.969 135.01 913.353V923.097C135.01 923.481 134.898 923.769 134.674 923.961C134.45 924.153 134.162 924.249 133.81 924.249ZM133.81 909.825C133.346 909.825 132.978 909.697 132.706 909.441C132.434 909.185 132.298 908.849 132.298 908.433C132.298 908.017 132.434 907.689 132.706 907.449C132.978 907.193 133.346 907.065 133.81 907.065C134.258 907.065 134.618 907.193 134.89 907.449C135.178 907.689 135.322 908.017 135.322 908.433C135.322 908.849 135.186 909.185 134.914 909.441C134.642 909.697 134.274 909.825 133.81 909.825ZM142.479 924.297C140.847 924.297 139.511 923.961 138.471 923.289C138.183 923.113 137.975 922.929 137.847 922.737C137.735 922.545 137.679 922.329 137.679 922.089C137.679 921.833 137.751 921.617 137.895 921.441C138.039 921.265 138.223 921.177 138.447 921.177C138.655 921.177 138.983 921.305 139.431 921.561C139.911 921.817 140.375 922.025 140.823 922.185C141.287 922.345 141.863 922.425 142.551 922.425C143.319 922.425 143.919 922.289 144.351 922.017C144.783 921.745 144.999 921.361 144.999 920.865C144.999 920.545 144.911 920.289 144.735 920.097C144.575 919.905 144.287 919.737 143.871 919.593C143.455 919.433 142.839 919.265 142.023 919.089C140.615 918.785 139.599 918.377 138.975 917.865C138.367 917.337 138.063 916.625 138.063 915.729C138.063 915.041 138.263 914.425 138.663 913.881C139.063 913.321 139.615 912.889 140.319 912.585C141.023 912.281 141.823 912.129 142.719 912.129C143.359 912.129 143.983 912.217 144.591 912.393C145.199 912.553 145.735 912.793 146.199 913.113C146.727 913.465 146.991 913.873 146.991 914.337C146.991 914.593 146.911 914.809 146.751 914.985C146.607 915.161 146.431 915.249 146.223 915.249C146.079 915.249 145.935 915.217 145.791 915.153C145.647 915.089 145.455 914.985 145.215 914.841C144.783 914.585 144.375 914.385 143.991 914.241C143.623 914.097 143.159 914.025 142.599 914.025C141.927 914.025 141.383 914.169 140.967 914.457C140.567 914.745 140.367 915.137 140.367 915.633C140.367 916.081 140.551 916.433 140.919 916.689C141.303 916.929 142.015 917.161 143.055 917.385C144.127 917.609 144.967 917.865 145.575 918.153C146.183 918.441 146.615 918.801 146.871 919.233C147.143 919.649 147.279 920.185 147.279 920.841C147.279 921.881 146.839 922.721 145.959 923.361C145.095 923.985 143.935 924.297 142.479 924.297ZM154.993 924.297C153.857 924.297 152.857 924.049 151.993 923.553C151.145 923.057 150.481 922.353 150.001 921.441C149.537 920.529 149.305 919.473 149.305 918.273C149.305 917.057 149.545 915.985 150.025 915.057C150.521 914.129 151.209 913.409 152.089 912.897C152.969 912.385 153.977 912.129 155.113 912.129C155.721 912.129 156.329 912.217 156.937 912.393C157.561 912.569 158.113 912.809 158.593 913.113C159.105 913.465 159.361 913.873 159.361 914.337C159.361 914.609 159.289 914.841 159.145 915.033C159.001 915.209 158.817 915.297 158.593 915.297C158.449 915.297 158.305 915.265 158.161 915.201C158.017 915.121 157.833 915.009 157.609 914.865C157.209 914.609 156.833 914.417 156.481 914.289C156.145 914.145 155.737 914.073 155.257 914.073C154.169 914.073 153.321 914.441 152.713 915.177C152.121 915.913 151.825 916.937 151.825 918.249C151.825 919.561 152.121 920.577 152.713 921.297C153.305 922.001 154.145 922.353 155.233 922.353C155.713 922.353 156.137 922.281 156.505 922.137C156.873 921.993 157.249 921.801 157.633 921.561C157.809 921.449 157.985 921.353 158.161 921.273C158.337 921.193 158.497 921.153 158.641 921.153C158.865 921.153 159.049 921.249 159.193 921.441C159.337 921.617 159.409 921.841 159.409 922.113C159.409 922.337 159.345 922.545 159.217 922.737C159.105 922.913 158.905 923.097 158.617 923.289C158.137 923.609 157.577 923.857 156.937 924.033C156.297 924.209 155.649 924.297 154.993 924.297ZM170.65 912.177C171.018 912.177 171.306 912.281 171.514 912.489C171.738 912.697 171.85 912.985 171.85 913.353V923.121C171.85 923.457 171.738 923.729 171.514 923.937C171.29 924.145 170.994 924.249 170.626 924.249C170.29 924.249 170.018 924.153 169.81 923.961C169.602 923.753 169.498 923.481 169.498 923.145V922.233C169.13 922.905 168.618 923.417 167.962 923.769C167.322 924.121 166.602 924.297 165.802 924.297C162.954 924.297 161.53 922.729 161.53 919.593V913.353C161.53 912.985 161.634 912.697 161.842 912.489C162.066 912.281 162.37 912.177 162.754 912.177C163.122 912.177 163.41 912.281 163.618 912.489C163.842 912.697 163.954 912.985 163.954 913.353V919.569C163.954 920.513 164.146 921.209 164.53 921.657C164.914 922.105 165.506 922.329 166.306 922.329C167.25 922.329 168.002 922.025 168.562 921.417C169.138 920.809 169.426 920.001 169.426 918.993V913.353C169.426 913.001 169.538 912.721 169.762 912.513C169.986 912.289 170.282 912.177 170.65 912.177ZM179.323 924.297C177.691 924.297 176.355 923.961 175.315 923.289C175.027 923.113 174.819 922.929 174.691 922.737C174.579 922.545 174.523 922.329 174.523 922.089C174.523 921.833 174.595 921.617 174.739 921.441C174.883 921.265 175.067 921.177 175.291 921.177C175.499 921.177 175.827 921.305 176.275 921.561C176.755 921.817 177.219 922.025 177.667 922.185C178.131 922.345 178.707 922.425 179.395 922.425C180.163 922.425 180.763 922.289 181.195 922.017C181.627 921.745 181.843 921.361 181.843 920.865C181.843 920.545 181.755 920.289 181.579 920.097C181.419 919.905 181.131 919.737 180.715 919.593C180.299 919.433 179.683 919.265 178.867 919.089C177.459 918.785 176.443 918.377 175.819 917.865C175.211 917.337 174.907 916.625 174.907 915.729C174.907 915.041 175.107 914.425 175.507 913.881C175.907 913.321 176.459 912.889 177.163 912.585C177.867 912.281 178.667 912.129 179.562 912.129C180.203 912.129 180.827 912.217 181.435 912.393C182.043 912.553 182.579 912.793 183.043 913.113C183.571 913.465 183.835 913.873 183.835 914.337C183.835 914.593 183.755 914.809 183.595 914.985C183.451 915.161 183.275 915.249 183.067 915.249C182.923 915.249 182.779 915.217 182.635 915.153C182.491 915.089 182.299 914.985 182.059 914.841C181.627 914.585 181.219 914.385 180.835 914.241C180.467 914.097 180.003 914.025 179.443 914.025C178.771 914.025 178.227 914.169 177.811 914.457C177.411 914.745 177.211 915.137 177.211 915.633C177.211 916.081 177.395 916.433 177.763 916.689C178.147 916.929 178.859 917.161 179.898 917.385C180.971 917.609 181.811 917.865 182.419 918.153C183.027 918.441 183.459 918.801 183.715 919.233C183.987 919.649 184.123 920.185 184.123 920.841C184.123 921.881 183.683 922.721 182.803 923.361C181.939 923.985 180.779 924.297 179.323 924.297ZM190.901 924.297C189.269 924.297 187.933 923.961 186.893 923.289C186.605 923.113 186.397 922.929 186.269 922.737C186.157 922.545 186.101 922.329 186.101 922.089C186.101 921.833 186.173 921.617 186.317 921.441C186.461 921.265 186.645 921.177 186.869 921.177C187.077 921.177 187.405 921.305 187.853 921.561C188.333 921.817 188.797 922.025 189.245 922.185C189.709 922.345 190.285 922.425 190.973 922.425C191.741 922.425 192.341 922.289 192.773 922.017C193.205 921.745 193.421 921.361 193.421 920.865C193.421 920.545 193.333 920.289 193.157 920.097C192.997 919.905 192.709 919.737 192.293 919.593C191.877 919.433 191.261 919.265 190.445 919.089C189.037 918.785 188.021 918.377 187.397 917.865C186.789 917.337 186.485 916.625 186.485 915.729C186.485 915.041 186.685 914.425 187.085 913.881C187.485 913.321 188.037 912.889 188.741 912.585C189.445 912.281 190.245 912.129 191.141 912.129C191.781 912.129 192.405 912.217 193.013 912.393C193.621 912.553 194.157 912.793 194.621 913.113C195.149 913.465 195.413 913.873 195.413 914.337C195.413 914.593 195.333 914.809 195.173 914.985C195.029 915.161 194.853 915.249 194.645 915.249C194.501 915.249 194.357 915.217 194.213 915.153C194.069 915.089 193.877 914.985 193.637 914.841C193.205 914.585 192.797 914.385 192.413 914.241C192.045 914.097 191.581 914.025 191.021 914.025C190.349 914.025 189.805 914.169 189.389 914.457C188.989 914.745 188.789 915.137 188.789 915.633C188.789 916.081 188.973 916.433 189.341 916.689C189.725 916.929 190.437 917.161 191.477 917.385C192.549 917.609 193.389 917.865 193.997 918.153C194.605 918.441 195.037 918.801 195.293 919.233C195.565 919.649 195.701 920.185 195.701 920.841C195.701 921.881 195.261 922.721 194.381 923.361C193.517 923.985 192.357 924.297 190.901 924.297Z" fill="black"/>
<rect x="13" y="1079.01" width="285" height="248.991" rx="20" fill="white"/>
<ellipse cx="20" cy="1086.01" rx="20" ry="20.0146" fill="#F7F4D7"/>
<path d="M24.816 1087.89C25.024 1087.89 25.184 1087.95 25.296 1088.08C25.408 1088.19 25.464 1088.35 25.464 1088.54C25.464 1088.73 25.4 1088.88 25.272 1088.99C25.16 1089.11 25 1089.16 24.792 1089.16H22.656L22.392 1092.43C22.376 1092.63 22.296 1092.8 22.152 1092.93C22.008 1093.06 21.84 1093.12 21.648 1093.12C21.44 1093.12 21.264 1093.05 21.12 1092.91C20.976 1092.76 20.912 1092.58 20.928 1092.35L21.192 1089.16H13.872C13.648 1089.16 13.456 1089.11 13.296 1088.99C13.152 1088.88 13.08 1088.73 13.08 1088.54C13.08 1088.36 13.16 1088.17 13.32 1087.96L22.272 1076.32C22.48 1076.07 22.72 1075.94 22.992 1075.94C23.2 1075.94 23.36 1076 23.472 1076.13C23.6 1076.26 23.656 1076.43 23.64 1076.66L22.752 1087.89H24.816ZM14.976 1087.89H21.288L22.008 1078.75L14.976 1087.89Z" fill="black"/>
<g clip-path="url(#clip1)">
<path d="M194.483 1169.57C193.935 1169.34 193.304 1169.47 192.884 1169.89L176.843 1185.93C176.424 1186.35 176.298 1186.98 176.525 1187.53C176.752 1188.08 177.288 1188.43 177.882 1188.43H193.922C194.733 1188.43 195.39 1187.78 195.39 1186.97V1170.93C195.389 1170.33 195.032 1169.8 194.483 1169.57ZM181.424 1185.5L192.454 1174.47V1185.5H181.424Z" fill="url(#paint19_linear)"/>
<path d="M205.094 1146.04C204.546 1145.82 203.914 1145.94 203.495 1146.36L199.099 1150.76V1120.87C199.099 1120.06 198.441 1119.4 197.631 1119.4H186.353L190.447 1115.31C190.448 1115.31 190.448 1115.31 190.449 1115.31L194.393 1111.36C195.238 1110.52 195.704 1109.39 195.704 1108.2C195.704 1107 195.238 1105.88 194.393 1105.03L189.832 1100.47C188.987 1099.63 187.863 1099.16 186.667 1099.16C185.472 1099.16 184.348 1099.63 183.503 1100.47L179.556 1104.42L174.787 1109.19L164.572 1119.4H119.012V1104.88C119.012 1104.07 118.355 1103.41 117.544 1103.41C111.179 1103.41 106 1108.59 106 1114.96V1177.3C106 1177.41 106.013 1177.51 106.035 1177.61C106.238 1180.31 107.406 1182.82 109.359 1184.73C111.446 1186.77 114.202 1187.89 117.119 1187.89H161.97L153.523 1196.33C153.103 1196.75 152.977 1197.38 153.205 1197.93C153.432 1198.48 153.967 1198.84 154.561 1198.84H204.532C205.343 1198.84 206 1198.18 206 1197.37V1147.4C206 1146.81 205.642 1146.27 205.094 1146.04ZM185.579 1102.55C186.179 1101.95 187.156 1101.95 187.756 1102.55L192.318 1107.11C192.918 1107.71 192.918 1108.69 192.318 1109.29L189.41 1112.19L182.67 1105.46L185.579 1102.55ZM180.594 1107.53L187.334 1114.27L184.64 1116.96L177.902 1110.22L180.594 1107.53ZM203.065 1163.89H200.357C199.546 1163.89 198.889 1164.55 198.889 1165.36C198.889 1166.17 199.546 1166.83 200.357 1166.83H203.065V1171.25H200.357C199.546 1171.25 198.889 1171.91 198.889 1172.72C198.889 1173.53 199.546 1174.19 200.357 1174.19H203.065V1178.61H200.357C199.546 1178.61 198.889 1179.27 198.889 1180.08C198.889 1180.89 199.546 1181.55 200.357 1181.55H203.065V1185.97H200.357C199.546 1185.97 198.889 1186.63 198.889 1187.44C198.889 1188.25 199.546 1188.9 200.357 1188.9H203.065V1195.9H158.104L172.93 1181.08C173.503 1180.51 173.503 1179.58 172.93 1179C172.864 1178.94 172.793 1178.88 172.719 1178.83C172.148 1178.44 171.361 1178.5 170.854 1179L164.905 1184.95H117.119C112.667 1184.95 109.084 1181.48 108.943 1177.03C108.951 1176.75 108.973 1176.48 109.007 1176.2C109.008 1176.2 109.008 1176.2 109.008 1176.2C109.024 1176.07 109.044 1175.94 109.067 1175.81C109.069 1175.8 109.072 1175.78 109.074 1175.77C109.095 1175.65 109.118 1175.54 109.143 1175.43C109.15 1175.39 109.158 1175.36 109.165 1175.33C109.187 1175.23 109.211 1175.14 109.237 1175.04C109.251 1174.99 109.266 1174.94 109.281 1174.89C109.302 1174.82 109.325 1174.74 109.348 1174.67C109.372 1174.59 109.397 1174.52 109.423 1174.45C109.44 1174.4 109.458 1174.35 109.477 1174.3C109.513 1174.2 109.551 1174.1 109.59 1174.01C109.601 1173.98 109.612 1173.96 109.623 1173.93C109.674 1173.81 109.726 1173.69 109.781 1173.58C109.783 1173.58 109.785 1173.57 109.788 1173.57C110.936 1171.19 113.144 1169.42 115.794 1168.87C115.801 1168.87 115.808 1168.87 115.816 1168.86C115.937 1168.84 116.06 1168.82 116.183 1168.8C116.204 1168.8 116.224 1168.79 116.245 1168.79C116.357 1168.77 116.47 1168.76 116.582 1168.74C116.614 1168.74 116.645 1168.74 116.677 1168.73C116.786 1168.72 116.896 1168.72 117.005 1168.71C117.04 1168.71 117.075 1168.7 117.11 1168.7C117.254 1168.69 117.398 1168.69 117.544 1168.69C118.355 1168.69 119.012 1168.03 119.012 1167.22V1156.58C119.012 1155.77 118.355 1155.11 117.544 1155.11C116.733 1155.11 116.076 1155.77 116.076 1156.58V1165.85C113.598 1166.16 111.297 1167.27 109.483 1169.04C109.292 1169.22 109.111 1169.42 108.935 1169.61V1114.96C108.935 1110.71 112.026 1107.17 116.076 1106.47V1120.87V1150.71V1150.71C116.076 1151.52 116.733 1152.18 117.544 1152.18C118.354 1152.18 119.012 1151.52 119.012 1150.71V1150.71V1122.34H161.637L153.523 1130.45C152.949 1131.02 152.949 1131.95 153.523 1132.53C154.096 1133.1 155.025 1133.1 155.598 1132.53L166.218 1121.91C166.218 1121.91 166.218 1121.91 166.219 1121.91L175.825 1112.3L182.564 1119.04L181.774 1119.83C181.773 1119.83 181.772 1119.83 181.772 1119.83L152.176 1149.43L145.437 1142.69L151.271 1136.85C151.844 1136.28 151.844 1135.35 151.271 1134.78C150.698 1134.21 149.768 1134.21 149.195 1134.78L142.324 1141.65C142.287 1141.69 142.252 1141.73 142.22 1141.77C142.209 1141.78 142.2 1141.79 142.19 1141.81C142.169 1141.83 142.149 1141.86 142.13 1141.89C142.119 1141.91 142.109 1141.93 142.099 1141.94C142.083 1141.97 142.067 1142 142.053 1142.03C142.044 1142.04 142.035 1142.06 142.027 1142.08C142.014 1142.11 142.001 1142.14 141.99 1142.17C141.986 1142.18 141.981 1142.19 141.978 1142.2L139.118 1150.3L137.168 1155.82C137.143 1155.9 137.124 1155.97 137.11 1156.05H132.229C131.418 1156.05 130.761 1156.7 130.761 1157.51C130.761 1158.33 131.418 1158.98 132.229 1158.98H172.876C173.687 1158.98 174.344 1158.33 174.344 1157.51C174.344 1156.7 173.687 1156.05 172.876 1156.05H143.714L152.665 1152.89C152.672 1152.88 152.679 1152.88 152.687 1152.88C152.721 1152.87 152.756 1152.85 152.789 1152.84C152.803 1152.83 152.816 1152.82 152.829 1152.82C152.865 1152.8 152.899 1152.78 152.933 1152.76C152.944 1152.75 152.955 1152.75 152.966 1152.74C153.001 1152.72 153.036 1152.69 153.07 1152.67C153.078 1152.66 153.087 1152.65 153.095 1152.65C153.136 1152.61 153.176 1152.58 153.214 1152.54L183.418 1122.34H196.163V1153.69L175.168 1174.69C174.594 1175.26 174.594 1176.19 175.168 1176.77C175.203 1176.8 175.241 1176.83 175.279 1176.87C175.548 1177.09 175.877 1177.2 176.205 1177.2C176.534 1177.2 176.863 1177.09 177.132 1176.87C177.17 1176.83 177.208 1176.8 177.243 1176.77C177.244 1176.76 177.243 1176.77 177.244 1176.76L203.065 1150.94V1163.89ZM149.492 1150.89L145.287 1152.38L142.486 1149.58L143.97 1145.37L149.492 1150.89Z" fill="url(#paint20_linear)"/>
</g>
<path d="M120.192 1267.13C119.808 1267.13 119.504 1267.02 119.28 1266.82C119.072 1266.59 118.968 1266.3 118.968 1265.93V1251.41C118.968 1251.04 119.072 1250.75 119.28 1250.54C119.504 1250.32 119.808 1250.21 120.192 1250.21H124.896C127.632 1250.21 129.752 1250.94 131.256 1252.42C132.76 1253.89 133.512 1255.97 133.512 1258.66C133.512 1261.34 132.76 1263.43 131.256 1264.92C129.752 1266.39 127.632 1267.13 124.896 1267.13H120.192ZM124.752 1265.06C128.912 1265.06 130.992 1262.93 130.992 1258.66C130.992 1254.4 128.912 1252.27 124.752 1252.27H121.44V1265.06H124.752ZM145.754 1264.18C145.978 1264.18 146.162 1264.26 146.306 1264.44C146.45 1264.62 146.522 1264.84 146.522 1265.11C146.522 1265.58 146.234 1265.97 145.658 1266.29C145.098 1266.61 144.482 1266.86 143.81 1267.03C143.154 1267.21 142.522 1267.3 141.914 1267.3C140.058 1267.3 138.594 1266.76 137.522 1265.69C136.45 1264.6 135.914 1263.12 135.914 1261.25C135.914 1260.05 136.146 1258.98 136.61 1258.06C137.09 1257.13 137.754 1256.41 138.602 1255.9C139.466 1255.38 140.442 1255.13 141.53 1255.13C143.098 1255.13 144.338 1255.63 145.25 1256.64C146.162 1257.65 146.618 1259.01 146.618 1260.72C146.618 1261.36 146.33 1261.68 145.754 1261.68H138.338C138.498 1264.16 139.69 1265.4 141.914 1265.4C142.506 1265.4 143.018 1265.32 143.45 1265.16C143.882 1265 144.338 1264.79 144.818 1264.54C144.866 1264.5 144.994 1264.44 145.202 1264.34C145.426 1264.23 145.61 1264.18 145.754 1264.18ZM141.578 1256.9C140.65 1256.9 139.906 1257.2 139.346 1257.79C138.786 1258.38 138.45 1259.22 138.338 1260.29H144.53C144.482 1259.2 144.202 1258.37 143.69 1257.79C143.194 1257.2 142.49 1256.9 141.578 1256.9ZM153.369 1267.3C151.737 1267.3 150.401 1266.96 149.361 1266.29C149.073 1266.11 148.865 1265.93 148.737 1265.74C148.625 1265.54 148.569 1265.33 148.569 1265.09C148.569 1264.83 148.641 1264.62 148.785 1264.44C148.929 1264.26 149.113 1264.18 149.337 1264.18C149.545 1264.18 149.873 1264.3 150.321 1264.56C150.801 1264.82 151.265 1265.02 151.713 1265.18C152.177 1265.34 152.753 1265.42 153.441 1265.42C154.209 1265.42 154.809 1265.29 155.241 1265.02C155.673 1264.74 155.889 1264.36 155.889 1263.86C155.889 1263.54 155.801 1263.29 155.625 1263.1C155.465 1262.9 155.177 1262.74 154.761 1262.59C154.345 1262.43 153.729 1262.26 152.913 1262.09C151.505 1261.78 150.489 1261.38 149.865 1260.86C149.257 1260.34 148.953 1259.62 148.953 1258.73C148.953 1258.04 149.153 1257.42 149.553 1256.88C149.953 1256.32 150.505 1255.89 151.209 1255.58C151.913 1255.28 152.713 1255.13 153.609 1255.13C154.249 1255.13 154.873 1255.22 155.481 1255.39C156.089 1255.55 156.625 1255.79 157.089 1256.11C157.617 1256.46 157.881 1256.87 157.881 1257.34C157.881 1257.59 157.801 1257.81 157.641 1257.98C157.497 1258.16 157.321 1258.25 157.113 1258.25C156.969 1258.25 156.825 1258.22 156.681 1258.15C156.537 1258.09 156.345 1257.98 156.105 1257.84C155.673 1257.58 155.265 1257.38 154.881 1257.24C154.513 1257.1 154.049 1257.02 153.489 1257.02C152.817 1257.02 152.273 1257.17 151.857 1257.46C151.457 1257.74 151.257 1258.14 151.257 1258.63C151.257 1259.08 151.441 1259.43 151.809 1259.69C152.193 1259.93 152.905 1260.16 153.945 1260.38C155.017 1260.61 155.857 1260.86 156.465 1261.15C157.073 1261.44 157.505 1261.8 157.761 1262.23C158.033 1262.65 158.169 1263.18 158.169 1263.84C158.169 1264.88 157.729 1265.72 156.849 1266.36C155.985 1266.98 154.825 1267.3 153.369 1267.3ZM162.092 1267.25C161.74 1267.25 161.444 1267.15 161.204 1266.96C160.98 1266.77 160.868 1266.48 160.868 1266.1V1256.35C160.868 1255.97 160.98 1255.68 161.204 1255.49C161.444 1255.28 161.74 1255.18 162.092 1255.18C162.444 1255.18 162.732 1255.28 162.956 1255.49C163.18 1255.68 163.292 1255.97 163.292 1256.35V1266.1C163.292 1266.48 163.18 1266.77 162.956 1266.96C162.732 1267.15 162.444 1267.25 162.092 1267.25ZM162.092 1252.82C161.628 1252.82 161.26 1252.7 160.988 1252.44C160.716 1252.18 160.58 1251.85 160.58 1251.43C160.58 1251.02 160.716 1250.69 160.988 1250.45C161.26 1250.19 161.628 1250.06 162.092 1250.06C162.54 1250.06 162.9 1250.19 163.172 1250.45C163.46 1250.69 163.604 1251.02 163.604 1251.43C163.604 1251.85 163.468 1252.18 163.196 1252.44C162.924 1252.7 162.556 1252.82 162.092 1252.82ZM176.376 1255.18C176.744 1255.18 177.032 1255.29 177.24 1255.51C177.464 1255.72 177.576 1256 177.576 1256.35V1266.19C177.576 1267.98 177.096 1269.34 176.136 1270.25C175.192 1271.16 173.792 1271.62 171.936 1271.62C170.208 1271.62 168.768 1271.29 167.616 1270.63C167.024 1270.3 166.728 1269.9 166.728 1269.43C166.728 1269.16 166.8 1268.94 166.944 1268.76C167.104 1268.58 167.296 1268.5 167.52 1268.5C167.728 1268.5 168.056 1268.62 168.504 1268.86C169.08 1269.13 169.616 1269.34 170.112 1269.48C170.608 1269.64 171.2 1269.72 171.888 1269.72C174.096 1269.72 175.2 1268.61 175.2 1266.38V1264.54C174.864 1265.24 174.352 1265.79 173.664 1266.19C172.976 1266.58 172.176 1266.77 171.264 1266.77C170.24 1266.77 169.328 1266.53 168.528 1266.05C167.728 1265.57 167.104 1264.89 166.656 1264.01C166.224 1263.13 166.008 1262.11 166.008 1260.96C166.008 1259.81 166.232 1258.79 166.68 1257.91C167.128 1257.03 167.744 1256.35 168.528 1255.87C169.328 1255.38 170.24 1255.13 171.264 1255.13C172.16 1255.13 172.944 1255.32 173.616 1255.7C174.304 1256.09 174.824 1256.63 175.176 1257.34V1256.33C175.176 1255.98 175.28 1255.7 175.488 1255.49C175.712 1255.28 176.008 1255.18 176.376 1255.18ZM171.84 1264.85C172.88 1264.85 173.696 1264.5 174.288 1263.82C174.88 1263.13 175.176 1262.18 175.176 1260.96C175.176 1259.76 174.88 1258.82 174.288 1258.13C173.712 1257.42 172.896 1257.07 171.84 1257.07C170.784 1257.07 169.952 1257.42 169.344 1258.1C168.752 1258.79 168.456 1259.74 168.456 1260.96C168.456 1262.18 168.76 1263.13 169.368 1263.82C169.976 1264.5 170.8 1264.85 171.84 1264.85ZM187.265 1255.13C190.065 1255.13 191.465 1256.7 191.465 1259.86V1266.1C191.465 1266.46 191.353 1266.75 191.129 1266.96C190.921 1267.15 190.625 1267.25 190.241 1267.25C189.873 1267.25 189.577 1267.14 189.353 1266.94C189.145 1266.73 189.041 1266.45 189.041 1266.1V1259.98C189.041 1258.98 188.841 1258.26 188.441 1257.79C188.057 1257.33 187.449 1257.1 186.617 1257.1C185.641 1257.1 184.857 1257.4 184.265 1258.01C183.673 1258.62 183.377 1259.43 183.377 1260.46V1266.1C183.377 1266.45 183.265 1266.73 183.041 1266.94C182.833 1267.14 182.545 1267.25 182.177 1267.25C181.809 1267.25 181.513 1267.14 181.289 1266.94C181.065 1266.73 180.953 1266.45 180.953 1266.1V1256.33C180.953 1255.99 181.065 1255.72 181.289 1255.51C181.529 1255.29 181.825 1255.18 182.177 1255.18C182.529 1255.18 182.809 1255.28 183.017 1255.49C183.225 1255.7 183.329 1255.97 183.329 1256.3V1257.29C183.713 1256.58 184.249 1256.05 184.937 1255.68C185.625 1255.31 186.401 1255.13 187.265 1255.13Z" fill="black"/>
<rect x="13" y="1422.01" width="285" height="248.991" rx="20" fill="white"/>
<ellipse cx="20" cy="1429.01" rx="20" ry="20.0146" fill="#F7F4D7"/>
<path d="M16.776 1420.35L16.248 1427C16.712 1426.52 17.28 1426.15 17.952 1425.9C18.624 1425.63 19.328 1425.49 20.064 1425.49C21.056 1425.49 21.928 1425.7 22.68 1426.11C23.448 1426.51 24.04 1427.08 24.456 1427.82C24.872 1428.55 25.08 1429.4 25.08 1430.36C25.08 1431.5 24.832 1432.51 24.336 1433.39C23.856 1434.27 23.176 1434.95 22.296 1435.45C21.416 1435.93 20.408 1436.17 19.272 1436.17C18.312 1436.17 17.376 1436 16.464 1435.67C15.568 1435.33 14.8 1434.87 14.16 1434.3C13.968 1434.12 13.872 1433.91 13.872 1433.67C13.872 1433.5 13.928 1433.35 14.04 1433.22C14.168 1433.07 14.32 1433 14.496 1433C14.704 1433 14.888 1433.07 15.048 1433.22C16.36 1434.32 17.784 1434.87 19.32 1434.87C20.616 1434.87 21.648 1434.47 22.416 1433.67C23.184 1432.86 23.568 1431.78 23.568 1430.43C23.568 1429.33 23.232 1428.45 22.56 1427.79C21.904 1427.12 21.032 1426.79 19.944 1426.79C18.264 1426.79 16.92 1427.43 15.912 1428.73C15.752 1428.92 15.544 1429.02 15.288 1429.02C15.096 1429.02 14.936 1428.95 14.808 1428.83C14.696 1428.68 14.648 1428.48 14.664 1428.23L15.336 1419.83C15.352 1419.6 15.432 1419.43 15.576 1419.3C15.72 1419.15 15.904 1419.08 16.128 1419.08H24.744C24.968 1419.08 25.136 1419.14 25.248 1419.25C25.376 1419.36 25.44 1419.51 25.44 1419.71C25.44 1419.91 25.376 1420.07 25.248 1420.19C25.136 1420.3 24.968 1420.35 24.744 1420.35H16.776Z" fill="black"/>
<g clip-path="url(#clip2)">
<path d="M140.277 1470.32H124.652C123.034 1470.32 121.723 1471.63 121.723 1473.25C121.723 1474.87 123.034 1476.18 124.652 1476.18H140.277C141.895 1476.18 143.207 1474.87 143.207 1473.25C143.207 1471.63 141.895 1470.32 140.277 1470.32Z" fill="url(#paint21_linear)"/>
<path d="M140.277 1485.95H124.652C123.034 1485.95 121.723 1487.26 121.723 1488.88C121.723 1490.49 123.034 1491.8 124.652 1491.8H140.277C141.895 1491.8 143.207 1490.49 143.207 1488.88C143.207 1487.26 141.895 1485.95 140.277 1485.95Z" fill="url(#paint22_linear)"/>
<path d="M140.277 1501.57H124.652C123.034 1501.57 121.723 1502.88 121.723 1504.5C121.723 1506.12 123.034 1507.43 124.652 1507.43H140.277C141.895 1507.43 143.207 1506.12 143.207 1504.5C143.207 1502.88 141.895 1501.57 140.277 1501.57Z" fill="url(#paint23_linear)"/>
<path d="M182.27 1495.7V1468.95C182.27 1465.09 180.781 1461.45 178.077 1458.69L166.19 1446.4C166.184 1446.39 166.179 1446.39 166.173 1446.38C163.436 1443.6 159.628 1442 155.725 1442H118.012C113.165 1442 109.223 1445.94 109.223 1450.79V1526.77C109.223 1531.61 113.165 1535.55 118.012 1535.55H163.292C167.467 1539.55 173.122 1542 179.34 1542C192.263 1542 202.777 1531.57 202.777 1518.76C202.777 1506.93 193.815 1497.13 182.27 1495.7ZM115.082 1526.77V1450.79C115.082 1449.17 116.396 1447.86 118.012 1447.86H155.725C158.063 1447.86 160.345 1448.81 161.988 1450.48L173.872 1462.77C173.878 1462.78 173.884 1462.78 173.889 1462.79C175.515 1464.44 176.41 1466.63 176.41 1468.95V1495.7C164.972 1497.14 156.098 1506.93 156.098 1518.76C156.098 1522.71 157.09 1526.43 158.837 1529.7H118.012C116.396 1529.7 115.082 1528.38 115.082 1526.77ZM179.34 1536.14C169.755 1536.14 161.957 1528.34 161.957 1518.76C161.957 1509.17 169.755 1501.38 179.34 1501.38C189.032 1501.38 196.918 1509.17 196.918 1518.76C196.918 1528.34 189.032 1536.14 179.34 1536.14Z" fill="url(#paint24_linear)"/>
<path d="M186.098 1511.82C184.856 1510.78 183.008 1510.95 181.972 1512.19L177.027 1518.13L175.906 1515.89C175.182 1514.44 173.422 1513.85 171.975 1514.58C170.528 1515.3 169.941 1517.06 170.665 1518.51L173.79 1524.76C174.232 1525.64 175.091 1526.24 176.073 1526.36C176.186 1526.37 176.298 1526.38 176.411 1526.38C177.274 1526.38 178.101 1525.99 178.661 1525.32L186.474 1515.95C187.509 1514.7 187.341 1512.86 186.098 1511.82V1511.82Z" fill="url(#paint25_linear)"/>
<path d="M155.902 1476.18H159.027C160.645 1476.18 161.957 1474.87 161.957 1473.25C161.957 1471.63 160.645 1470.32 159.027 1470.32H155.902C154.284 1470.32 152.973 1471.63 152.973 1473.25C152.973 1474.87 154.284 1476.18 155.902 1476.18Z" fill="url(#paint26_linear)"/>
<path d="M161.957 1488.88C161.957 1487.26 160.645 1485.95 159.027 1485.95H155.902C154.284 1485.95 152.973 1487.26 152.973 1488.88C152.973 1490.49 154.284 1491.8 155.902 1491.8H159.027C160.645 1491.8 161.957 1490.49 161.957 1488.88Z" fill="url(#paint27_linear)"/>
</g>
<path d="M140.248 1617.12C139.88 1617.12 139.576 1617.01 139.336 1616.78C139.112 1616.54 139 1616.24 139 1615.87V1602.14H134.2C133.432 1602.14 133.048 1601.8 133.048 1601.11C133.048 1600.78 133.144 1600.52 133.336 1600.34C133.544 1600.17 133.832 1600.08 134.2 1600.08H146.296C146.664 1600.08 146.944 1600.17 147.136 1600.34C147.344 1600.52 147.448 1600.78 147.448 1601.11C147.448 1601.8 147.064 1602.14 146.296 1602.14H141.496V1615.87C141.496 1616.24 141.384 1616.54 141.16 1616.78C140.936 1617.01 140.632 1617.12 140.248 1617.12ZM156.528 1614.05C156.752 1614.05 156.936 1614.14 157.08 1614.31C157.224 1614.49 157.296 1614.71 157.296 1614.98C157.296 1615.45 157.008 1615.84 156.432 1616.16C155.872 1616.48 155.256 1616.73 154.584 1616.9C153.928 1617.08 153.296 1617.17 152.688 1617.17C150.832 1617.17 149.368 1616.63 148.296 1615.56C147.224 1614.47 146.688 1612.99 146.688 1611.12C146.688 1609.92 146.92 1608.86 147.384 1607.93C147.864 1607 148.528 1606.28 149.376 1605.77C150.24 1605.26 151.216 1605 152.304 1605C153.872 1605 155.112 1605.5 156.024 1606.51C156.936 1607.52 157.392 1608.88 157.392 1610.59C157.392 1611.23 157.104 1611.55 156.528 1611.55H149.112C149.272 1614.03 150.464 1615.27 152.688 1615.27C153.28 1615.27 153.792 1615.19 154.224 1615.03C154.656 1614.87 155.112 1614.66 155.592 1614.41C155.64 1614.38 155.768 1614.31 155.976 1614.22C156.2 1614.1 156.384 1614.05 156.528 1614.05ZM152.352 1606.78C151.424 1606.78 150.68 1607.07 150.12 1607.66C149.56 1608.26 149.224 1609.09 149.112 1610.16H155.304C155.256 1609.07 154.976 1608.24 154.464 1607.66C153.968 1607.07 153.264 1606.78 152.352 1606.78ZM164.143 1617.17C162.511 1617.17 161.175 1616.83 160.135 1616.16C159.847 1615.98 159.639 1615.8 159.511 1615.61C159.399 1615.42 159.343 1615.2 159.343 1614.96C159.343 1614.7 159.415 1614.49 159.559 1614.31C159.703 1614.14 159.887 1614.05 160.111 1614.05C160.319 1614.05 160.647 1614.18 161.095 1614.43C161.575 1614.69 162.039 1614.9 162.487 1615.06C162.951 1615.22 163.527 1615.3 164.215 1615.3C164.983 1615.3 165.583 1615.16 166.015 1614.89C166.447 1614.62 166.663 1614.23 166.663 1613.74C166.663 1613.42 166.575 1613.16 166.399 1612.97C166.239 1612.78 165.951 1612.61 165.535 1612.46C165.119 1612.3 164.503 1612.14 163.687 1611.96C162.279 1611.66 161.263 1611.25 160.639 1610.74C160.031 1610.21 159.727 1609.5 159.727 1608.6C159.727 1607.91 159.927 1607.3 160.327 1606.75C160.727 1606.19 161.279 1605.76 161.983 1605.46C162.687 1605.15 163.487 1605 164.383 1605C165.023 1605 165.647 1605.09 166.255 1605.26C166.863 1605.42 167.399 1605.66 167.863 1605.98C168.391 1606.34 168.655 1606.74 168.655 1607.21C168.655 1607.46 168.575 1607.68 168.415 1607.86C168.271 1608.03 168.095 1608.12 167.887 1608.12C167.743 1608.12 167.599 1608.09 167.455 1608.02C167.311 1607.96 167.119 1607.86 166.879 1607.71C166.447 1607.46 166.039 1607.26 165.655 1607.11C165.287 1606.97 164.823 1606.9 164.263 1606.9C163.591 1606.9 163.047 1607.04 162.631 1607.33C162.231 1607.62 162.031 1608.01 162.031 1608.5C162.031 1608.95 162.215 1609.3 162.583 1609.56C162.967 1609.8 163.679 1610.03 164.719 1610.26C165.791 1610.48 166.631 1610.74 167.239 1611.02C167.847 1611.31 168.279 1611.67 168.535 1612.1C168.807 1612.52 168.943 1613.06 168.943 1613.71C168.943 1614.75 168.503 1615.59 167.623 1616.23C166.759 1616.86 165.599 1617.17 164.143 1617.17ZM177.26 1615.27C177.612 1615.3 177.86 1615.4 178.004 1615.56C178.164 1615.7 178.244 1615.91 178.244 1616.18C178.244 1616.5 178.116 1616.75 177.86 1616.93C177.62 1617.09 177.26 1617.15 176.78 1617.12L176.132 1617.07C174.836 1616.98 173.868 1616.58 173.228 1615.9C172.588 1615.19 172.268 1614.16 172.268 1612.8V1607.16H170.828C170.124 1607.16 169.772 1606.85 169.772 1606.22C169.772 1605.94 169.86 1605.71 170.036 1605.55C170.228 1605.38 170.492 1605.29 170.828 1605.29H172.268V1602.82C172.268 1602.45 172.372 1602.16 172.58 1601.95C172.804 1601.74 173.1 1601.64 173.468 1601.64C173.836 1601.64 174.132 1601.74 174.356 1601.95C174.58 1602.16 174.692 1602.45 174.692 1602.82V1605.29H177.068C177.404 1605.29 177.66 1605.38 177.836 1605.55C178.028 1605.71 178.124 1605.94 178.124 1606.22C178.124 1606.53 178.028 1606.76 177.836 1606.92C177.66 1607.08 177.404 1607.16 177.068 1607.16H174.692V1612.97C174.692 1613.72 174.844 1614.27 175.148 1614.62C175.468 1614.98 175.948 1615.18 176.588 1615.22L177.26 1615.27Z" fill="black"/>
<rect x="13" y="1765.01" width="285" height="248.991" rx="20" fill="white"/>
<ellipse cx="20" cy="1772.01" rx="20" ry="20.0146" fill="#F7F4D7"/>
<path d="M25.584 1763.88C25.776 1764.09 25.872 1764.31 25.872 1764.53C25.872 1764.72 25.816 1764.88 25.704 1765.01C25.592 1765.14 25.448 1765.2 25.272 1765.2C25.096 1765.2 24.896 1765.11 24.672 1764.91C24.112 1764.37 23.472 1763.95 22.752 1763.64C22.048 1763.34 21.312 1763.19 20.544 1763.19C19.008 1763.19 17.768 1763.83 16.824 1765.13C15.896 1766.41 15.336 1768.25 15.144 1770.65L15.072 1771.51C15.504 1770.59 16.136 1769.85 16.968 1769.31C17.8 1768.76 18.744 1768.49 19.8 1768.49C20.84 1768.49 21.76 1768.71 22.56 1769.14C23.36 1769.55 23.976 1770.15 24.408 1770.94C24.84 1771.71 25.056 1772.59 25.056 1773.6C25.056 1774.67 24.816 1775.63 24.336 1776.48C23.872 1777.33 23.216 1777.99 22.368 1778.47C21.536 1778.95 20.6 1779.19 19.56 1779.19C17.656 1779.19 16.184 1778.57 15.144 1777.32C14.12 1776.07 13.608 1774.29 13.608 1771.97C13.608 1769.94 13.888 1768.16 14.448 1766.64C15.024 1765.12 15.832 1763.95 16.872 1763.14C17.928 1762.31 19.152 1761.89 20.544 1761.89C21.536 1761.89 22.464 1762.06 23.328 1762.39C24.208 1762.73 24.96 1763.23 25.584 1763.88ZM19.632 1769.79C18.848 1769.79 18.136 1769.97 17.496 1770.34C16.872 1770.69 16.384 1771.19 16.032 1771.85C15.68 1772.49 15.504 1773.21 15.504 1774.01C15.504 1775.18 15.872 1776.12 16.608 1776.84C17.36 1777.55 18.344 1777.9 19.56 1777.9C20.744 1777.9 21.704 1777.51 22.44 1776.72C23.176 1775.92 23.544 1774.88 23.544 1773.6C23.544 1772.45 23.184 1771.53 22.464 1770.84C21.76 1770.14 20.816 1769.79 19.632 1769.79Z" fill="black"/>
<path d="M107.965 1884.71C109.05 1884.71 109.93 1883.83 109.93 1882.74C109.93 1881.66 109.05 1880.78 107.965 1880.78C106.88 1880.78 106 1881.66 106 1882.74C106 1883.83 106.88 1884.71 107.965 1884.71Z" fill="url(#paint28_linear)"/>
<path d="M158.149 1834.87C159.232 1834.87 160.11 1833.99 160.11 1832.91C160.11 1831.83 159.232 1830.95 158.149 1830.95C157.066 1830.95 156.188 1831.83 156.188 1832.91C156.188 1833.99 157.066 1834.87 158.149 1834.87Z" fill="url(#paint29_linear)"/>
<path d="M183.828 1808.05C182.252 1806.48 180.156 1805.61 177.927 1805.61C175.697 1805.61 173.601 1806.48 172.025 1808.05C168.771 1811.31 168.771 1816.6 172.025 1819.86C173.652 1821.48 175.789 1822.3 177.927 1822.3C180.064 1822.3 182.201 1821.48 183.828 1819.86C187.082 1816.6 187.082 1811.31 183.828 1808.05ZM181.055 1817.08C179.33 1818.81 176.523 1818.81 174.798 1817.08C173.073 1815.36 173.073 1812.55 174.798 1810.83C175.634 1809.99 176.745 1809.53 177.927 1809.53C179.108 1809.53 180.219 1809.99 181.055 1810.83C182.78 1812.55 182.78 1815.36 181.055 1817.08Z" fill="url(#paint30_linear)"/>
<path d="M130.494 1865.36C129.524 1864.88 128.347 1865.27 127.865 1866.24L125.529 1870.93C124.513 1872.97 122.471 1874.34 120.198 1874.49L117.481 1874.68C117.022 1874.71 116.72 1874.48 116.581 1874.34C116.441 1874.2 116.212 1873.9 116.243 1873.44L116.429 1870.72C116.585 1868.45 117.948 1866.41 119.987 1865.39L124.678 1863.06C125.647 1862.57 126.042 1861.4 125.559 1860.43C125.076 1859.46 123.899 1859.06 122.93 1859.55L118.239 1861.88C114.96 1863.51 112.767 1866.8 112.516 1870.45L112.33 1873.17C112.23 1874.64 112.768 1876.07 113.807 1877.11C114.764 1878.07 116.058 1878.6 117.402 1878.6C117.517 1878.6 117.633 1878.6 117.749 1878.59L120.466 1878.4C124.121 1878.15 127.406 1875.96 129.039 1872.68L131.375 1867.99C131.858 1867.02 131.463 1865.84 130.494 1865.36Z" fill="url(#paint31_linear)"/>
<path d="M204.647 1786.6C203.726 1785.69 202.459 1785.22 201.171 1785.3L199.346 1785.42C182.975 1786.46 167.654 1794.36 157.311 1807.1L153.014 1812.39L141.767 1812.06C141.748 1812.06 141.729 1812.06 141.71 1812.06C132.79 1812.06 124.404 1815.53 118.097 1821.84L106.578 1833.36C106.03 1833.91 105.856 1834.72 106.134 1835.45C106.412 1836.17 107.09 1836.66 107.864 1836.7L132.247 1837.96L131.253 1839.18C130.752 1839.8 130.673 1840.65 131.053 1841.35C131.435 1842.05 131.835 1842.75 132.253 1843.43L126.47 1850.29C125.976 1850.88 125.87 1851.7 126.198 1852.39C127.461 1855.06 129.137 1857.46 131.181 1859.52C133.274 1861.63 135.722 1863.36 138.456 1864.65C138.723 1864.78 139.01 1864.84 139.295 1864.84C139.736 1864.84 140.174 1864.69 140.53 1864.4C141.776 1863.39 143.212 1862.19 144.601 1861.03C145.591 1860.21 146.604 1859.36 147.551 1858.58C148.116 1858.92 148.688 1859.25 149.269 1859.57C149.562 1859.73 149.884 1859.81 150.205 1859.81C150.632 1859.81 151.056 1859.67 151.408 1859.4L152.744 1858.36L154.002 1882.84C154.042 1883.62 154.534 1884.3 155.257 1884.57C155.486 1884.66 155.724 1884.71 155.96 1884.71C156.471 1884.71 156.972 1884.51 157.347 1884.13L168.866 1872.61C175.173 1866.3 178.647 1857.92 178.647 1849V1838.26L183.191 1834.73C196.81 1824.16 205.104 1808.23 205.947 1791.01L205.994 1790.05C206.058 1788.76 205.566 1787.5 204.647 1786.6ZM112.469 1833.01L120.87 1824.61C126.43 1819.05 133.82 1815.99 141.681 1815.98L149.901 1816.22L135.309 1834.19L112.469 1833.01ZM142.089 1858.02C141.065 1858.88 140.016 1859.75 139.042 1860.55C137.158 1859.53 135.454 1858.26 133.965 1856.76C132.523 1855.3 131.295 1853.65 130.306 1851.82L134.539 1846.8C135.819 1848.52 137.22 1850.14 138.734 1851.67C138.735 1851.67 138.737 1851.67 138.738 1851.67C138.738 1851.67 138.738 1851.67 138.739 1851.67C138.739 1851.67 138.74 1851.67 138.741 1851.67C140.419 1853.36 142.224 1854.91 144.139 1856.31C143.463 1856.88 142.77 1857.45 142.089 1858.02ZM174.726 1849C174.726 1856.87 171.66 1864.27 166.094 1869.84L157.693 1878.24L156.521 1855.43L174.725 1841.3V1849H174.726ZM202.031 1790.82C201.244 1806.89 193.501 1821.77 180.787 1831.63L150.033 1855.5C147.483 1854.01 145.106 1852.25 142.93 1850.25L153.299 1839.89C154.064 1839.12 154.064 1837.88 153.299 1837.11C152.533 1836.35 151.291 1836.35 150.525 1837.11L140.167 1847.47C138.262 1845.36 136.576 1843.07 135.139 1840.62L160.355 1809.57C170.01 1797.68 184.313 1790.31 199.595 1789.33L201.421 1789.22C201.66 1789.2 201.82 1789.32 201.894 1789.39C201.968 1789.46 202.09 1789.62 202.078 1789.86L202.031 1790.82Z" fill="url(#paint32_linear)"/>
<path d="M120.192 1953.13C119.808 1953.13 119.504 1953.02 119.28 1952.82C119.072 1952.59 118.968 1952.3 118.968 1951.93V1937.41C118.968 1937.04 119.072 1936.75 119.28 1936.54C119.504 1936.32 119.808 1936.21 120.192 1936.21H124.896C127.632 1936.21 129.752 1936.94 131.256 1938.42C132.76 1939.89 133.512 1941.97 133.512 1944.66C133.512 1947.34 132.76 1949.43 131.256 1950.92C129.752 1952.39 127.632 1953.13 124.896 1953.13H120.192ZM124.752 1951.06C128.912 1951.06 130.992 1948.93 130.992 1944.66C130.992 1940.4 128.912 1938.27 124.752 1938.27H121.44V1951.06H124.752ZM145.754 1950.18C145.978 1950.18 146.162 1950.26 146.306 1950.44C146.45 1950.62 146.522 1950.84 146.522 1951.11C146.522 1951.58 146.234 1951.97 145.658 1952.29C145.098 1952.61 144.482 1952.86 143.81 1953.03C143.154 1953.21 142.522 1953.3 141.914 1953.3C140.058 1953.3 138.594 1952.76 137.522 1951.69C136.45 1950.6 135.914 1949.12 135.914 1947.25C135.914 1946.05 136.146 1944.98 136.61 1944.06C137.09 1943.13 137.754 1942.41 138.602 1941.9C139.466 1941.38 140.442 1941.13 141.53 1941.13C143.098 1941.13 144.338 1941.63 145.25 1942.64C146.162 1943.65 146.618 1945.01 146.618 1946.72C146.618 1947.36 146.33 1947.68 145.754 1947.68H138.338C138.498 1950.16 139.69 1951.4 141.914 1951.4C142.506 1951.4 143.018 1951.32 143.45 1951.16C143.882 1951 144.338 1950.79 144.818 1950.54C144.866 1950.5 144.994 1950.44 145.202 1950.34C145.426 1950.23 145.61 1950.18 145.754 1950.18ZM141.578 1942.9C140.65 1942.9 139.906 1943.2 139.346 1943.79C138.786 1944.38 138.45 1945.22 138.338 1946.29H144.53C144.482 1945.2 144.202 1944.37 143.69 1943.79C143.194 1943.2 142.49 1942.9 141.578 1942.9ZM155.577 1941.13C156.585 1941.13 157.481 1941.38 158.265 1941.9C159.065 1942.41 159.681 1943.13 160.113 1944.06C160.561 1944.98 160.785 1946.06 160.785 1947.27C160.785 1948.47 160.569 1949.53 160.137 1950.44C159.705 1951.35 159.089 1952.06 158.289 1952.55C157.505 1953.05 156.601 1953.3 155.577 1953.3C154.697 1953.3 153.921 1953.11 153.249 1952.74C152.577 1952.36 152.065 1951.82 151.713 1951.11V1956.46C151.713 1956.8 151.601 1957.06 151.377 1957.26C151.169 1957.46 150.889 1957.57 150.537 1957.57C150.169 1957.57 149.865 1957.46 149.625 1957.26C149.401 1957.05 149.289 1956.77 149.289 1956.42V1942.35C149.289 1942 149.401 1941.72 149.625 1941.51C149.849 1941.29 150.145 1941.18 150.513 1941.18C150.865 1941.18 151.153 1941.29 151.377 1941.51C151.601 1941.72 151.713 1942 151.713 1942.35V1943.34C152.065 1942.63 152.577 1942.09 153.249 1941.7C153.921 1941.32 154.697 1941.13 155.577 1941.13ZM155.001 1951.38C156.057 1951.38 156.873 1951.02 157.449 1950.32C158.025 1949.6 158.313 1948.58 158.313 1947.27C158.313 1945.94 158.017 1944.91 157.425 1944.18C156.849 1943.44 156.041 1943.07 155.001 1943.07C153.945 1943.07 153.129 1943.43 152.553 1944.15C151.993 1944.87 151.713 1945.9 151.713 1947.22C151.713 1948.55 151.993 1949.58 152.553 1950.3C153.129 1951.02 153.945 1951.38 155.001 1951.38ZM164.693 1953.25C164.341 1953.25 164.045 1953.15 163.805 1952.96C163.581 1952.77 163.469 1952.48 163.469 1952.1V1937.26C163.469 1936.88 163.581 1936.59 163.805 1936.4C164.045 1936.19 164.341 1936.09 164.693 1936.09C165.045 1936.09 165.333 1936.19 165.557 1936.4C165.781 1936.59 165.893 1936.88 165.893 1937.26V1952.1C165.893 1952.48 165.781 1952.77 165.557 1952.96C165.333 1953.15 165.045 1953.25 164.693 1953.25ZM174.37 1953.3C173.218 1953.3 172.202 1953.05 171.322 1952.55C170.458 1952.06 169.786 1951.35 169.306 1950.44C168.842 1949.51 168.61 1948.44 168.61 1947.22C168.61 1945.99 168.842 1944.92 169.306 1944.01C169.786 1943.08 170.458 1942.37 171.322 1941.87C172.202 1941.38 173.218 1941.13 174.37 1941.13C175.522 1941.13 176.53 1941.38 177.394 1941.87C178.274 1942.37 178.946 1943.08 179.41 1944.01C179.89 1944.92 180.13 1945.99 180.13 1947.22C180.13 1948.44 179.89 1949.51 179.41 1950.44C178.946 1951.35 178.274 1952.06 177.394 1952.55C176.53 1953.05 175.522 1953.3 174.37 1953.3ZM174.37 1951.38C175.442 1951.38 176.258 1951.02 176.818 1950.32C177.394 1949.62 177.682 1948.58 177.682 1947.22C177.682 1945.88 177.394 1944.86 176.818 1944.15C176.242 1943.43 175.426 1943.07 174.37 1943.07C173.314 1943.07 172.498 1943.43 171.922 1944.15C171.346 1944.86 171.058 1945.88 171.058 1947.22C171.058 1948.58 171.338 1949.62 171.898 1950.32C172.474 1951.02 173.298 1951.38 174.37 1951.38ZM190.992 1941.9C191.088 1941.66 191.224 1941.48 191.4 1941.37C191.592 1941.26 191.792 1941.2 192 1941.2C192.304 1941.2 192.568 1941.3 192.792 1941.51C193.032 1941.72 193.152 1941.97 193.152 1942.26C193.152 1942.42 193.12 1942.57 193.056 1942.71L186.384 1956.87C186.288 1957.1 186.144 1957.26 185.952 1957.38C185.776 1957.5 185.584 1957.57 185.376 1957.57C185.088 1957.57 184.824 1957.47 184.584 1957.28C184.36 1957.09 184.248 1956.85 184.248 1956.56C184.248 1956.43 184.288 1956.27 184.368 1956.08L186.024 1952.55L181.392 1942.71C181.328 1942.58 181.296 1942.44 181.296 1942.28C181.296 1941.98 181.424 1941.72 181.68 1941.51C181.936 1941.3 182.224 1941.2 182.544 1941.2C183.024 1941.2 183.368 1941.42 183.576 1941.87L187.296 1950.13L190.992 1941.9Z" fill="black"/>
<defs>
<linearGradient id="paint0_linear" x1="165.846" y1="136.158" x2="165.846" y2="139.091" gradientUnits="userSpaceOnUse">
<stop stop-color="#5DBCD2"/>
<stop offset="1" stop-color="#2A99BF"/>
</linearGradient>
<linearGradient id="paint1_linear" x1="165.846" y1="144.195" x2="165.846" y2="147.127" gradientUnits="userSpaceOnUse">
<stop stop-color="#5DBCD2"/>
<stop offset="1" stop-color="#2A99BF"/>
</linearGradient>
<linearGradient id="paint2_linear" x1="165.846" y1="92.9934" x2="165.846" y2="129.773" gradientUnits="userSpaceOnUse">
<stop stop-color="#5DBCD2"/>
<stop offset="1" stop-color="#2A99BF"/>
</linearGradient>
<linearGradient id="paint3_linear" x1="156" y1="70.0239" x2="156" y2="170.096" gradientUnits="userSpaceOnUse">
<stop stop-color="#5DBCD2"/>
<stop offset="1" stop-color="#2A99BF"/>
</linearGradient>
<linearGradient id="paint4_linear" x1="155" y1="413" x2="155" y2="513" gradientUnits="userSpaceOnUse">
<stop stop-color="#5DBCD2"/>
<stop offset="1" stop-color="#2A99BF"/>
</linearGradient>
<linearGradient id="paint5_linear" x1="123.359" y1="481.359" x2="123.359" y2="485.266" gradientUnits="userSpaceOnUse">
<stop stop-color="#5DBCD2"/>
<stop offset="1" stop-color="#2A99BF"/>
</linearGradient>
<linearGradient id="paint6_linear" x1="137.795" y1="427.808" x2="137.795" y2="479.406" gradientUnits="userSpaceOnUse">
<stop stop-color="#5DBCD2"/>
<stop offset="1" stop-color="#2A99BF"/>
</linearGradient>
<linearGradient id="paint7_linear" x1="165.74" y1="474.642" x2="165.74" y2="505.175" gradientUnits="userSpaceOnUse">
<stop stop-color="#5DBCD2"/>
<stop offset="1" stop-color="#2A99BF"/>
</linearGradient>
<linearGradient id="paint8_linear" x1="175.644" y1="458.898" x2="175.644" y2="462.805" gradientUnits="userSpaceOnUse">
<stop stop-color="#5DBCD2"/>
<stop offset="1" stop-color="#2A99BF"/>
</linearGradient>
<linearGradient id="paint9_linear" x1="189.691" y1="458.898" x2="189.691" y2="462.805" gradientUnits="userSpaceOnUse">
<stop stop-color="#5DBCD2"/>
<stop offset="1" stop-color="#2A99BF"/>
</linearGradient>
<linearGradient id="paint10_linear" x1="182.419" y1="440.148" x2="182.419" y2="444.055" gradientUnits="userSpaceOnUse">
<stop stop-color="#5DBCD2"/>
<stop offset="1" stop-color="#2A99BF"/>
</linearGradient>
<linearGradient id="paint11_linear" x1="182.419" y1="449.523" x2="182.419" y2="453.43" gradientUnits="userSpaceOnUse">
<stop stop-color="#5DBCD2"/>
<stop offset="1" stop-color="#2A99BF"/>
</linearGradient>
<linearGradient id="paint12_linear" x1="131.391" y1="767.719" x2="131.391" y2="787.25" gradientUnits="userSpaceOnUse">
<stop stop-color="#5DBCD2"/>
<stop offset="1" stop-color="#2A99BF"/>
</linearGradient>
<linearGradient id="paint13_linear" x1="131.391" y1="756" x2="131.391" y2="806.781" gradientUnits="userSpaceOnUse">
<stop stop-color="#5DBCD2"/>
<stop offset="1" stop-color="#2A99BF"/>
</linearGradient>
<linearGradient id="paint14_linear" x1="180.609" y1="816.938" x2="180.609" y2="836.469" gradientUnits="userSpaceOnUse">
<stop stop-color="#5DBCD2"/>
<stop offset="1" stop-color="#2A99BF"/>
</linearGradient>
<linearGradient id="paint15_linear" x1="180.609" y1="805.219" x2="180.609" y2="856" gradientUnits="userSpaceOnUse">
<stop stop-color="#5DBCD2"/>
<stop offset="1" stop-color="#2A99BF"/>
</linearGradient>
<linearGradient id="paint16_linear" x1="134.516" y1="811.859" x2="134.516" y2="850.922" gradientUnits="userSpaceOnUse">
<stop stop-color="#5DBCD2"/>
<stop offset="1" stop-color="#2A99BF"/>
</linearGradient>
<linearGradient id="paint17_linear" x1="177.484" y1="761.078" x2="177.484" y2="800.141" gradientUnits="userSpaceOnUse">
<stop stop-color="#5DBCD2"/>
<stop offset="1" stop-color="#2A99BF"/>
</linearGradient>
<linearGradient id="paint18_linear" x1="187.836" y1="767.133" x2="187.836" y2="771.039" gradientUnits="userSpaceOnUse">
<stop stop-color="#5DBCD2"/>
<stop offset="1" stop-color="#2A99BF"/>
</linearGradient>
<linearGradient id="paint19_linear" x1="185.902" y1="1169.46" x2="185.902" y2="1188.43" gradientUnits="userSpaceOnUse">
<stop stop-color="#5DBCD2"/>
<stop offset="1" stop-color="#2A99BF"/>
</linearGradient>
<linearGradient id="paint20_linear" x1="156" y1="1099.16" x2="156" y2="1198.84" gradientUnits="userSpaceOnUse">
<stop stop-color="#5DBCD2"/>
<stop offset="1" stop-color="#2A99BF"/>
</linearGradient>
<linearGradient id="paint21_linear" x1="132.465" y1="1470.32" x2="132.465" y2="1476.18" gradientUnits="userSpaceOnUse">
<stop stop-color="#5DBCD2"/>
<stop offset="1" stop-color="#2A99BF"/>
</linearGradient>
<linearGradient id="paint22_linear" x1="132.465" y1="1485.95" x2="132.465" y2="1491.8" gradientUnits="userSpaceOnUse">
<stop stop-color="#5DBCD2"/>
<stop offset="1" stop-color="#2A99BF"/>
</linearGradient>
<linearGradient id="paint23_linear" x1="132.465" y1="1501.57" x2="132.465" y2="1507.43" gradientUnits="userSpaceOnUse">
<stop stop-color="#5DBCD2"/>
<stop offset="1" stop-color="#2A99BF"/>
</linearGradient>
<linearGradient id="paint24_linear" x1="156" y1="1442" x2="156" y2="1542" gradientUnits="userSpaceOnUse">
<stop stop-color="#5DBCD2"/>
<stop offset="1" stop-color="#2A99BF"/>
</linearGradient>
<linearGradient id="paint25_linear" x1="178.754" y1="1511.14" x2="178.754" y2="1526.38" gradientUnits="userSpaceOnUse">
<stop stop-color="#5DBCD2"/>
<stop offset="1" stop-color="#2A99BF"/>
</linearGradient>
<linearGradient id="paint26_linear" x1="157.465" y1="1470.32" x2="157.465" y2="1476.18" gradientUnits="userSpaceOnUse">
<stop stop-color="#5DBCD2"/>
<stop offset="1" stop-color="#2A99BF"/>
</linearGradient>
<linearGradient id="paint27_linear" x1="157.465" y1="1485.95" x2="157.465" y2="1491.8" gradientUnits="userSpaceOnUse">
<stop stop-color="#5DBCD2"/>
<stop offset="1" stop-color="#2A99BF"/>
</linearGradient>
<linearGradient id="paint28_linear" x1="107.965" y1="1880.78" x2="107.965" y2="1884.71" gradientUnits="userSpaceOnUse">
<stop stop-color="#5DBCD2"/>
<stop offset="1" stop-color="#2A99BF"/>
</linearGradient>
<linearGradient id="paint29_linear" x1="158.149" y1="1830.95" x2="158.149" y2="1834.87" gradientUnits="userSpaceOnUse">
<stop stop-color="#5DBCD2"/>
<stop offset="1" stop-color="#2A99BF"/>
</linearGradient>
<linearGradient id="paint30_linear" x1="177.927" y1="1805.61" x2="177.927" y2="1822.3" gradientUnits="userSpaceOnUse">
<stop stop-color="#5DBCD2"/>
<stop offset="1" stop-color="#2A99BF"/>
</linearGradient>
<linearGradient id="paint31_linear" x1="121.95" y1="1859.34" x2="121.95" y2="1878.6" gradientUnits="userSpaceOnUse">
<stop stop-color="#5DBCD2"/>
<stop offset="1" stop-color="#2A99BF"/>
</linearGradient>
<linearGradient id="paint32_linear" x1="156.001" y1="1785.29" x2="156.001" y2="1884.71" gradientUnits="userSpaceOnUse">
<stop stop-color="#5DBCD2"/>
<stop offset="1" stop-color="#2A99BF"/>
</linearGradient>
<clipPath id="clip0">
<rect width="100" height="100.073" fill="white" transform="translate(106 70.0239)"/>
</clipPath>
<clipPath id="clip1">
<rect width="100" height="100" fill="white" transform="translate(106 1099)"/>
</clipPath>
<clipPath id="clip2">
<rect width="100" height="100" fill="white" transform="translate(106 1442)"/>
</clipPath>
</defs>
</svg>
