<svg width="172" height="36" viewBox="0 0 172 36" fill="none" xmlns="http://www.w3.org/2000/svg">
<path d="M13.12 35.384C10.688 35.384 8.368 35.048 6.16 34.376C3.984 33.704 2.24 32.776 0.928 31.592C0.32 31.08 0.0160002 30.424 0.0160002 29.624C0.0160002 29.048 0.176 28.568 0.496 28.184C0.816 27.768 1.2 27.56 1.648 27.56C2.096 27.56 2.64 27.768 3.28 28.184C6.128 30.296 9.376 31.352 13.024 31.352C15.584 31.352 17.552 30.872 18.928 29.912C20.304 28.952 20.992 27.576 20.992 25.784C20.992 24.376 20.352 23.32 19.072 22.616C17.792 21.912 15.744 21.24 12.928 20.6C10.24 20.024 8.032 19.368 6.304 18.632C4.576 17.896 3.216 16.904 2.224 15.656C1.264 14.376 0.784 12.76 0.784 10.808C0.784 8.856 1.312 7.128 2.368 5.624C3.456 4.088 4.96 2.904 6.88 2.072C8.8 1.208 10.992 0.775997 13.456 0.775997C15.728 0.775997 17.824 1.096 19.744 1.736C21.664 2.376 23.296 3.32 24.64 4.568C25.28 5.112 25.6 5.768 25.6 6.536C25.6 7.08 25.424 7.56 25.072 7.976C24.752 8.392 24.368 8.6 23.92 8.6C23.504 8.6 22.976 8.392 22.336 7.976C20.864 6.856 19.472 6.056 18.16 5.576C16.88 5.064 15.328 4.808 13.504 4.808C11.04 4.808 9.12 5.32 7.744 6.344C6.368 7.336 5.68 8.728 5.68 10.52C5.68 12.056 6.288 13.224 7.504 14.024C8.72 14.792 10.672 15.496 13.36 16.136C16.176 16.776 18.448 17.448 20.176 18.152C21.936 18.824 23.328 19.768 24.352 20.984C25.408 22.168 25.936 23.704 25.936 25.592C25.936 27.512 25.392 29.224 24.304 30.728C23.248 32.2 21.744 33.352 19.792 34.184C17.872 34.984 15.648 35.384 13.12 35.384ZM49.5978 11.096C50.3338 11.096 50.9098 11.304 51.3258 11.72C51.7738 12.136 51.9978 12.712 51.9978 13.448V32.984C51.9978 33.656 51.7738 34.2 51.3258 34.616C50.8778 35.032 50.2858 35.24 49.5498 35.24C48.8778 35.24 48.3338 35.048 47.9178 34.664C47.5018 34.248 47.2938 33.704 47.2938 33.032V31.208C46.5578 32.552 45.5338 33.576 44.2218 34.28C42.9418 34.984 41.5018 35.336 39.9018 35.336C34.2058 35.336 31.3578 32.2 31.3578 25.928V13.448C31.3578 12.712 31.5658 12.136 31.9818 11.72C32.4298 11.304 33.0378 11.096 33.8058 11.096C34.5418 11.096 35.1178 11.304 35.5338 11.72C35.9818 12.136 36.2058 12.712 36.2058 13.448V25.88C36.2058 27.768 36.5898 29.16 37.3578 30.056C38.1258 30.952 39.3098 31.4 40.9098 31.4C42.7978 31.4 44.3018 30.792 45.4218 29.576C46.5738 28.36 47.1498 26.744 47.1498 24.728V13.448C47.1498 12.744 47.3738 12.184 47.8218 11.768C48.2698 11.32 48.8618 11.096 49.5978 11.096ZM68.8139 35.336C66.5419 35.336 64.5419 34.84 62.8139 33.848C61.1179 32.856 59.7899 31.448 58.8299 29.624C57.9019 27.8 57.4379 25.688 57.4379 23.288C57.4379 20.856 57.9179 18.712 58.8779 16.856C59.8699 15 61.2459 13.56 63.0059 12.536C64.7659 11.512 66.7819 11 69.0539 11C70.2699 11 71.4859 11.176 72.7019 11.528C73.9499 11.88 75.0539 12.36 76.0139 12.968C77.0379 13.672 77.5499 14.488 77.5499 15.416C77.5499 15.96 77.4059 16.424 77.1179 16.808C76.8299 17.16 76.4619 17.336 76.0139 17.336C75.7259 17.336 75.4379 17.272 75.1499 17.144C74.8619 16.984 74.4939 16.76 74.0459 16.472C73.2459 15.96 72.4939 15.576 71.7899 15.32C71.1179 15.032 70.3019 14.888 69.3419 14.888C67.1659 14.888 65.4699 15.624 64.2539 17.096C63.0699 18.568 62.4779 20.616 62.4779 23.24C62.4779 25.864 63.0699 27.896 64.2539 29.336C65.4379 30.744 67.1179 31.448 69.2939 31.448C70.2539 31.448 71.1019 31.304 71.8379 31.016C72.5739 30.728 73.3259 30.344 74.0939 29.864C74.4459 29.64 74.7979 29.448 75.1499 29.288C75.5019 29.128 75.8219 29.048 76.1099 29.048C76.5579 29.048 76.9259 29.24 77.2139 29.624C77.5019 29.976 77.6459 30.424 77.6459 30.968C77.6459 31.416 77.5179 31.832 77.2619 32.216C77.0379 32.568 76.6379 32.936 76.0619 33.32C75.1019 33.96 73.9819 34.456 72.7019 34.808C71.4219 35.16 70.1259 35.336 68.8139 35.336ZM92.017 35.336C89.745 35.336 87.745 34.84 86.017 33.848C84.321 32.856 82.993 31.448 82.033 29.624C81.105 27.8 80.641 25.688 80.641 23.288C80.641 20.856 81.121 18.712 82.081 16.856C83.073 15 84.449 13.56 86.209 12.536C87.969 11.512 89.985 11 92.257 11C93.473 11 94.689 11.176 95.905 11.528C97.153 11.88 98.257 12.36 99.217 12.968C100.241 13.672 100.753 14.488 100.753 15.416C100.753 15.96 100.609 16.424 100.321 16.808C100.033 17.16 99.665 17.336 99.217 17.336C98.929 17.336 98.641 17.272 98.353 17.144C98.065 16.984 97.697 16.76 97.249 16.472C96.449 15.96 95.697 15.576 94.993 15.32C94.321 15.032 93.505 14.888 92.545 14.888C90.369 14.888 88.673 15.624 87.457 17.096C86.273 18.568 85.681 20.616 85.681 23.24C85.681 25.864 86.273 27.896 87.457 29.336C88.641 30.744 90.321 31.448 92.497 31.448C93.457 31.448 94.305 31.304 95.041 31.016C95.777 30.728 96.529 30.344 97.297 29.864C97.649 29.64 98.001 29.448 98.353 29.288C98.705 29.128 99.025 29.048 99.313 29.048C99.761 29.048 100.129 29.24 100.417 29.624C100.705 29.976 100.849 30.424 100.849 30.968C100.849 31.416 100.721 31.832 100.465 32.216C100.241 32.568 99.841 32.936 99.265 33.32C98.305 33.96 97.185 34.456 95.905 34.808C94.625 35.16 93.329 35.336 92.017 35.336ZM123.524 29.096C123.972 29.096 124.34 29.272 124.628 29.624C124.916 29.976 125.06 30.424 125.06 30.968C125.06 31.896 124.484 32.68 123.332 33.32C122.212 33.96 120.98 34.456 119.636 34.808C118.324 35.16 117.06 35.336 115.844 35.336C112.132 35.336 109.204 34.264 107.06 32.12C104.916 29.944 103.844 26.984 103.844 23.24C103.844 20.84 104.308 18.712 105.236 16.856C106.196 15 107.524 13.56 109.22 12.536C110.948 11.512 112.9 11 115.076 11C118.212 11 120.692 12.008 122.516 14.024C124.34 16.04 125.252 18.76 125.252 22.184C125.252 23.464 124.676 24.104 123.524 24.104H108.692C109.012 29.064 111.396 31.544 115.844 31.544C117.028 31.544 118.052 31.384 118.916 31.064C119.78 30.744 120.692 30.328 121.652 29.816C121.748 29.752 122.004 29.624 122.42 29.432C122.868 29.208 123.236 29.096 123.524 29.096ZM115.172 14.552C113.316 14.552 111.828 15.144 110.708 16.328C109.588 17.512 108.916 19.176 108.692 21.32H121.076C120.98 19.144 120.42 17.48 119.396 16.328C118.404 15.144 116.996 14.552 115.172 14.552ZM138.754 35.336C135.49 35.336 132.818 34.664 130.738 33.32C130.162 32.968 129.746 32.6 129.49 32.216C129.266 31.832 129.154 31.4 129.154 30.92C129.154 30.408 129.298 29.976 129.586 29.624C129.874 29.272 130.242 29.096 130.69 29.096C131.106 29.096 131.762 29.352 132.658 29.864C133.618 30.376 134.546 30.792 135.442 31.112C136.37 31.432 137.522 31.592 138.898 31.592C140.434 31.592 141.634 31.32 142.498 30.776C143.362 30.232 143.794 29.464 143.794 28.472C143.794 27.832 143.618 27.32 143.266 26.936C142.946 26.552 142.37 26.216 141.538 25.928C140.706 25.608 139.474 25.272 137.842 24.92C135.026 24.312 132.994 23.496 131.746 22.472C130.53 21.416 129.922 19.992 129.922 18.2C129.922 16.824 130.322 15.592 131.122 14.504C131.922 13.384 133.026 12.52 134.434 11.912C135.842 11.304 137.442 11 139.234 11C140.514 11 141.762 11.176 142.978 11.528C144.194 11.848 145.266 12.328 146.194 12.968C147.25 13.672 147.778 14.488 147.778 15.416C147.778 15.928 147.618 16.36 147.298 16.712C147.01 17.064 146.658 17.24 146.242 17.24C145.954 17.24 145.666 17.176 145.378 17.048C145.09 16.92 144.706 16.712 144.226 16.424C143.362 15.912 142.546 15.512 141.778 15.224C141.042 14.936 140.114 14.792 138.994 14.792C137.65 14.792 136.562 15.08 135.73 15.656C134.93 16.232 134.53 17.016 134.53 18.008C134.53 18.904 134.898 19.608 135.634 20.12C136.402 20.6 137.826 21.064 139.906 21.512C142.05 21.96 143.73 22.472 144.946 23.048C146.162 23.624 147.026 24.344 147.538 25.208C148.082 26.04 148.354 27.112 148.354 28.424C148.354 30.504 147.474 32.184 145.714 33.464C143.986 34.712 141.666 35.336 138.754 35.336ZM161.911 35.336C158.647 35.336 155.975 34.664 153.895 33.32C153.319 32.968 152.903 32.6 152.647 32.216C152.423 31.832 152.311 31.4 152.311 30.92C152.311 30.408 152.455 29.976 152.743 29.624C153.031 29.272 153.399 29.096 153.847 29.096C154.263 29.096 154.919 29.352 155.815 29.864C156.775 30.376 157.703 30.792 158.599 31.112C159.527 31.432 160.679 31.592 162.055 31.592C163.591 31.592 164.791 31.32 165.655 30.776C166.519 30.232 166.951 29.464 166.951 28.472C166.951 27.832 166.775 27.32 166.423 26.936C166.103 26.552 165.527 26.216 164.695 25.928C163.863 25.608 162.631 25.272 160.999 24.92C158.183 24.312 156.151 23.496 154.903 22.472C153.687 21.416 153.079 19.992 153.079 18.2C153.079 16.824 153.479 15.592 154.279 14.504C155.079 13.384 156.183 12.52 157.591 11.912C158.999 11.304 160.599 11 162.391 11C163.671 11 164.919 11.176 166.135 11.528C167.351 11.848 168.423 12.328 169.351 12.968C170.407 13.672 170.935 14.488 170.935 15.416C170.935 15.928 170.775 16.36 170.455 16.712C170.167 17.064 169.815 17.24 169.399 17.24C169.111 17.24 168.823 17.176 168.535 17.048C168.247 16.92 167.863 16.712 167.383 16.424C166.519 15.912 165.703 15.512 164.935 15.224C164.199 14.936 163.271 14.792 162.151 14.792C160.807 14.792 159.719 15.08 158.887 15.656C158.087 16.232 157.687 17.016 157.687 18.008C157.687 18.904 158.055 19.608 158.791 20.12C159.559 20.6 160.983 21.064 163.063 21.512C165.207 21.96 166.887 22.472 168.103 23.048C169.319 23.624 170.183 24.344 170.695 25.208C171.239 26.04 171.511 27.112 171.511 28.424C171.511 30.504 170.631 32.184 168.871 33.464C167.143 34.712 164.823 35.336 161.911 35.336Z" fill="black"/>
</svg>
