<svg width="175" height="175" viewBox="0 0 175 175" fill="none" xmlns="http://www.w3.org/2000/svg">
<path d="M172.437 158.823H161.878V118.829C161.878 117.413 160.731 116.266 159.315 116.266C157.899 116.266 156.751 117.413 156.751 118.829V158.823H134.258V70.728H156.751V106.866C156.751 108.282 157.899 109.43 159.315 109.43C160.731 109.43 161.878 108.282 161.878 106.866V68.1646C161.878 66.7488 160.731 65.6011 159.315 65.6011H131.694C130.279 65.6011 129.131 66.7488 129.131 68.1646V158.823H123.21V81.9755C123.21 80.5598 122.062 79.4121 120.646 79.4121H93.0245C91.6087 79.4121 90.461 80.5598 90.461 81.9755V158.823H84.5394V102.692C84.5394 101.276 83.3916 100.128 81.9759 100.128H54.3542C52.9385 100.128 51.7908 101.276 51.7908 102.692V158.823H45.8691V119.265C45.8691 117.849 44.7214 116.701 43.3057 116.701H15.6837C14.268 116.701 13.1202 117.849 13.1202 119.265V158.823H2.56348C1.14775 158.823 0 159.971 0 161.386V172.437C0 173.852 1.14775 175 2.56348 175H30.249C31.6647 175 32.8125 173.852 32.8125 172.437C32.8125 171.021 31.6647 169.873 30.249 169.873H5.12695V163.95H169.873V169.873H42.2119C40.7962 169.873 39.6484 171.021 39.6484 172.437C39.6484 173.852 40.7962 175 42.2119 175H172.437C173.852 175 175 173.852 175 172.437V161.386C175 159.971 173.852 158.823 172.437 158.823ZM95.5879 84.539H118.083V158.823H95.5879V84.539ZM56.9174 105.255H79.4121V158.823H56.9174V105.255ZM18.2472 121.828H40.7418V158.823H18.2472V121.828Z" fill="url(#paint0_linear)"/>
<path d="M15.3398 93.5156H54.3525C56.6159 93.5156 58.7897 92.5596 60.3166 90.8934L92.0934 56.2256H113.74C115.901 56.2256 117.932 55.3848 119.459 53.858L145.705 27.6124V35.7106C145.705 37.1263 146.852 38.2741 148.268 38.2741H159.315C160.731 38.2741 161.878 37.1263 161.878 35.7106V8.08691C161.878 3.62783 158.251 0 153.792 0H126.171C124.755 0 123.607 1.14775 123.607 2.56348V13.6138C123.607 15.0295 124.755 16.1772 126.171 16.1772H134.266L110.392 40.0518H88.5357C86.2747 40.0518 84.1019 41.0078 82.5754 42.6737L50.7948 77.3418H43.7261C42.3104 77.3418 41.1626 78.4895 41.1626 79.9053C41.1626 81.321 42.3104 82.4688 43.7261 82.4688H51.9224C52.6408 82.4688 53.3265 82.1673 53.8118 81.6375L86.3546 46.1381C86.9131 45.5287 87.7078 45.1791 88.5353 45.1791H111.453C112.133 45.1791 112.785 44.909 113.265 44.4281L142.267 15.4267C143 14.6935 143.219 13.5909 142.823 12.6332C142.426 11.6751 141.491 11.0506 140.454 11.0506H128.734V5.12695H153.791C155.423 5.12695 156.751 6.45483 156.751 8.08691V33.1475H150.831V21.4238C150.831 20.3872 150.207 19.4523 149.249 19.0555C148.291 18.6594 147.188 18.8781 146.455 19.6113L115.834 50.2325C115.275 50.791 114.531 51.0986 113.74 51.0986H90.9658C90.247 51.0986 89.5617 51.4001 89.076 51.9299L56.5366 87.4292C55.9781 88.039 55.1821 88.3887 54.3525 88.3887H17.9033V82.4688H31.7632C33.1789 82.4688 34.3267 81.321 34.3267 79.9053C34.3267 78.4895 33.1789 77.3418 31.7632 77.3418H15.3398C13.9241 77.3418 12.7764 78.4895 12.7764 79.9053V90.9521C12.7764 92.3679 13.9241 93.5156 15.3398 93.5156Z" fill="url(#paint1_linear)"/>
<defs>
<linearGradient id="paint0_linear" x1="87.5" y1="65.6011" x2="87.5" y2="175" gradientUnits="userSpaceOnUse">
<stop stop-color="#5DBCD2"/>
<stop offset="1" stop-color="#2A99BF"/>
</linearGradient>
<linearGradient id="paint1_linear" x1="87.3274" y1="0" x2="87.3274" y2="93.5156" gradientUnits="userSpaceOnUse">
<stop stop-color="#5DBCD2"/>
<stop offset="1" stop-color="#2A99BF"/>
</linearGradient>
</defs>
</svg>
