<svg width="584" height="421" viewBox="0 0 584 421" fill="none" xmlns="http://www.w3.org/2000/svg">
<g clip-path="url(#clip0)">
<path d="M400.622 405.845C400.622 405.845 405.499 389.432 386.95 380.088L400.622 405.845Z" fill="#F7F4D7"/>
<path d="M401.231 405.932C401.231 405.932 403.165 389.734 424.768 388.719L401.231 405.932Z" fill="#F7F4D7"/>
<path d="M569.659 410.613C566.228 424.728 386.105 423.543 386.378 410.613C389.808 396.498 569.932 397.683 569.659 410.613Z" fill="#F7F4D7"/>
<path d="M62.194 40.291C63.8002 40.291 65.1023 38.9889 65.1023 37.3826C65.1023 35.7764 63.8002 34.4742 62.194 34.4742C60.5877 34.4742 59.2856 35.7764 59.2856 37.3826C59.2856 38.9889 60.5877 40.291 62.194 40.291Z" fill="white"/>
<path d="M73.2323 40.291C74.8385 40.291 76.1407 38.9889 76.1407 37.3826C76.1407 35.7764 74.8385 34.4742 73.2323 34.4742C71.626 34.4742 70.3239 35.7764 70.3239 37.3826C70.3239 38.9889 71.626 40.291 73.2323 40.291Z" fill="white"/>
<path d="M84.2706 40.291C85.8769 40.291 87.179 38.9889 87.179 37.3826C87.179 35.7764 85.8769 34.4742 84.2706 34.4742C82.6644 34.4742 81.3622 35.7764 81.3622 37.3826C81.3622 38.9889 82.6644 40.291 84.2706 40.291Z" fill="white"/>
<path d="M424.451 44.2153H55.1274V46.268H424.451V44.2153Z" fill="white"/>
<path d="M531.223 338.768C531.223 338.768 529.086 331.523 532.568 333.887C536.051 336.25 546.189 339.799 542.537 345.483C538.884 351.167 517.023 382.583 513.488 376.358C511.526 372.902 518.365 343.586 518.365 343.586C518.365 343.586 523.229 342.462 523.926 343.586C524.623 344.711 531.223 338.768 531.223 338.768Z" fill="#2F2E41"/>
<path d="M499.859 153.881L499.206 165.638L490.713 182.623L518.804 181.316L516.844 163.678L518.151 156.492L499.859 153.881Z" fill="#FFB8B8"/>
<path d="M496.593 174.13C496.593 174.13 501.166 179.356 512.925 173.477L522.071 217.897L523.378 257.747L484.181 256.441L484.834 215.937L496.593 174.13Z" fill="#D1D1D1"/>
<path d="M474.682 258.7C474.682 258.7 478.902 279.433 486.792 274.41C494.682 269.387 485.091 254.831 485.091 254.831L474.682 258.7Z" fill="#FFB8B8"/>
<path d="M513.578 370.117L512.925 381.223L523.377 384.489V369.464L513.578 370.117Z" fill="#FFB8B8"/>
<path d="M478.955 253.833V319.161L516.192 351.173L525.337 335.493L499.206 313.936L505.738 297.604L533.176 279.964V254.487L478.955 253.833Z" fill="#2F2E41"/>
<path d="M506.392 294.336L510.311 327.653L511.618 372.074H528.603C528.603 372.074 534.481 332.877 527.95 323.078L533.176 279.967L527.95 262.982L506.392 294.336Z" fill="#2F2E41"/>
<path d="M521.418 380.57C521.418 380.57 522.071 377.957 517.498 377.957C512.925 377.957 510.965 378.61 510.965 379.263C510.812 380.364 510.594 381.454 510.312 382.53C510.312 382.53 498.556 411.927 510.312 410.621C522.069 409.314 524.031 403.436 524.031 403.436L525.338 384.491C525.338 384.491 524.031 382.891 523.378 383.038C522.725 383.185 521.418 380.57 521.418 380.57Z" fill="#2F2E41"/>
<path d="M510.312 160.414C518.25 160.414 524.684 153.979 524.684 146.042C524.684 138.104 518.25 131.669 510.312 131.669C502.375 131.669 495.94 138.104 495.94 146.042C495.94 153.979 502.375 160.414 510.312 160.414Z" fill="#FFB8B8"/>
<path d="M512.925 178.052L508.352 172.826L517.194 161.76L520.765 165.635L541.672 174.781L535.794 232.269C535.794 232.269 535.141 249.255 539.06 261.014C539.06 261.014 530.568 271.466 517.502 268.853L500.517 272.12C500.517 272.12 498.553 187.852 512.925 178.052Z" fill="#3960B0"/>
<path d="M498.553 174.786L499.304 163.898L495.941 168.253L478.302 181.318L480.262 253.833L486.14 257.1L495.94 179.363L498.553 174.786Z" fill="#3960B0"/>
<path d="M482.874 180.666L478.301 181.319C478.301 181.319 475.035 187.197 475.035 187.852C475.035 188.506 473.728 222.476 473.728 222.476C473.728 222.476 471.442 256.773 475.362 263.306L486.927 250.863L482.874 239.461V180.666Z" fill="#3960B0"/>
<path opacity="0.3" d="M509.968 324.729L510.869 346.596L508.153 344.258L509.968 324.729Z" fill="black"/>
<path opacity="0.3" d="M531.687 333.453L530.734 333.926L529.711 363.22L532.073 360.18L531.687 333.453Z" fill="black"/>
<path d="M550.816 261.673C550.816 261.673 547.549 282.58 556.694 280.618C565.838 278.655 561.92 261.673 561.92 261.673H550.816Z" fill="#FFB8B8"/>
<path d="M535.789 174.786H541.668C541.668 174.786 545.587 176.746 546.241 182.626C546.894 188.505 556.04 214.636 556.04 214.636C556.04 214.636 566.492 257.753 565.839 263.632H549.507L550.814 251.876L533.175 204.84L535.789 174.786Z" fill="#3960B0"/>
<path d="M498.087 132.235L495.348 131.138C495.348 131.138 501.077 124.831 509.047 125.38L506.805 122.912C506.805 122.912 512.283 120.718 517.266 126.477C519.885 129.504 522.915 133.062 524.804 137.07H527.738L526.514 139.767L530.8 142.463L526.401 141.979C526.664 143.457 526.704 144.965 526.521 146.454C526.332 147.943 525.572 149.301 524.402 150.24C524.402 150.24 521.004 143.207 521.004 142.11V144.852C521.004 144.852 518.265 142.384 518.265 140.739L516.771 142.658L516.023 139.642L506.805 142.658L508.3 140.19L502.571 141.013L504.813 137.997C504.813 137.997 498.337 141.562 498.088 144.577C497.809 146.669 497.077 148.674 495.943 150.452C495.943 150.452 490.863 136.349 498.087 132.235Z" fill="#2F2E41"/>
<path d="M424.768 0.240479H0.181019V272.164H424.768V0.240479Z" fill="#E6E6E6"/>
<path d="M424.587 0H0V18.038H424.587V0Z" fill="#2A99BF"/>
<path d="M412.978 32.5873H12.6729V136.247H412.978V32.5873Z" fill="white"/>
<path d="M413.231 153.281H12.926V256.941H413.231V153.281Z" fill="white"/>
<path d="M364.496 55.5189H147.85V65.1745H364.496V55.5189Z" fill="#E6E6E6"/>
<path d="M225.094 79.6577H147.85V89.3133H225.094V79.6577Z" fill="#E6E6E6"/>
<path d="M301.735 103.796H147.85V113.452H301.735V103.796Z" fill="#E6E6E6"/>
<path d="M133.316 84.465C133.328 91.4902 131.283 98.3651 127.433 104.242C126.627 105.481 125.743 106.668 124.787 107.796C122.545 110.452 119.933 112.772 117.032 114.686C116.244 115.209 115.433 115.699 114.599 116.156C110.263 118.554 105.478 120.028 100.544 120.484C99.4223 120.594 98.2821 120.646 97.1318 120.646C93.9795 120.649 90.8404 120.239 87.7949 119.425C86.0685 118.971 84.3797 118.385 82.7436 117.671C81.9073 117.31 81.0899 116.918 80.2915 116.493C78.3712 115.485 76.5469 114.303 74.8415 112.963C74.0479 112.345 73.2828 111.694 72.5463 111.01C68.1378 106.927 64.8158 101.81 62.8799 96.1211C60.9441 90.4326 60.4555 84.3515 61.4582 78.4268C62.4609 72.5022 64.9234 66.9205 68.6233 62.1858C72.3232 57.4511 77.1441 53.7124 82.6507 51.3072C88.1572 48.9021 94.1761 47.9062 100.164 48.4095C106.152 48.9128 111.92 50.8995 116.948 54.1902C121.975 57.4808 126.105 61.9719 128.962 67.2578C131.82 72.5437 133.316 78.4581 133.315 84.467L133.316 84.465Z" fill="#E6E6E6"/>
<path d="M88.3633 87.7336C88.3633 87.7336 91.6571 96.8849 89.0981 102.007C86.5391 107.129 93.124 112.986 93.124 112.986C93.124 112.986 110.326 104.203 108.129 99.8106C105.933 95.4187 102.274 89.5632 103.005 85.9033L88.3633 87.7336Z" fill="#FFB8B8"/>
<path d="M94.7685 91.2103C101.237 91.2103 106.48 85.9668 106.48 79.4986C106.48 73.0305 101.237 67.787 94.7685 67.787C88.3004 67.787 83.0569 73.0305 83.0569 79.4986C83.0569 85.9668 88.3004 91.2103 94.7685 91.2103Z" fill="#FFB8B8"/>
<path d="M87.7949 119.423C86.0685 118.969 84.3797 118.383 82.7436 117.669L83.0576 108.779L86.3507 101.456C87.0911 102.036 87.8833 102.547 88.7173 102.981C88.9177 103.091 89.1181 103.195 89.3399 103.3C92.4286 104.792 97.4745 106.105 102.365 102.445C104.163 101.046 105.688 99.329 106.866 97.3796L115.998 102.554L116.478 108.161L117.034 114.686C116.245 115.208 115.434 115.698 114.601 116.155C110.265 118.553 105.479 120.027 100.545 120.484C99.4237 120.593 98.2834 120.645 97.1332 120.645C93.9803 120.648 90.8408 120.237 87.7949 119.423Z" fill="#5DBCD2"/>
<path d="M90.0426 95.9783V95.9923L89.5817 100.772L89.3392 103.3L88.9832 107.059L87.7955 119.423C86.0691 118.969 84.3804 118.383 82.7443 117.669C81.908 117.308 81.0906 116.916 80.2921 116.491C78.3718 115.483 76.5476 114.301 74.8421 112.961L73.5402 106.949L73.6398 106.882L90.0426 95.9783Z" fill="#5DBCD2"/>
<path d="M114.599 116.154C110.263 118.552 105.477 120.026 100.543 120.482C100.81 116.035 101.199 111.739 101.641 107.914C101.868 105.952 102.108 104.118 102.363 102.445C103.156 97.0712 104.011 93.4214 104.625 92.9277L108.673 95.5996L125.143 101.454L124.786 107.793C122.544 110.449 119.933 112.769 117.032 114.683C116.243 115.208 115.432 115.698 114.599 116.154Z" fill="#5DBCD2"/>
<path d="M74.8414 112.961C74.0479 112.343 73.2828 111.692 72.5463 111.008L73.1735 106.95L73.6411 106.883L75.7365 106.584L80.2935 116.491C78.3731 115.483 76.5489 114.301 74.8434 112.961H74.8414Z" fill="#5DBCD2"/>
<path d="M127.434 104.241C126.627 105.48 125.743 106.668 124.787 107.796C122.545 110.451 119.934 112.772 117.033 114.686C116.244 115.208 115.433 115.698 114.6 116.155L114.168 114.269L116.477 108.163L119.29 100.726L125.144 101.461C125.956 102.347 126.72 103.275 127.434 104.241Z" fill="#5DBCD2"/>
<path d="M105.936 68.9065C104.166 66.031 101.394 63.9118 98.1552 62.9568L95.7758 64.8606L96.701 62.6402C95.9229 62.5223 95.1355 62.4776 94.349 62.5066L92.2082 65.2594L93.0946 62.6008C91.2368 62.8317 89.4469 63.4451 87.838 64.4022C86.229 65.3593 84.8358 66.6393 83.7462 68.1617C81.0216 72.0908 80.5613 77.5548 83.2419 81.5146C83.9767 79.2535 84.8705 77.132 85.6066 74.8709C86.1848 74.9498 86.7709 74.9527 87.35 74.8796L88.2451 72.7908L88.4949 74.7907C91.269 74.5489 95.3844 74.0185 98.0142 73.5322L97.7584 71.9959L99.2887 73.2711C100.094 73.0854 100.573 72.917 100.533 72.7888C102.489 75.9423 104.427 77.9563 106.383 81.1098C107.124 76.6637 108.435 72.9645 105.936 68.9065Z" fill="#2F2E41"/>
<path d="M105.288 80.7169C105.726 80.7169 106.081 80.007 106.081 79.1312C106.081 78.2554 105.726 77.5454 105.288 77.5454C104.85 77.5454 104.495 78.2554 104.495 79.1312C104.495 80.007 104.85 80.7169 105.288 80.7169Z" fill="#FFB8B8"/>
<path d="M131.556 204.581C131.567 211.61 129.521 218.49 125.669 224.371C124.862 225.611 123.977 226.799 123.021 227.928C120.777 230.585 118.164 232.907 115.261 234.823C114.471 235.346 113.66 235.836 112.826 236.292C108.487 238.692 103.698 240.167 98.7603 240.624C97.6381 240.733 96.4972 240.786 95.3463 240.786C92.1917 240.789 89.0504 240.378 86.0027 239.564C84.2751 239.11 82.5853 238.523 80.9481 237.809C80.1113 237.447 79.2935 237.054 78.4946 236.63C76.5729 235.621 74.7473 234.438 73.0406 233.097C72.2466 232.479 71.4811 231.828 70.7441 231.143C66.3343 227.056 63.0115 221.936 61.0757 216.245C59.1398 210.553 58.6518 204.469 59.6556 198.541C60.6595 192.614 63.1236 187.03 66.8257 182.293C70.5277 177.556 75.351 173.815 80.8603 171.409C86.3696 169.003 92.3915 168.006 98.3823 168.509C104.373 169.013 110.144 171 115.175 174.292C120.206 177.583 124.337 182.076 127.197 187.364C130.057 192.652 131.555 198.569 131.556 204.581V204.581Z" fill="#2A99BF"/>
<path d="M97.568 187.679H93.1293V221.473H97.568V187.679Z" fill="white"/>
<path d="M112.245 206.796V202.357H78.4512V206.796H112.245Z" fill="white"/>
<path d="M359.064 176.213H142.419V185.868H359.064V176.213Z" fill="#E6E6E6"/>
<path d="M219.663 200.352H142.419V210.007H219.663V200.352Z" fill="#E6E6E6"/>
<path d="M296.304 224.49H142.419V234.146H296.304V224.49Z" fill="#E6E6E6"/>
<path d="M600 314.731C600.002 320.47 598.676 326.132 596.124 331.273C593.573 336.414 589.866 340.895 585.293 344.364C584.631 344.868 583.952 345.351 583.257 345.813C583.078 345.931 582.9 346.045 582.722 346.154C582.074 346.57 581.417 346.956 580.75 347.321C580.482 347.47 580.215 347.613 579.948 347.751C579.894 347.781 579.844 347.806 579.79 347.83C579.448 348.008 579.108 348.182 578.762 348.345C577.249 349.068 575.688 349.686 574.09 350.194C571.557 351 568.945 351.53 566.299 351.775C565.141 351.884 563.971 351.938 562.788 351.938C559.547 351.942 556.319 351.519 553.188 350.683C551.58 350.26 550.004 349.727 548.471 349.085C548.313 349.019 548.15 348.952 547.991 348.885C547.24 348.559 546.504 348.208 545.782 347.832L545.47 347.669C544.684 347.259 543.916 346.821 543.167 346.354C542.025 345.643 540.922 344.871 539.864 344.04C539.325 343.625 538.801 343.19 538.292 342.735C538.024 342.508 537.763 342.267 537.505 342.033C536.506 341.105 535.557 340.124 534.663 339.094C534.307 338.684 533.96 338.268 533.624 337.843C529.936 333.189 527.415 327.72 526.272 321.892C525.129 316.065 525.397 310.049 527.054 304.346C528.711 298.644 531.709 293.421 535.796 289.113C539.884 284.806 544.944 281.539 550.552 279.587C556.16 277.634 562.154 277.052 568.033 277.889C573.912 278.725 579.505 280.957 584.346 284.397C589.186 287.838 593.133 292.386 595.856 297.663C598.58 302.94 600.001 308.792 600.001 314.731H600Z" fill="#F7F4D7"/>
<path d="M574.401 331.402C577.481 331.402 579.978 328.905 579.978 325.825C579.978 322.745 577.481 320.248 574.401 320.248C571.321 320.248 568.824 322.745 568.824 325.825C568.824 328.905 571.321 331.402 574.401 331.402Z" fill="#2F2E41"/>
<path d="M575.955 320.402C576.92 320.402 577.869 320.652 578.708 321.129C579.548 321.605 580.249 322.292 580.744 323.12C581.239 323.949 581.51 324.892 581.531 325.857C581.552 326.822 581.322 327.776 580.864 328.626C581.348 328.021 581.7 327.322 581.898 326.573C582.097 325.825 582.137 325.043 582.016 324.278C581.896 323.513 581.618 322.782 581.199 322.131C580.78 321.479 580.23 320.922 579.584 320.495C578.938 320.068 578.211 319.78 577.447 319.649C576.684 319.519 575.902 319.549 575.151 319.738C574.4 319.926 573.696 320.269 573.085 320.745C572.474 321.22 571.969 321.818 571.601 322.499C572.122 321.845 572.785 321.316 573.539 320.953C574.293 320.59 575.119 320.401 575.956 320.402H575.955Z" fill="#2F2E41"/>
<path d="M563.979 325.813C573.027 325.813 580.362 318.478 580.362 309.43C580.362 300.382 573.027 293.048 563.979 293.048C554.931 293.048 547.597 300.382 547.597 309.43C547.597 318.478 554.931 325.813 563.979 325.813Z" fill="#2F2E41"/>
<path d="M551.122 299.266C553.944 296.091 557.89 294.137 562.126 293.817C566.363 293.496 570.558 294.834 573.826 297.548C573.692 297.42 573.559 297.292 573.421 297.168C571.814 295.729 569.94 294.622 567.904 293.909C565.869 293.196 563.712 292.892 561.559 293.014C559.406 293.137 557.298 293.683 555.357 294.622C553.415 295.561 551.678 296.874 550.245 298.486C548.812 300.098 547.712 301.977 547.007 304.015C546.302 306.053 546.006 308.21 546.136 310.363C546.267 312.516 546.822 314.622 547.768 316.56C548.714 318.498 550.034 320.23 551.651 321.656C551.79 321.78 551.933 321.897 552.075 322.015C548.997 319.087 547.178 315.078 547 310.833C546.822 306.589 548.3 302.441 551.122 299.266H551.122Z" fill="#2F2E41"/>
<path d="M563.84 325.674C569.668 325.674 574.392 320.95 574.392 315.123C574.392 309.296 569.668 304.572 563.84 304.572C558.013 304.572 553.289 309.296 553.289 315.123C553.289 320.95 558.013 325.674 563.84 325.674Z" fill="#A0616A"/>
<path d="M556.343 318.455C556.343 318.455 557.731 331.228 555.51 332.616C553.289 334.004 568.283 335.948 568.283 335.948C568.283 335.948 566.061 322.064 571.615 318.455L556.343 318.455Z" fill="#A0616A"/>
<path d="M582.721 342.614V346.648C582.073 347.063 581.416 347.45 580.749 347.815C580.482 347.963 580.215 348.107 579.947 348.245V348.324H579.789C579.448 348.502 579.107 348.675 578.76 348.838C577.247 349.561 575.687 350.179 574.089 350.687C571.556 351.493 568.944 352.024 566.297 352.269C565.139 352.378 563.969 352.432 562.787 352.432C559.546 352.435 556.318 352.013 553.186 351.176C551.579 350.754 550.003 350.22 548.47 349.579C548.311 349.512 548.148 349.445 547.99 349.379C547.239 349.052 546.502 348.701 545.78 348.326L545.469 348.163C544.683 347.753 543.915 347.314 543.165 346.848C542.023 346.137 540.921 345.364 539.863 344.534C539.324 344.118 538.8 343.683 538.29 343.229C538.023 343.001 537.761 342.761 537.504 342.527C536.504 341.599 535.555 340.618 534.661 339.587C534.779 338.749 534.974 337.923 535.244 337.121L535.25 337.116C535.325 336.906 535.415 336.701 535.517 336.503C536.713 334.263 538.873 333.709 541.563 333.591C543.076 333.524 544.752 333.596 546.527 333.576C547.462 333.572 548.426 333.537 549.399 333.448C555.51 332.894 554.398 329.285 554.676 327.342C554.948 325.458 556.644 327.09 556.758 327.198L556.763 327.203C560.221 328.823 564.048 329.495 567.851 329.151H567.856C568.507 329.068 569.162 329.018 569.818 329.003C571.539 328.983 571.163 329.477 570.574 329.882C570.284 330.072 569.982 330.242 569.67 330.391C569.67 330.391 569.393 332.057 569.116 334.559C568.849 336.952 573.432 338.074 573.813 338.158C573.82 338.164 573.828 338.167 573.837 338.168C575.512 337.733 577.274 337.778 578.925 338.296C579.867 338.643 580.707 339.219 581.37 339.973C582.033 340.727 582.498 341.634 582.721 342.612V342.614Z" fill="#6C63FF"/>
<path d="M548.535 348.324C548.52 348.774 548.496 349.192 548.468 349.58C548.31 349.513 548.147 349.446 547.989 349.379C547.237 349.053 546.501 348.702 545.779 348.327L545.468 348.164C544.682 347.754 543.914 347.315 543.164 346.848C543.187 346.454 543.229 346.062 543.292 345.672C543.892 341.564 543.292 337.369 541.562 333.594C541.428 333.323 541.35 333.174 541.35 333.174C541.35 333.174 543.293 331.508 546.066 333.174C546.241 333.283 546.396 333.42 546.526 333.58C548.367 335.757 548.727 343.608 548.535 348.324Z" fill="#2F2E41"/>
<path d="M578.786 348.324C578.781 348.492 578.771 348.665 578.761 348.838C577.248 349.561 575.687 350.179 574.089 350.687L573.995 348.324L573.639 338.941C573.624 338.67 573.684 338.4 573.812 338.16C573.939 337.911 574.133 337.703 574.372 337.557C574.61 337.412 574.885 337.335 575.164 337.336H578.555C578.724 337.336 578.842 337.677 578.921 338.295C579.137 340.014 579.033 343.855 578.786 348.324Z" fill="#2F2E41"/>
<path d="M554.816 301.934V312.488H557.26L560.369 309.156L559.953 312.488H570.754L570.086 309.156L571.422 312.488H573.144V301.934H554.816Z" fill="#2F2E41"/>
<path d="M553.15 314.429C553.61 314.429 553.983 313.745 553.983 312.902C553.983 312.058 553.61 311.375 553.15 311.375C552.69 311.375 552.317 312.058 552.317 312.902C552.317 313.745 552.69 314.429 553.15 314.429Z" fill="#A0616A"/>
<path d="M574.531 314.429C574.991 314.429 575.364 313.745 575.364 312.902C575.364 312.058 574.991 311.375 574.531 311.375C574.071 311.375 573.698 312.058 573.698 312.902C573.698 313.745 574.071 314.429 574.531 314.429Z" fill="#A0616A"/>
<path d="M585.292 344.858C584.629 345.363 583.95 345.846 583.255 346.307C583.077 346.426 582.899 346.54 582.721 346.649C582.073 347.064 581.416 347.45 580.748 347.816C580.481 347.964 580.214 348.107 579.947 348.246V340.39C579.947 340.39 581.019 341.245 582.72 342.67C583.468 343.297 584.338 344.038 585.292 344.858Z" fill="#6C63FF"/>
<path d="M28.0811 11.9567C29.729 11.9567 31.0649 10.6208 31.0649 8.97287C31.0649 7.32493 29.729 5.98901 28.0811 5.98901C26.4331 5.98901 25.0972 7.32493 25.0972 8.97287C25.0972 10.6208 26.4331 11.9567 28.0811 11.9567Z" fill="white"/>
<path d="M39.4073 11.9567C41.0552 11.9567 42.3911 10.6208 42.3911 8.97287C42.3911 7.32493 41.0552 5.98901 39.4073 5.98901C37.7593 5.98901 36.4234 7.32493 36.4234 8.97287C36.4234 10.6208 37.7593 11.9567 39.4073 11.9567Z" fill="white"/>
<path d="M16.7255 11.9567C18.3734 11.9567 19.7093 10.6208 19.7093 8.97287C19.7093 7.32493 18.3734 5.98901 16.7255 5.98901C15.0775 5.98901 13.7416 7.32493 13.7416 8.97287C13.7416 10.6208 15.0775 11.9567 16.7255 11.9567Z" fill="white"/>
</g>
<defs>
<clipPath id="clip0">
<rect width="600" height="420.76" fill="white"/>
</clipPath>
</defs>
</svg>
