<svg width="166" height="105" viewBox="0 0 166 105" fill="none" xmlns="http://www.w3.org/2000/svg">
<path d="M78.5369 43.7821C79.2192 43.7821 79.7722 43.2291 79.7722 42.5468C79.7722 41.8646 79.2192 41.3115 78.5369 41.3115C77.8547 41.3115 77.3016 41.8646 77.3016 42.5468C77.3016 43.2291 77.8547 43.7821 78.5369 43.7821Z" fill="white"/>
<path d="M18.028 90.6013C18.1509 95.1936 18.9201 99.7456 20.3129 104.123C20.3448 104.225 20.3781 104.325 20.4115 104.426H28.9389C28.9298 104.335 28.9207 104.234 28.9116 104.123C28.343 97.5867 25.0649 57.8034 28.9844 51C28.6417 51.5519 17.3669 69.8318 18.028 90.6013Z" fill="#5DBCD2"/>
<path d="M17.7347 104.531C17.806 104.632 17.8802 104.734 17.9561 104.834H24.3531C24.3046 104.747 24.2485 104.646 24.1833 104.531C23.1265 102.623 19.9985 96.9205 17.0948 91.0086C13.9744 84.6555 11.1117 78.0614 11.3528 75.6748C11.2785 76.2131 9.11938 92.6219 17.7347 104.531Z" fill="#5DBCD2" fill-opacity="0.7"/>
<path d="M165.077 103.791H0V104.97H165.077V103.791Z" fill="#3F3D56"/>
<path d="M102.137 105L84.2251 93.0544V0.617647C84.2251 0.453837 84.16 0.296735 84.0442 0.180904C83.9284 0.0650729 83.7713 0 83.6075 0H82.681C82.5172 0 82.3601 0.0650729 82.2442 0.180904C82.1284 0.296735 82.0633 0.453837 82.0633 0.617647V92.645L63.5378 105L65.9066 104.97L82.0634 94.1337V105H84.2251V94.5453L99.768 104.97L102.137 105Z" fill="#3F3D56"/>
<path d="M51.3199 9.46069C51.1562 9.46088 50.9992 9.52601 50.8834 9.6418C50.7676 9.7576 50.7025 9.91459 50.7023 10.0783V65.6667C50.7025 65.8305 50.7676 65.9874 50.8834 66.1032C50.9992 66.219 51.1562 66.2842 51.3199 66.2844H114.011C114.175 66.2842 114.332 66.219 114.448 66.1032C114.563 65.9874 114.629 65.8305 114.629 65.6667V10.0783C114.629 9.91459 114.563 9.7576 114.448 9.6418C114.332 9.52601 114.175 9.46088 114.011 9.46069H51.3199Z" fill="#E6E6E6"/>
<path d="M80.1803 9.46069C80.2444 9.6412 80.3628 9.79746 80.5193 9.90804C80.6757 10.0186 80.8625 10.0781 81.054 10.0783H86.6128C86.8044 10.0781 86.9912 10.0186 87.1476 9.90804C87.304 9.79746 87.4224 9.6412 87.4865 9.46069H80.1803Z" fill="#3F3D56"/>
<path d="M67.21 66.3406H99.8397C99.7756 66.16 99.6572 66.0038 99.5008 65.8932C99.3444 65.7826 99.1576 65.7231 98.966 65.7229H68.0837C67.8921 65.7231 67.7053 65.7826 67.5489 65.8932C67.3925 66.0038 67.2741 66.16 67.21 66.3406Z" fill="#3F3D56"/>
<path opacity="0.3" d="M68.2066 37.871C72.954 37.871 76.8026 34.0225 76.8026 29.275C76.8026 24.5275 72.954 20.679 68.2066 20.679C63.4591 20.679 59.6105 24.5275 59.6105 29.275C59.6105 34.0225 63.4591 37.871 68.2066 37.871Z" fill="#5DBCD2"/>
<path opacity="0.3" d="M89.9555 46.9787C94.703 46.9787 98.5516 43.1301 98.5516 38.3827C98.5516 33.6352 94.703 29.7866 89.9555 29.7866C85.208 29.7866 81.3595 33.6352 81.3595 38.3827C81.3595 43.1301 85.208 46.9787 89.9555 46.9787Z" fill="#5DBCD2"/>
<path opacity="0.3" d="M76.8725 51.564C83.7089 51.564 89.2508 46.022 89.2508 39.1857C89.2508 32.3493 83.7089 26.8074 76.8725 26.8074C70.0362 26.8074 64.4942 32.3493 64.4942 39.1857C64.4942 46.022 70.0362 51.564 76.8725 51.564Z" fill="#5DBCD2"/>
<path opacity="0.3" d="M73.1219 56.0603C79.9582 56.0603 85.5002 50.5184 85.5002 43.682C85.5002 36.8457 79.9582 31.3037 73.1219 31.3037C66.2855 31.3037 60.7435 36.8457 60.7435 43.682C60.7435 50.5184 66.2855 56.0603 73.1219 56.0603Z" fill="#5DBCD2"/>
<path opacity="0.3" d="M95.3783 59.7566C102.215 59.7566 107.757 54.2147 107.757 47.3783C107.757 40.542 102.215 35 95.3783 35C88.542 35 83 40.542 83 47.3783C83 54.2147 88.542 59.7566 95.3783 59.7566Z" fill="#5DBCD2"/>
<path opacity="0.3" d="M91.9334 41.8303C98.7698 41.8303 104.312 36.2884 104.312 29.452C104.312 22.6157 98.7698 17.0737 91.9334 17.0737C85.0971 17.0737 79.5551 22.6157 79.5551 29.452C79.5551 36.2884 85.0971 41.8303 91.9334 41.8303Z" fill="#5DBCD2"/>
</svg>
