<svg width="66" height="75" viewBox="0 0 66 75" fill="none" xmlns="http://www.w3.org/2000/svg">
<g clip-path="url(#clip0)">
<path d="M14.6895 65.625H1.08398V21.8115H14.6895V65.625ZM7.87939 15.835C3.52881 15.835 0 12.2314 0 7.88086C3.11396e-08 5.79111 0.830148 3.78696 2.30782 2.30929C3.78549 0.831613 5.78965 0.00146484 7.87939 0.00146484C9.96914 0.00146484 11.9733 0.831613 13.451 2.30929C14.9286 3.78696 15.7588 5.79111 15.7588 7.88086C15.7588 12.2314 12.2285 15.835 7.87939 15.835ZM65.6104 65.625H52.0342V44.2969C52.0342 39.2139 51.9316 32.6953 44.9604 32.6953C37.8867 32.6953 36.8027 38.2178 36.8027 43.9307V65.625H23.2119V21.8115H36.2607V27.7881H36.4512C38.2676 24.3457 42.7046 20.7129 49.3242 20.7129C63.0938 20.7129 65.625 29.7803 65.625 41.5576V65.625H65.6104Z" fill="white"/>
</g>
<defs>
<clipPath id="clip0">
<rect width="65.625" height="75" fill="white"/>
</clipPath>
</defs>
</svg>
