<svg width="85" height="75" viewBox="0 0 85 75" fill="none" xmlns="http://www.w3.org/2000/svg">
<path d="M80.5159 18.1762C79.5958 14.7119 76.885 11.9834 73.443 11.0575C67.2042 9.375 42.1875 9.375 42.1875 9.375C42.1875 9.375 17.1709 9.375 10.932 11.0575C7.49003 11.9836 4.77919 14.7119 3.85912 18.1762C2.18744 24.4556 2.18744 37.5568 2.18744 37.5568C2.18744 37.5568 2.18744 50.6581 3.85912 56.9375C4.77919 60.4018 7.49003 63.0166 10.932 63.9425C17.1709 65.625 42.1875 65.625 42.1875 65.625C42.1875 65.625 67.2041 65.625 73.443 63.9425C76.885 63.0166 79.5958 60.4018 80.5159 56.9375C82.1876 50.6581 82.1876 37.5568 82.1876 37.5568C82.1876 37.5568 82.1876 24.4556 80.5159 18.1762ZM34.0056 49.4518V25.6619L54.9146 37.5571L34.0056 49.4518Z" fill="white"/>
</svg>
