<svg width="75" height="75" viewBox="0 0 75 75" fill="none" xmlns="http://www.w3.org/2000/svg">
<g clip-path="url(#clip0)">
<path d="M73.9805 64.8428L59.3745 50.2397C58.7153 49.5806 57.8218 49.2144 56.8843 49.2144H54.4966C58.5396 44.0435 60.9419 37.541 60.9419 30.4658C60.9419 13.6362 47.3027 0 30.4717 0C13.6406 0 0 13.6362 0 30.4658C0 47.2954 13.6392 60.9316 30.4717 60.9316C37.5469 60.9316 44.0522 58.5293 49.2231 54.4863V56.874C49.2231 57.8115 49.5894 58.7051 50.2485 59.3643L64.8545 73.9673C66.2314 75.3442 68.458 75.3442 69.8203 73.9673L73.9658 69.8218C75.3428 68.4448 75.3428 66.2197 73.9805 64.8428V64.8428ZM30.4717 51.5566C18.8203 51.5566 9.37793 42.1318 9.37793 30.4658C9.37793 18.8159 18.8042 9.375 30.4717 9.375C42.123 9.375 51.5654 18.7998 51.5654 30.4658C51.5654 42.1157 42.1392 51.5566 30.4717 51.5566ZM30.4746 16.4062C24.501 16.4062 19.6582 21.2476 19.6582 27.2212C19.6582 32.0493 26.7275 40.8516 29.436 44.0464C29.5631 44.1984 29.7219 44.3207 29.9014 44.4046C30.0808 44.4884 30.2765 44.5319 30.4746 44.5319C30.6727 44.5319 30.8684 44.4884 31.0478 44.4046C31.2273 44.3207 31.3862 44.1984 31.5132 44.0464C34.2217 40.8516 41.291 32.0508 41.291 27.2212C41.291 21.2476 36.4482 16.4062 30.4746 16.4062V16.4062ZM30.4746 30.4688C28.5322 30.4688 26.959 28.894 26.959 26.9531C26.959 25.0107 28.5337 23.4375 30.4746 23.4375C32.4155 23.4375 33.9902 25.0107 33.9902 26.9531C33.9902 28.894 32.4155 30.4688 30.4746 30.4688Z" fill="white"/>
</g>
<defs>
<clipPath id="clip0">
<rect width="75" height="75" fill="white"/>
</clipPath>
</defs>
</svg>
