<svg width="45" height="75" viewBox="0 0 45 75" fill="none" xmlns="http://www.w3.org/2000/svg">
<path d="M38.25 0H6.75C3.02344 0 0 3.14941 0 7.03125V67.9688C0 71.8506 3.02344 75 6.75 75H38.25C41.9766 75 45 71.8506 45 67.9688V7.03125C45 3.14941 41.9766 0 38.25 0ZM22.5 70.3125C20.0109 70.3125 18 68.2178 18 65.625C18 63.0322 20.0109 60.9375 22.5 60.9375C24.9891 60.9375 27 63.0322 27 65.625C27 68.2178 24.9891 70.3125 22.5 70.3125ZM38.25 54.4922C38.25 55.459 37.4906 56.25 36.5625 56.25H8.4375C7.50938 56.25 6.75 55.459 6.75 54.4922V8.78906C6.75 7.82227 7.50938 7.03125 8.4375 7.03125H36.5625C37.4906 7.03125 38.25 7.82227 38.25 8.78906V54.4922Z" fill="white"/>
</svg>
